<?xml version="1.0" encoding="UTF-8"?>
<svg version="1.1" xmlns="http://www.w3.org/2000/svg" width="500" height="500">
<path d="M0 0 C1.12027588 0.27408691 1.12027588 0.27408691 2.26318359 0.55371094 C15.62164762 3.94554108 27.26592113 9.85462053 39 17 C39.62825684 17.38124023 40.25651367 17.76248047 40.90380859 18.15527344 C42.30906977 19.04336893 43.662133 20.01329616 45 21 C45 21.66 45 22.32 45 23 C45.61875 23.309375 46.2375 23.61875 46.875 23.9375 C48.25 24.625 49.625 25.3125 51 26 C51 26.66 51 27.32 51 28 C51.804375 28.309375 51.804375 28.309375 52.625 28.625 C55.91978009 30.53250426 58.59363628 33.04819384 61 36 C61 36.66 61 37.32 61 38 C61.66 38 62.32 38 63 38 C64.65368739 39.90158934 66.17874302 41.80016797 67.6875 43.8125 C68.13013184 44.39620361 68.57276367 44.97990723 69.02880859 45.58129883 C80 60.22079637 80 60.22079637 80 64 C80.66 64 81.32 64 82 64 C82 63.34 82 62.68 82 62 C82.66 62 83.32 62 84 62 C84.25813477 61.41879395 84.51626953 60.83758789 84.78222656 60.23876953 C87.00081329 56.16009265 90.49213992 53.13869854 93.75 49.875 C94.45382812 49.14667969 95.15765625 48.41835937 95.8828125 47.66796875 C100.9309395 42.59169235 104.53174208 40.40463009 111.75 39.5625 C121.59187935 39.88579463 128.80111324 47.10485527 135.1875 53.8125 C136.31961914 54.96588867 136.31961914 54.96588867 137.47460938 56.14257812 C141.6273469 60.40317896 145.62690804 64.77270196 149.51000977 69.2800293 C150.46485336 70.38225331 151.43677437 71.47004531 152.42944336 72.53833008 C156.7497307 77.32027874 158.6340107 82.12436976 159.4375 88.4375 C158.4244246 96.68682823 154.74293465 101.82791716 148.70703125 107.37109375 C146.90624684 108.90554599 146.90624684 108.90554599 146 111 C145.34 111 144.68 111 144 111 C144 111.66 144 112.32 144 113 C143.34 113 142.68 113 142 113 C142 113.66 142 114.32 142 115 C141.34 115 140.68 115 140 115 C139.690625 115.61875 139.38125 116.2375 139.0625 116.875 C138.375 118.25 137.6875 119.625 137 121 C136.34 121 135.68 121 135 121 C135 121.66 135 122.32 135 123 C134.34 123 133.68 123 133 123 C133 123.66 133 124.32 133 125 C132.319375 125.53625 131.63875 126.0725 130.9375 126.625 C126.00544011 130.61262289 122.14725008 135.57075359 118.1875 140.5 C117.465625 141.325 116.74375 142.15 116 143 C115.34 143 114.68 143 114 143 C114 143.66 114 144.32 114 145 C113.34 145 112.68 145 112 145 C111.75636719 145.57234375 111.51273437 146.1446875 111.26171875 146.734375 C109.77482702 149.40433538 108.01916092 151.13829007 105.8125 153.25 C100.73269413 158.2154694 96.02510895 163.37283163 91.6875 169 C91.130625 169.66 90.57375 170.32 90 171 C89.34 171 88.68 171 88 171 C88 171.66 88 172.32 88 173 C87.34 173 86.68 173 86 173 C86 173.66 86 174.32 86 175 C85.34 175 84.68 175 84 175 C83.74476563 175.57741943 83.48953125 176.15483887 83.2265625 176.74975586 C81.87212704 179.23459495 80.33617265 180.96679676 78.375 183.00390625 C77.66859375 183.74447266 76.9621875 184.48503906 76.234375 185.24804688 C75.49703125 186.01181641 74.7596875 186.77558594 74 187.5625 C72.53972303 189.08277087 71.08130756 190.60483255 69.625 192.12890625 C68.97789062 192.79994385 68.33078125 193.47098145 67.6640625 194.16235352 C65.82583567 196.10164262 65.82583567 196.10164262 64 199 C63.34 199 62.68 199 62 199 C62 199.66 62 200.32 62 201 C61.34 201 60.68 201 60 201 C60 201.66 60 202.32 60 203 C59.34 203 58.68 203 58 203 C57.75378906 203.57492187 57.50757813 204.14984375 57.25390625 204.7421875 C55.80206947 207.35639827 54.09712451 209.06336208 51.9375 211.125 C49.08428067 213.77905 49.08428067 213.77905 47 217 C46.34 217 45.68 217 45 217 C44.6596875 217.804375 44.6596875 217.804375 44.3125 218.625 C42.54429911 221.82460161 40.46329797 224.29037223 38 227 C37.34 227 36.68 227 36 227 C36 227.66 36 228.32 36 229 C35.34 229 34.68 229 34 229 C34 229.66 34 230.32 34 231 C33.34 231 32.68 231 32 231 C31.773125 231.556875 31.54625 232.11375 31.3125 232.6875 C29.62449964 235.66159588 27.53323483 237.72008865 25 240 C24.34 240 23.68 240 23 240 C23 240.66 23 241.32 23 242 C13.99280268 246.31758045 4.99371418 250.6253868 -4.1875 254.5625 C-10.05891844 257.09021998 -15.78384051 259.83015457 -21.48217773 262.7253418 C-30.46941614 267.28075715 -39.58807478 271.56666106 -48.68847656 275.89013672 C-50.19520816 276.61358431 -51.69205831 277.35810039 -53.17651367 278.1262207 C-56.49882914 279.71820987 -59.35872722 279.2889899 -63 279 C-64.74975586 277.72631836 -64.74975586 277.72631836 -66 276 C-65.88804728 268.48424044 -63.49597291 261.94126436 -60.9375 254.9375 C-60.56044922 253.88111328 -60.18339844 252.82472656 -59.79492188 251.73632812 C-58.87193362 249.15429769 -57.94017293 246.57581186 -57 244 C-58.02996094 243.86980469 -59.05992187 243.73960937 -60.12109375 243.60546875 C-79.54843167 240.57300412 -101.77581679 229.90809025 -116 216 C-116 215.34 -116 214.68 -116 214 C-116.66 214 -117.32 214 -118 214 C-118 213.34 -118 212.68 -118 212 C-118.66 212 -119.32 212 -120 212 C-120 211.34 -120 210.68 -120 210 C-120.639375 209.731875 -121.27875 209.46375 -121.9375 209.1875 C-124 208 -124 208 -125 205 C-125.66 205 -126.32 205 -127 205 C-128.5078125 203.3203125 -128.5078125 203.3203125 -130.125 201.125 C-130.93324219 200.04605469 -130.93324219 200.04605469 -131.7578125 198.9453125 C-133 197 -133 197 -133 195 C-133.66 195 -134.32 195 -135 195 C-144.82875927 182.7007688 -151.30001731 166.16418707 -155 151 C-155.18546387 150.24501221 -155.37092773 149.49002441 -155.56201172 148.7121582 C-157.29148418 140.62405887 -157.37227452 132.58511451 -157.37060547 124.35083008 C-157.3749489 121.96556496 -157.41129617 119.58220175 -157.44921875 117.19726562 C-157.64982424 89.55183326 -147.66333905 62.51731313 -129 42 C-128.06716816 40.94839558 -127.1349019 39.89628926 -126.203125 38.84375 C-121.73541652 33.85364716 -117.31796801 29.09074462 -112 25 C-111.34 25 -110.68 25 -110 25 C-110 24.34 -110 23.68 -110 23 C-108.35 22.34 -106.7 21.68 -105 21 C-105 20.34 -105 19.68 -105 19 C-93.15388369 10.55479184 -78.00526092 3.75043856 -64 0 C-62.93136719 -0.29777344 -61.86273438 -0.59554687 -60.76171875 -0.90234375 C-41.46933228 -5.39906541 -19.19750352 -4.85865505 0 0 Z " fill="#1A75C0" transform="translate(263,111)"/>
<path d="M0 0 C0.69770508 0.16628906 1.39541016 0.33257812 2.11425781 0.50390625 C32.04318279 7.86683085 55.16055622 27.9900428 71 54 C74.08684096 59.3353609 74.08684096 59.3353609 73.73999023 61.98999023 C72.45621535 65.47706335 69.51699458 67.7388658 66.875 70.25 C65.683091 71.41091027 64.49297361 72.57366293 63.3046875 73.73828125 C62.44568848 74.57866943 62.44568848 74.57866943 61.56933594 75.43603516 C57.60081038 79.39097833 54.04799971 83.68328241 50.5625 88.0625 C48.48804894 90.44052926 46.51158311 92.34571724 44.125 94.375 C39.38339672 98.42009658 35.41775021 102.98740649 31.5234375 107.83984375 C30.38415386 109.25562021 29.19666617 110.63238153 28 112 C27.34 112 26.68 112 26 112 C25.75378906 112.57492188 25.50757813 113.14984375 25.25390625 113.7421875 C23.80206947 116.35639827 22.09712451 118.06336208 19.9375 120.125 C17.08428067 122.77905 17.08428067 122.77905 15 126 C14.34 126 13.68 126 13 126 C12.78472656 126.54398438 12.56945312 127.08796875 12.34765625 127.6484375 C10.53620359 130.80929113 8.04503977 133.12763796 5.4375 135.625 C1.77285984 138.96402902 1.77285984 138.96402902 -1 143 C-1.66 143 -2.32 143 -3 143 C-3.26337158 143.59006836 -3.52674316 144.18013672 -3.7980957 144.78808594 C-5.05201652 147.09572815 -6.35195261 148.56727394 -8.23046875 150.390625 C-8.86549316 151.01396729 -9.50051758 151.63730957 -10.15478516 152.27954102 C-10.82558105 152.92979248 -11.49637695 153.58004395 -12.1875 154.25 C-17.34812991 159.32822098 -22.38811251 164.41019919 -27 170 C-27.78632813 170.75796875 -28.57265625 171.5159375 -29.3828125 172.296875 C-33.65080238 177.42245163 -34.92550409 184.39352437 -36.75 190.6875 C-37.15099383 192.0323043 -37.55332667 193.3767101 -37.95703125 194.72070312 C-38.69295754 197.17572217 -39.41936221 199.63280302 -40.13964844 202.0925293 C-40.72544446 204.07216746 -41.34715054 206.04145161 -42 208 C-58.66341621 209.55008523 -78.23366078 198.27589648 -90.65234375 188.02734375 C-101.46952819 178.91214444 -101.46952819 178.91214444 -105 175 C-105 174.34 -105 173.68 -105 173 C-105.66 173 -106.32 173 -107 173 C-108.84889347 170.6193986 -110.56483569 168.24339256 -112.25 165.75 C-112.74508057 165.02143799 -113.24016113 164.29287598 -113.75024414 163.54223633 C-117.72357036 157.59887042 -121.14545245 151.56452954 -124 145 C-124.54720703 143.78957031 -124.54720703 143.78957031 -125.10546875 142.5546875 C-135.78605156 116.4465962 -133.88985332 87.06064797 -123.1875 61.375 C-122.48303737 59.90457403 -121.75053159 58.44745379 -121 57 C-120.45859375 55.94554687 -119.9171875 54.89109375 -119.359375 53.8046875 C-114.61169216 44.88973227 -108.79605482 37.44280928 -102 30 C-101.39414063 29.32324219 -100.78828125 28.64648438 -100.1640625 27.94921875 C-75.11516369 1.37294806 -34.86345251 -8.42962107 0 0 Z " fill="#AAE5FD" transform="translate(256,129)"/>
<path d="M0 0 C3.27282906 0.45398743 4.91538892 1.54566929 7.20800781 3.86743164 C8.10848846 4.76825218 8.10848846 4.76825218 9.02716064 5.68727112 C9.980513 6.66384926 9.980513 6.66384926 10.953125 7.66015625 C11.61334656 8.32462265 12.27356812 8.98908905 12.95379639 9.6736908 C15.0596764 11.79635563 17.15488328 13.92921605 19.25 16.0625 C20.67639232 17.50393934 22.1034677 18.94470309 23.53125 20.38476562 C27.02880594 23.91538832 30.51682565 27.45519053 34 31 C32.09867461 36.01160673 29.89369604 38.36024066 26 42 C27.32 42 28.64 42 30 42 C30.07427838 45.34252724 30.06546953 47.8035914 29 51 C29.99 50.67 30.98 50.34 32 50 C32.33 49.01 32.66 48.02 33 47 C34.32 47 35.64 47 37 47 C37.33 46.01 37.66 45.02 38 44 C38.66 44 39.32 44 40 44 C40 44.66 40 45.32 40 46 C40.66 46 41.32 46 42 46 C43.41377341 43.36095629 44.37240135 40.92879371 45 38 C45.66 38 46.32 38 47 38 C47.8046875 39.6796875 47.8046875 39.6796875 48 42 C45.9453125 44.5078125 45.9453125 44.5078125 43.125 47.125 C39.60763913 50.21842731 39.60763913 50.21842731 37 54 C36.34 54 35.68 54 35 54 C35 54.66 35 55.32 35 56 C34.34 56 33.68 56 33 56 C32.75636719 56.57234375 32.51273438 57.1446875 32.26171875 57.734375 C30.77482702 60.40433538 29.01916092 62.13829007 26.8125 64.25 C21.73269413 69.2154694 17.02510895 74.37283163 12.6875 80 C12.130625 80.66 11.57375 81.32 11 82 C10.34 82 9.68 82 9 82 C9 82.66 9 83.32 9 84 C8.34 84 7.68 84 7 84 C7 84.66 7 85.32 7 86 C6.34 86 5.68 86 5 86 C4.74476563 86.57741943 4.48953125 87.15483887 4.2265625 87.74975586 C2.87212704 90.23459495 1.33617265 91.96679676 -0.625 94.00390625 C-1.68460938 95.11475586 -1.68460938 95.11475586 -2.765625 96.24804688 C-3.50296875 97.01181641 -4.2403125 97.77558594 -5 98.5625 C-6.46027697 100.08277087 -7.91869244 101.60483255 -9.375 103.12890625 C-10.02210938 103.79994385 -10.66921875 104.47098145 -11.3359375 105.16235352 C-13.17416433 107.10164262 -13.17416433 107.10164262 -15 110 C-15.66 110 -16.32 110 -17 110 C-17 110.66 -17 111.32 -17 112 C-17.66 112 -18.32 112 -19 112 C-19 112.66 -19 113.32 -19 114 C-19.66 114 -20.32 114 -21 114 C-21.24621094 114.57492187 -21.49242187 115.14984375 -21.74609375 115.7421875 C-23.19793053 118.35639827 -24.90287549 120.06336208 -27.0625 122.125 C-29.91571933 124.77905 -29.91571933 124.77905 -32 128 C-32.66 128 -33.32 128 -34 128 C-34.226875 128.53625 -34.45375 129.0725 -34.6875 129.625 C-36.45570089 132.82460161 -38.53670203 135.29037223 -41 138 C-41.66 138 -42.32 138 -43 138 C-43 138.66 -43 139.32 -43 140 C-43.66 140 -44.32 140 -45 140 C-45 140.66 -45 141.32 -45 142 C-45.66 142 -46.32 142 -47 142 C-47.226875 142.556875 -47.45375 143.11375 -47.6875 143.6875 C-49.37550036 146.66159588 -51.46676517 148.72008865 -54 151 C-54.66 151 -55.32 151 -56 151 C-56 151.66 -56 152.32 -56 153 C-65.73618701 157.66702008 -75.47426411 162.28823258 -85.40551758 166.52758789 C-90.57367697 168.75301373 -95.52633521 171.30173041 -100.44921875 174.03125 C-103.43136916 175.1638278 -104.98817343 174.91168804 -108 174 C-106.79618552 171.50638429 -105.54571278 169.31856917 -104 167 C-103.34 167 -102.68 167 -102 167 C-101.505 167.99 -101.505 167.99 -101 169 C-98.97536745 169.65213292 -98.97536745 169.65213292 -97 170 C-96.9175 169.38125 -96.835 168.7625 -96.75 168.125 C-96 166 -96 166 -93.9375 164.75 C-92.9784375 164.37875 -92.9784375 164.37875 -92 164 C-92 163.236875 -92 162.47375 -92 161.6875 C-92 159.79166667 -92 157.89583333 -92 156 C-93.41777182 156.08785338 -94.83429039 156.19604647 -96.25 156.3125 C-97.43335938 156.39951172 -97.43335938 156.39951172 -98.640625 156.48828125 C-101.44137812 157.09572936 -102.75452254 158.24691457 -105 160 C-106.91419648 160.88555211 -108.85458613 161.71582911 -110.8125 162.5 C-111.86566406 162.92667969 -112.91882813 163.35335937 -114.00390625 163.79296875 C-114.99261719 164.19128906 -115.98132813 164.58960938 -117 165 C-119.33881199 165.98784547 -121.66914397 166.99349399 -124 168 C-123.42080813 161.37913718 -121.75494881 155.51743795 -119.65625 149.2265625 C-119.32709595 148.22160736 -118.99794189 147.21665222 -118.65881348 146.1812439 C-117.61268562 142.99354216 -116.55630899 139.80934052 -115.5 136.625 C-114.78972946 134.46244808 -114.08008752 132.2996896 -113.37109375 130.13671875 C-110.77408927 122.23851001 -110.77408927 122.23851001 -109.47460938 118.32275391 C-109.2133728 117.53413971 -108.95213623 116.74552551 -108.6829834 115.93301392 C-108 114 -108 114 -107 112 C-105 113 -103 114 -101 115 C-101 115.66 -101 116.32 -101 117 C-99.68 117.66 -98.36 118.32 -97 119 C-97 119.66 -97 120.32 -97 121 C-96.43667969 121.23203125 -95.87335938 121.4640625 -95.29296875 121.703125 C-92.4251509 123.3251276 -90.56898879 125.35179936 -88.3125 127.75 C-84.04528747 132.09927431 -79.62287985 136.45878027 -74 139 C-70.88667752 138.33131686 -70.88667752 138.33131686 -69.8125 135.9375 C-69.544375 135.298125 -69.27625 134.65875 -69 134 C-68.38125 134.185625 -67.7625 134.37125 -67.125 134.5625 C-64.95839822 135.23686176 -64.95839822 135.23686176 -63 134 C-65.82902876 131.14153993 -68.66400779 128.28905016 -71.5 125.4375 C-72.29148437 124.63763672 -73.08296875 123.83777344 -73.8984375 123.01367188 C-80.613695 116.27089283 -87.66380867 110.05235784 -95 104 C-94.431775 100.33089002 -93.05620402 98.75521765 -90.375 96.25 C-87.51088084 93.50884839 -84.85871211 90.72616632 -82.3125 87.6875 C-79.77412836 84.71546578 -77.38307657 82.97346133 -74 81 C-72.95107762 79.36368108 -71.95093297 77.69514137 -71 76 C-69.68733482 74.64631404 -68.35432675 73.31200404 -67 72 C-66.46375 71.2575 -65.9275 70.515 -65.375 69.75 C-64.92125 69.1725 -64.4675 68.595 -64 68 C-63.34 68 -62.68 68 -62 68 C-61.75894531 67.44183594 -61.51789063 66.88367188 -61.26953125 66.30859375 C-59.73113421 63.51107791 -57.84438036 61.41513085 -55.6875 59.0625 C-54.87925781 58.18078125 -54.07101562 57.2990625 -53.23828125 56.390625 C-50.87737148 53.86902503 -48.47496008 51.40982955 -46 49 C-41.7086998 44.81285757 -37.66336732 40.51105135 -33.75 35.96875 C-32.06201714 34.06976929 -30.31230266 32.27994012 -28.5 30.5 C-26.10722509 28.14966899 -23.86808888 25.735776 -21.6875 23.1875 C-18.14246848 19.06889035 -14.30565555 15.28970861 -10.44140625 11.47265625 C-7.12881966 8.11766855 -4.05974713 4.58374052 -1 1 C-0.67 0.67 -0.34 0.34 0 0 Z " fill="#2CB2E2" transform="translate(342,200)"/>
<path d="M0 0 C0.66 0 1.32 0 2 0 C2.8046875 1.6796875 2.8046875 1.6796875 3 4 C0.9453125 6.5078125 0.9453125 6.5078125 -1.875 9.125 C-5.39236087 12.21842731 -5.39236087 12.21842731 -8 16 C-8.66 16 -9.32 16 -10 16 C-10 16.66 -10 17.32 -10 18 C-10.66 18 -11.32 18 -12 18 C-12.24363281 18.57234375 -12.48726562 19.1446875 -12.73828125 19.734375 C-14.22517298 22.40433538 -15.98083908 24.13829007 -18.1875 26.25 C-23.26730587 31.2154694 -27.97489105 36.37283163 -32.3125 42 C-32.869375 42.66 -33.42625 43.32 -34 44 C-34.66 44 -35.32 44 -36 44 C-36 44.66 -36 45.32 -36 46 C-36.66 46 -37.32 46 -38 46 C-38 46.66 -38 47.32 -38 48 C-38.66 48 -39.32 48 -40 48 C-40.25523437 48.57741943 -40.51046875 49.15483887 -40.7734375 49.74975586 C-42.12787296 52.23459495 -43.66382735 53.96679676 -45.625 56.00390625 C-46.33140625 56.74447266 -47.0378125 57.48503906 -47.765625 58.24804688 C-48.50296875 59.01181641 -49.2403125 59.77558594 -50 60.5625 C-51.46027697 62.08277087 -52.91869244 63.60483255 -54.375 65.12890625 C-55.02210938 65.79994385 -55.66921875 66.47098145 -56.3359375 67.16235352 C-58.17416433 69.10164262 -58.17416433 69.10164262 -60 72 C-60.66 72 -61.32 72 -62 72 C-62 72.66 -62 73.32 -62 74 C-62.66 74 -63.32 74 -64 74 C-64 74.66 -64 75.32 -64 76 C-64.66 76 -65.32 76 -66 76 C-66.24621094 76.57492187 -66.49242187 77.14984375 -66.74609375 77.7421875 C-68.19793053 80.35639827 -69.90287549 82.06336208 -72.0625 84.125 C-74.91571933 86.77905 -74.91571933 86.77905 -77 90 C-77.66 90 -78.32 90 -79 90 C-79.226875 90.53625 -79.45375 91.0725 -79.6875 91.625 C-81.45570089 94.82460161 -83.53670203 97.29037223 -86 100 C-86.66 100 -87.32 100 -88 100 C-88 100.66 -88 101.32 -88 102 C-88.66 102 -89.32 102 -90 102 C-90 102.66 -90 103.32 -90 104 C-90.66 104 -91.32 104 -92 104 C-92.226875 104.556875 -92.45375 105.11375 -92.6875 105.6875 C-94.37550036 108.66159588 -96.46676517 110.72008865 -99 113 C-99.66 113 -100.32 113 -101 113 C-101 113.66 -101 114.32 -101 115 C-110.73618701 119.66702008 -120.47426411 124.28823258 -130.40551758 128.52758789 C-135.57367697 130.75301373 -140.52633521 133.30173041 -145.44921875 136.03125 C-148.43136916 137.1638278 -149.98817343 136.91168804 -153 136 C-151.79618552 133.50638429 -150.54571278 131.31856917 -149 129 C-148.34 129 -147.68 129 -147 129 C-146.505 129.99 -146.505 129.99 -146 131 C-143.97536745 131.65213292 -143.97536745 131.65213292 -142 132 C-141.9175 131.38125 -141.835 130.7625 -141.75 130.125 C-141 128 -141 128 -138.9375 126.75 C-137.9784375 126.37875 -137.9784375 126.37875 -137 126 C-137 125.236875 -137 124.47375 -137 123.6875 C-137 121.79166667 -137 119.89583333 -137 118 C-138.41777182 118.08785338 -139.83429039 118.19604647 -141.25 118.3125 C-142.03890625 118.37050781 -142.8278125 118.42851562 -143.640625 118.48828125 C-146.44137812 119.09572936 -147.75452254 120.24691457 -150 122 C-151.91419648 122.88555211 -153.85458613 123.71582911 -155.8125 124.5 C-157.39224609 125.14001953 -157.39224609 125.14001953 -159.00390625 125.79296875 C-159.99261719 126.19128906 -160.98132813 126.58960938 -162 127 C-164.33881199 127.98784547 -166.66914397 128.99349399 -169 130 C-168.42080813 123.37913718 -166.75494881 117.51743795 -164.65625 111.2265625 C-164.32709595 110.22160736 -163.99794189 109.21665222 -163.65881348 108.1812439 C-162.61268562 104.99354216 -161.55630899 101.80934052 -160.5 98.625 C-159.78972946 96.46244808 -159.08008752 94.2996896 -158.37109375 92.13671875 C-155.77408927 84.23851001 -155.77408927 84.23851001 -154.47460938 80.32275391 C-154.2133728 79.53413971 -153.95213623 78.74552551 -153.6829834 77.93301392 C-153 76 -153 76 -152 74 C-149 75.5 -149 75.5 -146 77 C-146 77.66 -146 78.32 -146 79 C-144.68 79.66 -143.36 80.32 -142 81 C-142 81.66 -142 82.32 -142 83 C-141.43667969 83.23203125 -140.87335938 83.4640625 -140.29296875 83.703125 C-137.4251509 85.3251276 -135.56898879 87.35179936 -133.3125 89.75 C-129.04528747 94.09927431 -124.62287985 98.45878027 -119 101 C-115.88667752 100.33131686 -115.88667752 100.33131686 -114.8125 97.9375 C-114.544375 97.298125 -114.27625 96.65875 -114 96 C-113.46375 96.20625 -112.9275 96.4125 -112.375 96.625 C-109.1199909 97.1389488 -107.00043053 96.26684844 -104 95 C-103.67 94.34 -103.34 93.68 -103 93 C-102.34 93 -101.68 93 -101 93 C-101 92.34 -101 91.68 -101 91 C-100.34 91 -99.68 91 -99 91 C-98.72760498 90.40541992 -98.45520996 89.81083984 -98.17456055 89.19824219 C-97.02970512 87.05559444 -95.87355302 85.57993363 -94.20703125 83.828125 C-93.66224121 83.24981934 -93.11745117 82.67151367 -92.55615234 82.07568359 C-91.98074707 81.47320801 -91.4053418 80.87073242 -90.8125 80.25 C-89.63331428 78.9981492 -88.45492282 77.74554975 -87.27734375 76.4921875 C-86.71128418 75.89116211 -86.14522461 75.29013672 -85.56201172 74.67089844 C-82.00990937 70.87118158 -78.44030841 67.04827779 -75.4453125 62.7890625 C-74.96835937 62.19867188 -74.49140625 61.60828125 -74 61 C-73.34 61 -72.68 61 -72 61 C-71.73195557 60.40525879 -71.46391113 59.81051758 -71.18774414 59.19775391 C-69.99020301 56.98187204 -68.79681017 55.57920472 -66.99609375 53.8359375 C-66.42052734 53.27132812 -65.84496094 52.70671875 -65.25195312 52.125 C-64.65318359 51.5475 -64.05441406 50.97 -63.4375 50.375 C-62.24650616 49.21839849 -61.05759995 48.05964222 -59.87109375 46.8984375 C-59.34443115 46.38974121 -58.81776855 45.88104492 -58.27514648 45.35693359 C-56.8835783 44.00599895 -56.8835783 44.00599895 -56 42 C-55.34 42 -54.68 42 -54 42 C-53.62101562 41.12794922 -53.62101562 41.12794922 -53.234375 40.23828125 C-51.85621935 37.73928382 -50.31416075 36.15165296 -48.25 34.1875 C-45.54246924 31.56365656 -43.02176227 28.91035419 -40.625 26 C-39.75875 25.01 -38.8925 24.02 -38 23 C-37.34 23 -36.68 23 -36 23 C-35.59249512 22.11574341 -35.59249512 22.11574341 -35.17675781 21.21362305 C-33.25790691 17.6040336 -30.49609906 14.81355009 -27.75 11.8125 C-27.18925781 11.17119141 -26.62851562 10.52988281 -26.05078125 9.86914062 C-23.23286245 6.78765205 -21.69656814 5.18845508 -17.578125 4.07421875 C-16.30195313 4.03748047 -16.30195313 4.03748047 -15 4 C-14.92572162 7.34252724 -14.93453047 9.8035914 -16 13 C-15.01 12.67 -14.02 12.34 -13 12 C-12.67 11.01 -12.34 10.02 -12 9 C-10.68 9 -9.36 9 -8 9 C-7.67 8.01 -7.34 7.02 -7 6 C-6.34 6 -5.68 6 -5 6 C-5 6.66 -5 7.32 -5 8 C-4.34 8 -3.68 8 -3 8 C-1.58622659 5.36095629 -0.62759865 2.92879371 0 0 Z " fill="#1F7BC4" transform="translate(387,238)"/>
<path d="M0 0 C3.17964456 0.453584 4.80523382 1.44018709 7.015625 3.72265625 C7.54414063 4.26083984 8.07265625 4.79902344 8.6171875 5.35351562 C9.15601563 5.91748047 9.69484375 6.48144531 10.25 7.0625 C10.80429687 7.63033203 11.35859375 8.19816406 11.9296875 8.78320312 C13.29334214 10.18212469 14.64760417 11.59019114 16 13 C14.39868849 17.39807217 12.5469451 19.88560918 9 23 C7.515 23.495 7.515 23.495 6 24 C5.731875 24.556875 5.46375 25.11375 5.1875 25.6875 C3.467157 29.03764163 0.91424712 31.62425507 -2 34 C-2.66 34 -3.32 34 -4 34 C-4.66 35.32 -5.32 36.64 -6 38 C-6.66 38 -7.32 38 -8 38 C-8.26167969 38.58007812 -8.52335937 39.16015625 -8.79296875 39.7578125 C-10.0705142 42.13098755 -11.50585947 43.8800843 -13.3125 45.875 C-15.55317529 48.36775127 -17.72487111 50.87803753 -19.8125 53.5 C-20.534375 54.325 -21.25625 55.15 -22 56 C-22.66 56 -23.32 56 -24 56 C-24.26167969 56.58910156 -24.52335937 57.17820312 -24.79296875 57.78515625 C-26.0642275 60.11785434 -27.40230531 61.60354368 -29.3125 63.4375 C-29.93769531 64.0459375 -30.56289063 64.654375 -31.20703125 65.28125 C-31.79871094 65.8484375 -32.39039063 66.415625 -33 67 C-37.24455417 71.13844032 -41.14468196 75.50212896 -45 80 C-45.50273437 80.58652344 -46.00546875 81.17304688 -46.5234375 81.77734375 C-49.02079837 84.71148253 -49.02079837 84.71148253 -51 88 C-52.33333333 88.66666667 -53.66666667 89.33333333 -55 90 C-55.33 90.66 -55.66 91.32 -56 92 C-56.66 92 -57.32 92 -58 92 C-58 92.66 -58 93.32 -58 94 C-58.66 94 -59.32 94 -60 94 C-60 94.66 -60 95.32 -60 96 C-60.66 96 -61.32 96 -62 96 C-62 96.66 -62 97.32 -62 98 C-63.64453125 99.62109375 -63.64453125 99.62109375 -65.8125 101.4375 C-71.15201501 105.89458739 -71.15201501 105.89458739 -74.9375 111.625 C-77 115 -77 115 -78.88671875 115.90625 C-81 116 -81 116 -82.9296875 114.7421875 C-83.57164062 114.12601562 -84.21359375 113.50984375 -84.875 112.875 C-85.56335938 112.23175781 -86.25171875 111.58851563 -86.9609375 110.92578125 C-87.63382813 110.29027344 -88.30671875 109.65476562 -89 109 C-90.15798552 108.01058199 -91.32353776 107.02987535 -92.5 106.0625 C-93.325 105.381875 -94.15 104.70125 -95 104 C-94.431775 100.33089002 -93.05620402 98.75521765 -90.375 96.25 C-87.51088084 93.50884839 -84.85871211 90.72616632 -82.3125 87.6875 C-79.77412836 84.71546578 -77.38307657 82.97346133 -74 81 C-72.95107762 79.36368108 -71.95093297 77.69514137 -71 76 C-69.68733482 74.64631404 -68.35432675 73.31200404 -67 72 C-66.46375 71.2575 -65.9275 70.515 -65.375 69.75 C-64.92125 69.1725 -64.4675 68.595 -64 68 C-63.34 68 -62.68 68 -62 68 C-61.75894531 67.44183594 -61.51789063 66.88367188 -61.26953125 66.30859375 C-59.73113421 63.51107791 -57.84438036 61.41513085 -55.6875 59.0625 C-54.87925781 58.18078125 -54.07101562 57.2990625 -53.23828125 56.390625 C-50.87737148 53.86902503 -48.47496008 51.40982955 -46 49 C-41.7086998 44.81285757 -37.66336732 40.51105135 -33.75 35.96875 C-32.06201714 34.06976929 -30.31230266 32.27994012 -28.5 30.5 C-26.10722509 28.14966899 -23.86808888 25.735776 -21.6875 23.1875 C-18.14246848 19.06889035 -14.30565555 15.28970861 -10.44140625 11.47265625 C-7.12881966 8.11766855 -4.05974713 4.58374052 -1 1 C-0.67 0.67 -0.34 0.34 0 0 Z " fill="#F9AB61" transform="translate(342,200)"/>
<path d="M0 0 C2.25 1.0625 2.25 1.0625 4 3 C5.08798162 6.91673385 5.45751315 9.04140103 3.6875 12.75 C3.130625 13.4925 2.57375 14.235 2 15 C1.34 15.99 0.68 16.98 0 18 C-0.66 18 -1.32 18 -2 18 C-2.25652344 18.58523437 -2.51304687 19.17046875 -2.77734375 19.7734375 C-4.10562162 22.19234608 -5.56524801 23.73198872 -7.5625 25.625 C-10.14015389 28.04521959 -10.14015389 28.04521959 -12 31 C-12.66 31 -13.32 31 -14 31 C-14.24621094 31.57492188 -14.49242187 32.14984375 -14.74609375 32.7421875 C-16.19793053 35.35639827 -17.90287549 37.06336208 -20.0625 39.125 C-22.91571933 41.77905 -22.91571933 41.77905 -25 45 C-25.66 45 -26.32 45 -27 45 C-27.22945313 45.556875 -27.45890625 46.11375 -27.6953125 46.6875 C-29.35693159 49.63264521 -31.45370901 51.64337256 -33.875 54 C-34.73867187 54.845625 -35.60234375 55.69125 -36.4921875 56.5625 C-39 59 -39 59 -41.3203125 60.8828125 C-43.73376223 63.9248817 -43.26227969 66.06374828 -43 69.875 C-42.77294982 77.68390453 -42.77294982 77.68390453 -44.75 80.6875 C-49.29782962 85.36165822 -53.30969577 87.51865597 -59.875 88.375 C-64.92910184 87.76850778 -69.02882674 86.11019807 -72.55078125 82.33984375 C-75.25339728 78.45732455 -76.25885016 75.1099696 -76.875 70.4375 C-77.78387623 64.33624756 -80.31771188 61.77901206 -85 58 C-86.29494105 56.87877056 -87.58654981 55.75368237 -88.875 54.625 C-89.87080078 53.76648438 -89.87080078 53.76648438 -90.88671875 52.890625 C-94.75639317 49.4286612 -98.35778539 45.69771503 -102 42 C-102.99908513 41.01989987 -103.99888895 40.04053068 -105 39.0625 C-107.63657809 36.34352884 -107.9576316 35.45757869 -108.3125 31.625 C-108 28 -108 28 -106.4375 25.5 C-104 24 -104 24 -100.4375 24.125 C-97 25 -97 25 -94 27 C-94 27.66 -94 28.32 -94 29 C-93.45859375 29.21269531 -92.9171875 29.42539063 -92.359375 29.64453125 C-89.14679001 31.49017197 -86.79442435 34.03958461 -84.25 36.6875 C-80.15052675 40.87731977 -75.99786823 44.90054214 -71.5234375 48.6953125 C-70.30041699 49.74271981 -69.13860468 50.86139532 -68 52 C-65.43083343 52.30599063 -62.95241616 52.51087087 -60.375 52.625 C-59.31539062 52.68300781 -59.31539062 52.68300781 -58.234375 52.7421875 C-56.49001476 52.83647724 -54.74504309 52.91932891 -53 53 C-52.71125 52.401875 -52.4225 51.80375 -52.125 51.1875 C-51 49 -51 49 -49 46 C-48.34 46 -47.68 46 -47 46 C-46.76410156 45.43539062 -46.52820313 44.87078125 -46.28515625 44.2890625 C-44.70765058 41.47928037 -42.75948714 39.60380949 -40.4375 37.375 C-37.30957946 34.48929319 -37.30957946 34.48929319 -35 31 C-34.34 31 -33.68 31 -33 31 C-32.75636719 30.42765625 -32.51273437 29.8553125 -32.26171875 29.265625 C-30.77482702 26.59566462 -29.01916092 24.86170993 -26.8125 22.75 C-22.64194075 18.67286128 -18.78199856 14.43556974 -15 10 C-13.75341122 8.53874967 -12.50345174 7.0803676 -11.25 5.625 C-10.69828125 4.97789062 -10.1465625 4.33078125 -9.578125 3.6640625 C-6.51720827 0.43646219 -4.35411617 -0.53098978 0 0 Z " fill="#1876C1" transform="translate(290,163)"/>
<path d="M0 0 C1.65 0 3.3 0 5 0 C5 0.99 5 1.98 5 3 C5.99 3 6.98 3 8 3 C8 3.66 8 4.32 8 5 C9.65 4.67 11.3 4.34 13 4 C12.8125 6.375 12.8125 6.375 12 9 C9.4375 10.3125 9.4375 10.3125 7 11 C7.05800781 11.73992187 7.11601562 12.47984375 7.17578125 13.2421875 C6.96903898 16.48574394 6.20224725 17.62494867 4.1875 20.125 C3.66542969 20.78757812 3.14335937 21.45015625 2.60546875 22.1328125 C1.13599022 23.84184105 -0.38483728 25.42970291 -2 27 C-2.556875 27.5775 -3.11375 28.155 -3.6875 28.75 C-5.67267068 30.68151742 -7.70333522 32.45843146 -9.8125 34.25 C-13.36086019 37.32171479 -16.43685722 40.61621997 -19.45703125 44.203125 C-21 46 -21 46 -22.63671875 47.546875 C-24.25559143 49.06932699 -24.25559143 49.06932699 -25 52 C-24.41734375 52.25394531 -23.8346875 52.50789063 -23.234375 52.76953125 C-20.75811967 54.13320333 -19.19479374 55.64225203 -17.25 57.6875 C-14.69010938 60.31784633 -12.11472618 62.8177527 -9.3125 65.1875 C-3.20362218 70.42717877 2.35207179 76.27458497 8 82 C4.91190305 83.76462683 3.76687864 84 0 84 C-0.66 85.32 -1.32 86.64 -2 88 C-7.55286022 86.63687317 -10.54253566 84.07446319 -14.5 80.1875 C-15.59239887 79.13791486 -16.68614089 78.08972579 -17.78125 77.04296875 C-18.31282715 76.53290283 -18.8444043 76.02283691 -19.39208984 75.49731445 C-21.83944667 73.21829238 -24.41131393 71.11667493 -27 69 C-29.375 66.9375 -29.375 66.9375 -31 65 C-31 63.68 -31 62.36 -31 61 C-31.99 60.67 -32.98 60.34 -34 60 C-34 59.34 -34 58.68 -34 58 C-34.66 58 -35.32 58 -36 58 C-36 57.34 -36 56.68 -36 56 C-35.34 56 -34.68 56 -34 56 C-31.60139519 51.56224311 -31.60139519 51.56224311 -31.375 46.6875 C-31.58125 46.130625 -31.7875 45.57375 -32 45 C-30.68 45.33 -29.36 45.66 -28 46 C-30.50683077 42.23975384 -32.86493934 41.60807914 -37 40 C-32.84443819 34.94593833 -28.37752009 30.29814817 -23.69604492 25.7331543 C-21.00391915 23.129846 -21.00391915 23.129846 -19 20 C-18.34 20 -17.68 20 -17 20 C-16.78472656 19.45601563 -16.56945312 18.91203125 -16.34765625 18.3515625 C-14.53620359 15.19070887 -12.04503977 12.87236204 -9.4375 10.375 C-5.77285984 7.03597098 -5.77285984 7.03597098 -3 3 C-2.34 3 -1.68 3 -1 3 C-0.67 2.01 -0.34 1.02 0 0 Z " fill="#1A79C4" transform="translate(272,252)"/>
<path d="M0 0 C2.55222006 1.55137192 4.51812583 3.55892925 6.58984375 5.6953125 C7.17923233 6.28037567 7.76862091 6.86543884 8.37586975 7.4682312 C9.61370038 8.70568141 10.84286037 9.95185864 12.0637207 11.20605469 C13.93355616 13.12096109 15.83564434 14.99870944 17.74414062 16.875 C18.94479243 18.08387113 20.14343207 19.29474479 21.33984375 20.5078125 C21.90847641 21.06743683 22.47710907 21.62706116 23.06297302 22.2036438 C25.60793903 24.85739526 26.93027027 26.5426132 27.4909668 30.22045898 C26.79952494 34.13496201 24.60545011 36.24264726 21.875 38.9375 C20.8650941 39.98230861 19.85597481 41.02787815 18.84765625 42.07421875 C18.35797363 42.57356934 17.86829102 43.07291992 17.36376953 43.58740234 C14.77054042 46.2734789 12.40175945 49.14385362 10 52 C4.41235744 47.33992095 -0.79172605 42.39136454 -5.9375 37.25 C-6.71673828 36.48300781 -7.49597656 35.71601563 -8.29882812 34.92578125 C-9.03423828 34.19230469 -9.76964844 33.45882812 -10.52734375 32.703125 C-11.19499756 32.03958008 -11.86265137 31.37603516 -12.55053711 30.69238281 C-14 29 -14 29 -14 27 C-14.556875 26.773125 -15.11375 26.54625 -15.6875 26.3125 C-18.71572375 24.59377841 -20.77323664 22.67211603 -23 20 C-23.11800783 16.22374959 -20.45182829 13.67472177 -18 11 C-17.34 11 -16.68 11 -16 11 C-15.60361328 10.12601563 -15.60361328 10.12601563 -15.19921875 9.234375 C-13.9485021 6.90404952 -12.61528718 5.18067368 -10.8125 3.25 C-10.26207031 2.63640625 -9.71164062 2.0228125 -9.14453125 1.390625 C-5.91526887 -0.70339578 -3.79429589 -0.44480113 0 0 Z " fill="#F9AA53" transform="translate(378,169)"/>
<path d="M0 0 C2 1 4 2 6 3 C6 3.66 6 4.32 6 5 C7.32 5.66 8.64 6.32 10 7 C10 7.66 10 8.32 10 9 C10.55816406 9.22945313 11.11632812 9.45890625 11.69140625 9.6953125 C14.62595608 11.35375521 16.60140353 13.44891522 18.9375 15.875 C22.13903288 19.19034317 25.37564967 22.15572507 29 25 C30.68528688 26.64783606 32.35697047 28.31002677 34 30 C33 33 33 33 31.17749023 34.10327148 C30.39575439 34.43915283 29.61401855 34.77503418 28.80859375 35.12109375 C27.51405273 35.68860352 27.51405273 35.68860352 26.19335938 36.26757812 C25.28392578 36.65365234 24.37449219 37.03972656 23.4375 37.4375 C21.66466797 38.20542505 19.8925234 38.97493923 18.12109375 39.74609375 C17.25766357 40.12088867 16.3942334 40.49568359 15.50463867 40.88183594 C11.94243872 42.47213478 8.46738474 44.21434542 5 46 C-1.91440032 49.521841 -8.943433 52.77291143 -16 56 C-17.03346282 52.83071403 -16.96001261 51.00093005 -15.91796875 47.8515625 C-15.5159021 46.61140381 -15.5159021 46.61140381 -15.10571289 45.34619141 C-14.80270264 44.44819824 -14.49969238 43.55020508 -14.1875 42.625 C-13.87997803 41.6870459 -13.57245605 40.7490918 -13.25561523 39.78271484 C-12.18149424 36.51803879 -11.09089577 33.25910768 -10 30 C-9.33150113 27.98831476 -8.66436127 25.97618186 -7.99729919 23.96401978 C-5.34714624 15.97076472 -2.67879624 7.98370437 0 0 Z " fill="#F9C9AB" transform="translate(235,312)"/>
<path d="M0 0 C4.34174103 3.94040362 5.71049333 8.72530476 6.4375 14.4375 C5.4244246 22.68682823 1.74293465 27.82791716 -4.29296875 33.37109375 C-6.09375316 34.90554599 -6.09375316 34.90554599 -7 37 C-7.66 37 -8.32 37 -9 37 C-9 37.66 -9 38.32 -9 39 C-9.66 39 -10.32 39 -11 39 C-11 39.66 -11 40.32 -11 41 C-12.485 41.495 -12.485 41.495 -14 42 C-14.33 40.68 -14.66 39.36 -15 38 C-14.01 37.505 -14.01 37.505 -13 37 C-15.05611756 34.00602162 -15.05611756 34.00602162 -18 32 C-18 31.34 -18 30.68 -18 30 C-18.66 30 -19.32 30 -20 30 C-20.495 30.495 -20.99 30.99 -21.5 31.5 C-21.995 31.995 -22.49 32.49 -23 33 C-23.66 33 -24.32 33 -25 33 C-25.66 34.32 -26.32 35.64 -27 37 C-28.65 37 -30.3 37 -32 37 C-31.67 35.68 -31.34 34.36 -31 33 C-30.01 33.66 -29.02 34.32 -28 35 C-25.81646532 32.58375301 -23.63749828 30.16392212 -21.46875 27.734375 C-19.95242113 26.05489682 -18.41501621 24.39382114 -16.84375 22.765625 C-13.04343728 18.81464781 -13.04343728 18.81464781 -11.4375 13.6875 C-11.86926411 10.79258502 -11.86926411 10.79258502 -14 8 C-13.01 8 -12.02 8 -11 8 C-11 8.66 -11 9.32 -11 10 C-10.34 10 -9.68 10 -9 10 C-8.9729957 11.45823212 -8.95360213 12.91660675 -8.9375 14.375 C-8.92589844 15.18710938 -8.91429687 15.99921875 -8.90234375 16.8359375 C-9 19 -9 19 -10 21 C-9.01 21 -8.02 21 -7 21 C-6.87625 21.639375 -6.7525 22.27875 -6.625 22.9375 C-6.41875 23.618125 -6.2125 24.29875 -6 25 C-4.2236068 26.0745356 -4.2236068 26.0745356 -3 26 C-2.67 23.69 -2.34 21.38 -2 19 C-2.66 19 -3.32 19 -4 19 C-4 15.7 -4 12.4 -4 9 C-5.65 9 -7.3 9 -9 9 C-8.34 7.68 -7.68 6.36 -7 5 C-4.69 5 -2.38 5 0 5 C0 3.35 0 1.7 0 0 Z " fill="#2075BC" transform="translate(416,185)"/>
<path d="M0 0 C4.09125955 2.21886329 7.07157732 4.86015272 10.3125 8.1875 C11.19550781 9.08855469 12.07851563 9.98960937 12.98828125 10.91796875 C13.65214844 11.60503906 14.31601562 12.29210937 15 13 C14.34 13.66 13.68 14.32 13 15 C13 14.34 13 13.68 13 13 C11.02 12.67 9.04 12.34 7 12 C6.505 10.02 6.505 10.02 6 8 C5.34 8 4.68 8 4 8 C4 9.65 4 11.3 4 13 C2.35 13.66 0.7 14.32 -1 15 C-1.66 13.68 -2.32 12.36 -3 11 C-3.33 12.65 -3.66 14.3 -4 16 C-3.195625 16.268125 -2.39125 16.53625 -1.5625 16.8125 C-0.716875 17.204375 0.12875 17.59625 1 18 C1.495 19.485 1.495 19.485 2 21 C2.99 21.66 3.98 22.32 5 23 C5.495 24.485 5.495 24.485 6 26 C8.00016466 27.20882096 8.00016466 27.20882096 10 28 C9.67 28.66 9.34 29.32 9 30 C10.32 30.33 11.64 30.66 13 31 C13.495 33.475 13.495 33.475 14 36 C10.21572528 32.8691954 6.6460179 29.71276904 3.28125 26.1328125 C2.65863281 25.47539062 2.03601563 24.81796875 1.39453125 24.140625 C0.11976672 22.78438067 -1.14313025 21.4168937 -2.39453125 20.0390625 C-5.54561295 16.75097725 -7.13047602 15.15527214 -11.71875 14.3359375 C-15.36207638 15.07327736 -16.55843378 15.763762 -19 18.5 C-19.98806641 19.59248047 -19.98806641 19.59248047 -20.99609375 20.70703125 C-21.65738281 21.46371094 -22.31867188 22.22039062 -23 23 C-23.69222656 23.70511719 -24.38445312 24.41023438 -25.09765625 25.13671875 C-26.07025391 26.15185547 -26.07025391 26.15185547 -27.0625 27.1875 C-27.65160156 27.79980469 -28.24070312 28.41210938 -28.84765625 29.04296875 C-30.27655431 31.01987169 -30.27655431 31.01987169 -29.68359375 33.73828125 C-29.45800781 34.48464844 -29.23242188 35.23101562 -29 36 C-30.32 35.67 -31.64 35.34 -33 35 C-32.67 32.36 -32.34 29.72 -32 27 C-31.34 27 -30.68 27 -30 27 C-29.87625 26.38125 -29.7525 25.7625 -29.625 25.125 C-29 23 -29 23 -27 21 C-26.443125 20.21625 -25.88625 19.4325 -25.3125 18.625 C-22.44533686 15.37038238 -19.87110131 13.93555066 -16 12 C-15.34 12 -14.68 12 -14 12 C-14 11.34 -14 10.68 -14 10 C-14.66 9.34 -15.32 8.68 -16 8 C-14.68 6.68 -13.36 5.36 -12 4 C-11.34 4.33 -10.68 4.66 -10 5 C-10 5.66 -10 6.32 -10 7 C-4.74944169 5.99042008 -4.74944169 5.99042008 -1.0625 2.375 C-0.5365625 1.199375 -0.5365625 1.199375 0 0 Z " fill="#1E76C0" transform="translate(386,155)"/>
<path d="M0 0 C3.60084288 2.44857316 4.75567412 3.80280319 5.625 8.0625 C5 11 5 11 3.125 13.375 C-1.28820479 15.66986649 -5.12198316 15.78969581 -10 15 C-12.625 13.5 -12.625 13.5 -14 11 C-14.5612502 8.03253884 -14.39379906 6.10116763 -14 3 C-9.95592672 -1.02573281 -5.38352227 -0.92189557 0 0 Z " fill="#1875C0" transform="translate(152,225)"/>
<path d="M0 0 C3.05753074 3.05753074 3.20352455 5.97787854 3.3125 10.125 C3.29566029 13.81851004 3.12946448 14.80580328 1 18 C-5.84708738 19.5461165 -5.84708738 19.5461165 -9.2265625 17.9453125 C-11.84810985 15.06969448 -11.53188355 12.82602616 -11.5 9 C-11.5103125 7.7625 -11.520625 6.525 -11.53125 5.25 C-11 2 -11 2 -9.19140625 0.0625 C-5.78865684 -1.58731789 -3.56364791 -1.03669758 0 0 Z " fill="#1574C1" transform="translate(235,139)"/>
<path d="M0 0 C4.72704814 3.08705185 8.21394111 6.2155158 11.82421875 10.53125 C16.59892385 15.94886871 21.86105593 20.93060555 27 26 C26.01 26.33 25.02 26.66 24 27 C23.34 26.67 22.68 26.34 22 26 C22 25.01 22 24.02 22 23 C21.030625 22.7525 20.06125 22.505 19.0625 22.25 C18.051875 21.8375 17.04125 21.425 16 21 C15.125 18.875 15.125 18.875 15 17 C13.02 16.67 11.04 16.34 9 16 C9 16.99 9 17.98 9 19 C9.99 19.33 10.98 19.66 12 20 C11.67 21.32 11.34 22.64 11 24 C10.01 23.34 9.02 22.68 8 22 C7.67 23.32 7.34 24.64 7 26 C3.37386801 25.43040847 1.74482259 24.07625466 -0.75 21.4375 C-1.67039062 20.47650391 -1.67039062 20.47650391 -2.609375 19.49609375 C-3.06828125 19.00238281 -3.5271875 18.50867188 -4 18 C-3.34 17.67 -2.68 17.34 -2 17 C-1.01 17.33 -0.02 17.66 1 18 C1 17.01 1 16.02 1 15 C0.34 14.67 -0.32 14.34 -1 14 C-0.01 12.02 0.98 10.04 2 8 C3.32 8.66 4.64 9.32 6 10 C5.20882096 8.00016466 5.20882096 8.00016466 4 6 C3.01 5.67 2.02 5.34 1 5 C0.67 3.35 0.34 1.7 0 0 Z " fill="#1C72B9" transform="translate(357,191)"/>
<path d="M0 0 C4.34174103 3.94040362 5.71049333 8.72530476 6.4375 14.4375 C5.69205842 20.50752432 3.75407984 25.36551651 -0.75 29.5625 C-1.4925 30.036875 -2.235 30.51125 -3 31 C-3.5625 29.0625 -3.5625 29.0625 -4 27 C-3.67 26.67 -3.34 26.34 -3 26 C-2.63239269 23.67182036 -2.29758419 21.3381615 -2 19 C-2.66 19 -3.32 19 -4 19 C-4 15.7 -4 12.4 -4 9 C-5.65 9 -7.3 9 -9 9 C-8.34 7.68 -7.68 6.36 -7 5 C-4.69 5 -2.38 5 0 5 C0 3.35 0 1.7 0 0 Z " fill="#2679BF" transform="translate(416,185)"/>
<path d="M0 0 C5.03163018 4.29785078 10.02718443 8.63425542 15 13 C12.59749847 15.40250153 10.46068553 16.16953569 7.3125 17.4375 C5.70568359 18.09105469 5.70568359 18.09105469 4.06640625 18.7578125 C3.05449219 19.16773438 2.04257813 19.57765625 1 20 C-1.33858364 20.98835315 -3.66915615 21.99349925 -6 23 C-5.50387003 14.89654389 -2.679915 7.59474067 0 0 Z " fill="#BA87A0" transform="translate(224,345)"/>
<path d="M0 0 C0.66 0.33 1.32 0.66 2 1 C1.26674793 2.48754006 0.51273922 3.96486192 -0.25 5.4375 C-0.87648438 6.67306641 -0.87648438 6.67306641 -1.515625 7.93359375 C-3.26439293 10.36806279 -4.13641235 10.51283364 -7 11 C-7.68620031 12.32338632 -8.34786461 13.65949948 -9 15 C-10.53737693 16.54150966 -12.12383417 17.99897362 -13.7578125 19.4375 C-15.41487042 21.18916538 -15.41487042 21.18916538 -15 25 C-14.67 25.33 -14.34 25.66 -14 26 C-12.875 27.9375 -12.875 27.9375 -12 30 C-12.33 30.66 -12.66 31.32 -13 32 C-12.34 32 -11.68 32 -11 32 C-11 32.66 -11 33.32 -11 34 C-10.34 34 -9.68 34 -9 34 C-8.34 34.66 -7.68 35.32 -7 36 C-5.68252676 36.69748583 -4.35085807 37.36959957 -3 38 C-0.50175965 36.5023304 1.86004673 34.98441782 4 33 C4.58768383 30.28528995 4.58768383 30.28528995 4 28 C4.66 28 5.32 28 6 28 C6 28.66 6 29.32 6 30 C6.99 30.33 7.98 30.66 9 31 C7.38405168 33.04119788 5.7143618 35.04072937 4 37 C3.34 37 2.68 37 2 37 C2 37.66 2 38.32 2 39 C1.34 39 0.68 39 0 39 C-0.66 40.32 -1.32 41.64 -2 43 C-5.2586636 41.5735422 -7.4024854 39.83295838 -9.890625 37.3046875 C-10.59960938 36.58925781 -11.30859375 35.87382812 -12.0390625 35.13671875 C-12.76867187 34.39035156 -13.49828125 33.64398438 -14.25 32.875 C-14.99507813 32.12089844 -15.74015625 31.36679687 -16.5078125 30.58984375 C-18.3431342 28.73099228 -20.1736191 26.86762995 -22 25 C-20.11096191 22.7722168 -20.11096191 22.7722168 -18.22192383 20.54443359 C-16.87814814 18.93260377 -16.87814814 18.93260377 -15.6875 16.625 C-13.07405354 12.55963884 -9.66900293 9.1392955 -6 6 C-5.34 6 -4.68 6 -4 6 C-4 5.34 -4 4.68 -4 4 C-3.34 4 -2.68 4 -2 4 C-2 3.34 -2 2.68 -2 2 C-1.34 2 -0.68 2 0 2 C0 1.34 0 0.68 0 0 Z " fill="#3CADD6" transform="translate(284,292)"/>
<path d="M0 0 C2.01171875 0.51171875 2.01171875 0.51171875 5.07421875 3.07421875 C7.01171875 6.51171875 7.01171875 6.51171875 7.01171875 10.19921875 C5.53827414 15.08000403 5.53827414 15.08000403 3.01171875 16.51171875 C-1.36066721 17.15947963 -3.27676036 17.01129725 -6.92578125 14.44921875 C-9.50015627 10.78268464 -9.62768989 8.90765312 -8.98828125 4.51171875 C-7.2175995 0.19568199 -4.54205607 -0.24347436 0 0 Z " fill="#1574C2" transform="translate(175.98828125,162.48828125)"/>
<path d="M0 0 C5.03163018 4.29785078 10.02718443 8.63425542 15 13 C14.38125 13.144375 13.7625 13.28875 13.125 13.4375 C10.96741678 13.93152225 10.96741678 13.93152225 9 15 C8.53348793 17.12576782 8.53348793 17.12576782 8.375 19.5625 C8.30023438 20.38878906 8.22546875 21.21507812 8.1484375 22.06640625 C8.09945313 22.70449219 8.05046875 23.34257812 8 24 C10.31 25.65 12.62 27.3 15 29 C14.67 29.99 14.34 30.98 14 32 C13.35933594 31.41992188 12.71867187 30.83984375 12.05859375 30.2421875 C6.1470365 24.9019816 6.1470365 24.9019816 0.125 19.6875 C-2.37262656 17.56776493 -4.72737318 15.3635319 -7 13 C-6.34 11.35 -5.68 9.7 -5 8 C-4.01 8.33 -3.02 8.66 -2 9 C-2.99 9.495 -2.99 9.495 -4 10 C-4 10.66 -4 11.32 -4 12 C-0.535 11.505 -0.535 11.505 3 11 C3 10.01 3 9.02 3 8 C2.01 7.67 1.02 7.34 0 7 C0 4.69 0 2.38 0 0 Z " fill="#1D78BE" transform="translate(248,304)"/>
<path d="M0 0 C2.77224169 2.18419042 2.94022957 3.52183659 3.375 7 C2.94305692 10.45554461 2.66753429 11.74926794 0 14 C-2.71593117 14.91118903 -5.14308368 15.22232812 -8 15 C-11 13.5 -11 13.5 -13 11 C-13.6269883 7.09873948 -13.57975697 4.98306617 -11.5625 1.5625 C-7.78201309 -0.74267494 -4.31482173 -0.80085706 0 0 Z " fill="#1A76BF" transform="translate(177,286)"/>
<path d="M0 0 C0.66 0.33 1.32 0.66 2 1 C2 1.66 2 2.32 2 3 C2.66 3.33 3.32 3.66 4 4 C4.33 4.99 4.66 5.98 5 7 C8.73487777 6.5020163 10.81237635 6.12508244 14 4 C12.6930079 6.91559775 11.34067534 8.83937661 9 11 C8.443125 11.5775 7.88625 12.155 7.3125 12.75 C5.32732932 14.68151742 3.29666478 16.45843146 1.1875 18.25 C-2.36086019 21.32171479 -5.43685722 24.61621997 -8.45703125 28.203125 C-10 30 -10 30 -11.57421875 31.546875 C-13.23265497 33.14662209 -13.23265497 33.14662209 -15 36 C-15 34.02 -15 32.04 -15 30 C-14.01 30 -13.02 30 -12 30 C-12.33 28.02 -12.66 26.04 -13 24 C-12.278125 23.95875 -11.55625 23.9175 -10.8125 23.875 C-7.75741542 22.92452924 -7.25360026 22.36426326 -5.375 19.9375 C-4.199375 18.4834375 -4.199375 18.4834375 -3 17 C-2.01 17 -1.02 17 0 17 C0 15.68 0 14.36 0 13 C-1.65 12.67 -3.3 12.34 -5 12 C-4.25 7.25 -4.25 7.25 -2 5 C-1.29289322 3.35008418 -0.62056011 1.68437744 0 0 Z " fill="#297CBB" transform="translate(261,268)"/>
<path d="M0 0 C2.72727273 4.09090909 2.72727273 4.09090909 3 7 C1.9375 8.75 1.9375 8.75 0 10 C-3.1875 10.1875 -3.1875 10.1875 -6 10 C-5.87625 10.9075 -5.7525 11.815 -5.625 12.75 C-6 16 -6 16 -8.5625 18.25 C-12 20 -12 20 -15.625 21 C-19.212044 22.06282785 -20.64030619 23.16836742 -23 26 C-23.66 25.67 -24.32 25.34 -25 25 C-23.25719203 23.03483377 -21.50635594 21.07799631 -19.75 19.125 C-19.25886719 18.56941406 -18.76773437 18.01382812 -18.26171875 17.44140625 C-15.68888515 14.59413706 -13.51143407 12.54471249 -10 11 C-9.3503125 9.88625 -9.3503125 9.88625 -8.6875 8.75 C-6.41430028 5.04552638 -3.37119405 2.68771909 0 0 Z " fill="#F1B763" transform="translate(278,270)"/>
<path d="M0 0 C2 1 4 2 6 3 C6 3.66 6 4.32 6 5 C7.32 5.66 8.64 6.32 10 7 C10 7.66 10 8.32 10 9 C10.639375 9.28875 11.27875 9.5775 11.9375 9.875 C14 11 14 11 15 13 C12.03 12.505 12.03 12.505 9 12 C8.67 11.01 8.34 10.02 8 9 C7.484375 8.484375 6.96875 7.96875 6.4375 7.4375 C5.963125 6.963125 5.48875 6.48875 5 6 C5 5.34 5 4.68 5 4 C3.68 3.67 2.36 3.34 1 3 C1.04125 3.928125 1.0825 4.85625 1.125 5.8125 C1 9 1 9 -1 12 C-1.38499891 13.65549531 -1.72793135 15.3222433 -2 17 C-2.66 17 -3.32 17 -4 17 C-4.13277344 17.62648438 -4.26554688 18.25296875 -4.40234375 18.8984375 C-4.57894531 19.71570313 -4.75554687 20.53296875 -4.9375 21.375 C-5.19853516 22.59316406 -5.19853516 22.59316406 -5.46484375 23.8359375 C-6 26 -6 26 -7 28 C-7.30343947 31.48955396 -7.39470082 33.37505704 -5.5 36.375 C-5.005 36.91125 -4.51 37.4475 -4 38 C-7 38 -7 38 -8.75 37 C-10.77534057 33.75945508 -9.76096245 30.56865151 -9 27 C-7.62060703 22.28387929 -6.03888553 17.64475374 -4.4375 13 C-4.00776298 11.73591503 -3.57872069 10.47159365 -3.15039062 9.20703125 C-2.10705272 6.13563202 -1.0567602 3.06680152 0 0 Z " fill="#D5C9C4" transform="translate(235,312)"/>
<path d="M0 0 C0 3.61656862 -1.02130767 5.0319615 -3 8 C-3.66 8.66 -4.32 9.32 -5 10 C-5 11.32 -5 12.64 -5 14 C-8 16 -8 16 -10 16 C-10.6496875 17.423125 -10.6496875 17.423125 -11.3125 18.875 C-13 22 -13 22 -16 24 C-16.66 24 -17.32 24 -18 24 C-19.66965451 24.31802943 -21.33678518 24.64984951 -23 25 C-22.61328125 24.55269531 -22.2265625 24.10539062 -21.828125 23.64453125 C-19.48222173 20.92119305 -17.15865263 18.20192152 -14.9375 15.375 C-12.77492276 12.72409887 -10.44747916 10.39185463 -8 8 C-6.56116092 6.56384033 -5.12373292 5.12626596 -3.6875 3.6875 C-1.84375 1.84375 -1.84375 1.84375 0 0 Z " fill="#DCA283" transform="translate(332,211)"/>
<path d="M0 0 C0.33 1.32 0.66 2.64 1 4 C0.34 3.67 -0.32 3.34 -1 3 C-4.24356576 2.24586647 -4.24356576 2.24586647 -8 3 C-11.06729301 5.31550551 -13.47836348 8.11461864 -16 11 C-16.69222656 11.70511719 -17.38445312 12.41023437 -18.09765625 13.13671875 C-19.07025391 14.15185547 -19.07025391 14.15185547 -20.0625 15.1875 C-20.65160156 15.79980469 -21.24070312 16.41210938 -21.84765625 17.04296875 C-23.27655431 19.01987169 -23.27655431 19.01987169 -22.68359375 21.73828125 C-22.45800781 22.48464844 -22.23242188 23.23101562 -22 24 C-23.32 23.67 -24.64 23.34 -26 23 C-25.67 20.36 -25.34 17.72 -25 15 C-24.34 15 -23.68 15 -23 15 C-22.87625 14.38125 -22.7525 13.7625 -22.625 13.125 C-22 11 -22 11 -20 9 C-19.1646875 7.824375 -19.1646875 7.824375 -18.3125 6.625 C-12.8435376 0.41698862 -7.92540656 -0.64697196 0 0 Z " fill="#2971AB" transform="translate(379,167)"/>
<path d="M0 0 C5.87457753 4.58503612 10.85769882 9.78654823 15 16 C10.21255507 15.51314119 6.45302752 14.85542813 2 13 C0.68 13 -0.64 13 -2 13 C-2 9.72782865 -1.73516599 7.37445544 -1 4.25 C-0.814375 3.45078125 -0.62875 2.6515625 -0.4375 1.828125 C-0.293125 1.22484375 -0.14875 0.6215625 0 0 Z " fill="#2A7DC2" transform="translate(401,169)"/>
<path d="M0 0 C0.66 0 1.32 0 2 0 C2.8046875 1.6796875 2.8046875 1.6796875 3 4 C0.9453125 6.5078125 0.9453125 6.5078125 -1.875 9.125 C-5.39236087 12.21842731 -5.39236087 12.21842731 -8 16 C-8.66 16 -9.32 16 -10 16 C-10 16.66 -10 17.32 -10 18 C-10.66 18 -11.32 18 -12 18 C-12.268125 18.61875 -12.53625 19.2375 -12.8125 19.875 C-14 22 -14 22 -17 24 C-17 22.68 -17 21.36 -17 20 C-17.66 19.67 -18.32 19.34 -19 19 C-18.01 17.515 -18.01 17.515 -17 16 C-16.01 16.33 -15.02 16.66 -14 17 C-13.566875 15.576875 -13.566875 15.576875 -13.125 14.125 C-12 11 -12 11 -10 9 C-9.34 9 -8.68 9 -8 9 C-7.67 8.01 -7.34 7.02 -7 6 C-6.34 6 -5.68 6 -5 6 C-5 6.66 -5 7.32 -5 8 C-4.34 8 -3.68 8 -3 8 C-1.58622659 5.36095629 -0.62759865 2.92879371 0 0 Z " fill="#317FBE" transform="translate(387,238)"/>
<path d="M0 0 C1.65 1.32 3.3 2.64 5 4 C3.60506348 8.43843439 1.48101799 10.9434964 -2 14 C-2.99 14.33 -3.98 14.66 -5 15 C-5.268125 15.556875 -5.53625 16.11375 -5.8125 16.6875 C-7.57902504 20.12757508 -10.21136826 22.33261312 -13 25 C-13.66 24.67 -14.32 24.34 -15 24 C-14.195625 23.2575 -13.39125 22.515 -12.5625 21.75 C-10.23011409 19.24695171 -9.36465606 18.2819045 -9 15 C-8.34 15 -7.68 15 -7 15 C-7 13.02 -7 11.04 -7 9 C-4.625 7.9375 -4.625 7.9375 -2 7 C-1.34 7.33 -0.68 7.66 0 8 C0 7.34 0 6.68 0 6 C0.66 6 1.32 6 2 6 C1.34 4.02 0.68 2.04 0 0 Z " fill="#DBA583" transform="translate(353,209)"/>
<path d="M0 0 C0.33 0.66 0.66 1.32 1 2 C-1.06843499 6.50188793 -4.21166226 8.92197559 -8 12 C-9.00573778 13.32901064 -10.00795408 14.66073801 -11 16 C-11.66 16 -12.32 16 -13 16 C-13.2475 16.78375 -13.495 17.5675 -13.75 18.375 C-15.20924503 21.43941457 -16.05014956 21.61725761 -19 23 C-19.433125 23.8971875 -19.433125 23.8971875 -19.875 24.8125 C-21.55805758 28.08511196 -24.11451985 29.74179814 -27 32 C-27.66 31.67 -28.32 31.34 -29 31 C-27.04808712 28.82722848 -25.08902463 26.66177539 -23.125 24.5 C-22.56941406 23.87996094 -22.01382812 23.25992187 -21.44140625 22.62109375 C-20.63896484 21.74130859 -20.63896484 21.74130859 -19.8203125 20.84375 C-19.08192139 20.02680664 -19.08192139 20.02680664 -18.32861328 19.19335938 C-17 18 -17 18 -15 18 C-14.599021 17.11683105 -14.599021 17.11683105 -14.18994141 16.21582031 C-12.98357913 13.96942228 -11.7065935 12.39521664 -9.9609375 10.546875 C-9.38085938 9.928125 -8.80078125 9.309375 -8.203125 8.671875 C-7.59984375 8.03765625 -6.9965625 7.4034375 -6.375 6.75 C-5.76398438 6.1003125 -5.15296875 5.450625 -4.5234375 4.78125 C-3.01971926 3.18354937 -1.51184263 1.59000851 0 0 Z " fill="#127DC5" transform="translate(366,243)"/>
<path d="M0 0 C1.5 1.25 1.5 1.25 3 3 C3 4.32 3 5.64 3 7 C3.99 7.33 4.98 7.66 6 8 C6 8.99 6 9.98 6 11 C5.01 11 4.02 11 3 11 C3 11.99 3 12.98 3 14 C1.0085944 14.38133299 -0.99279077 14.71325582 -3 15 C-4 14 -4 14 -4.25 11.375 C-3.95421308 7.38187661 -2.95097656 2.95097656 0 0 Z " fill="#D7859E" transform="translate(225,350)"/>
<path d="M0 0 C1.32 0.66 2.64 1.32 4 2 C3.3503125 2.5878125 3.3503125 2.5878125 2.6875 3.1875 C0.85439739 5.02238902 0.85439739 5.02238902 -0.5625 7.6875 C-1.036875 8.450625 -1.51125 9.21375 -2 10 C-2.66 10 -3.32 10 -4 10 C-4.2475 10.5775 -4.495 11.155 -4.75 11.75 C-6.16683317 14.3002997 -7.87627537 16.01785701 -10 18 C-9.93976735 16.39479996 -9.85091401 14.79065673 -9.75 13.1875 C-9.70359375 12.29417969 -9.6571875 11.40085938 -9.609375 10.48046875 C-9 8 -9 8 -7.140625 6.17578125 C-5 5 -5 5 -2 5 C-1.855625 4.360625 -1.71125 3.72125 -1.5625 3.0625 C-1 1 -1 1 0 0 Z " fill="#D9A67E" transform="translate(338,228)"/>
<path d="M0 0 C0.99 0.33 1.98 0.66 3 1 C3.33 2.65 3.66 4.3 4 6 C5.65 6.33 7.3 6.66 9 7 C9.66666667 9.66666667 10.33333333 12.33333333 11 15 C12.94074861 14.72382467 12.94074861 14.72382467 15 14 C15.66 13.01 16.32 12.02 17 11 C17.66 11.33 18.32 11.66 19 12 C17.35 13.65 15.7 15.3 14 17 C9.7333392 15.618055 7.37653107 13.67840213 4.3125 10.4375 C1.46343331 7.30453441 1.46343331 7.30453441 -2 5 C-1.125 1.125 -1.125 1.125 0 0 Z " fill="#C1B582" transform="translate(249,299)"/>
<path d="M0 0 C0.66 0.33 1.32 0.66 2 1 C1.26674793 2.48754006 0.51273922 3.96486192 -0.25 5.4375 C-0.87648438 6.67306641 -0.87648438 6.67306641 -1.515625 7.93359375 C-3.26831248 10.37351922 -4.13506161 10.4978974 -7 11 C-8.10836423 12.88316159 -8.10836423 12.88316159 -9 15 C-10.375 16.75 -10.375 16.75 -12 18 C-13.32 18 -14.64 18 -16 18 C-14.53033642 14.60140297 -12.61962486 12.35036291 -10 9.75 C-9.29875 9.04359375 -8.5975 8.3371875 -7.875 7.609375 C-6 6 -6 6 -4 6 C-4 5.34 -4 4.68 -4 4 C-3.34 4 -2.68 4 -2 4 C-2 3.34 -2 2.68 -2 2 C-1.34 2 -0.68 2 0 2 C0 1.34 0 0.68 0 0 Z " fill="#66B1B1" transform="translate(284,292)"/>
<path d="M0 0 C3.14192943 3.14192943 3.16344085 6.06605967 3.1875 10.3125 C3.13958275 11.87551517 3.08187055 13.43839515 3 15 C2.01 15.33 1.02 15.66 0 16 C0.02320313 15.24074219 0.04640625 14.48148438 0.0703125 13.69921875 C0.08835938 12.70535156 0.10640625 11.71148437 0.125 10.6875 C0.14820313 9.70136719 0.17140625 8.71523437 0.1953125 7.69921875 C0.20682639 4.77593473 0.20682639 4.77593473 -2 2 C-4.31 2.33 -6.62 2.66 -9 3 C-9.05406122 4.93719378 -9.09282025 6.87481921 -9.125 8.8125 C-9.14820313 9.89144531 -9.17140625 10.97039062 -9.1953125 12.08203125 C-9.23023717 15.19402868 -9.23023717 15.19402868 -7 18 C-8.32 17.34 -9.64 16.68 -11 16 C-11.10794277 13.73020335 -11.18556176 11.45894804 -11.25 9.1875 C-11.29640625 7.92292969 -11.3428125 6.65835938 -11.390625 5.35546875 C-11 2 -11 2 -9.20703125 0.05078125 C-5.79233869 -1.57497503 -3.56724938 -1.03774527 0 0 Z " fill="#2372B3" transform="translate(235,139)"/>
<path d="M0 0 C1.15810065 2.31620131 1.50512238 4.46375217 2 7 C2.33 7.99 2.66 8.98 3 10 C0.03 9.505 0.03 9.505 -3 9 C-3.99 10.485 -3.99 10.485 -5 12 C-5.99 11.67 -6.98 11.34 -8 11 C-8.020625 11.598125 -8.04125 12.19625 -8.0625 12.8125 C-9 15 -9 15 -12.5625 16.75 C-13.696875 17.1625 -14.83125 17.575 -16 18 C-14.88273561 14.64820682 -14.04550033 13.98292595 -11.375 11.8125 C-7.12846703 8.22517612 -3.54762209 4.26823283 0 0 Z " fill="#E3A475" transform="translate(308,236)"/>
<path d="M0 0 C2.55987607 1.04897177 3.93300385 2.40960743 5.828125 4.4140625 C6.44171875 5.05472656 7.0553125 5.69539062 7.6875 6.35546875 C8.14640625 6.84917969 8.6053125 7.34289062 9.078125 7.8515625 C7.758125 8.1815625 6.438125 8.5115625 5.078125 8.8515625 C4.748125 8.1915625 4.418125 7.5315625 4.078125 6.8515625 C0.08946373 5.85439718 -2.9541819 5.8012908 -6.921875 6.8515625 C-6.921875 7.8415625 -6.921875 8.8315625 -6.921875 9.8515625 C-8.241875 10.1815625 -9.561875 10.5115625 -10.921875 10.8515625 C-3.91808815 -0.30261656 -3.91808815 -0.30261656 0 0 Z " fill="#D5A28E" transform="translate(343.921875,200.1484375)"/>
<path d="M0 0 C2.475 0.99 2.475 0.99 5 2 C3.56286333 4.87427334 1.6329756 5.34236834 -1.25 6.6875 C-2.20390625 7.14511719 -3.1578125 7.60273438 -4.140625 8.07421875 C-7.27439992 9.0888426 -8.88694418 8.9373252 -12 8 C-10.79618552 5.50638429 -9.54571278 3.31856917 -8 1 C-7.34 1 -6.68 1 -6 1 C-5.67 1.66 -5.34 2.32 -5 3 C-2.97536745 3.65213292 -2.97536745 3.65213292 -1 4 C-0.67 2.68 -0.34 1.36 0 0 Z " fill="#3280BF" transform="translate(246,366)"/>
<path d="M0 0 C0.66 0.66 1.32 1.32 2 2 C1.34 2 0.68 2 0 2 C0 2.66 0 3.32 0 4 C-0.99 4.33 -1.98 4.66 -3 5 C-2.67 5.66 -2.34 6.32 -2 7 C-3.98 7 -5.96 7 -8 7 C-8.33 6.34 -8.66 5.68 -9 5 C-12.02934491 4.34227572 -12.02934491 4.34227572 -15 4 C-14 2 -14 2 -11.4375 0.875 C-7.34680381 -0.16626812 -4.21195072 -0.28079671 0 0 Z " fill="#3D86C3" transform="translate(379,151)"/>
<path d="M0 0 C-1.6616804 4.12417063 -4.62338018 7.06554039 -7.625 10.25 C-8.140625 10.80429687 -8.65625 11.35859375 -9.1875 11.9296875 C-10.45425035 13.2902712 -11.72657815 14.64565837 -13 16 C-13.33 14.68 -13.66 13.36 -14 12 C-13.34 12 -12.68 12 -12 12 C-12 11.01 -12 10.02 -12 9 C-11.01 8.67 -10.02 8.34 -9 8 C-9.061875 7.236875 -9.12375 6.47375 -9.1875 5.6875 C-9 3 -9 3 -7.875 1.1875 C-5.22464043 -0.49106106 -3.06753576 -0.20450238 0 0 Z " fill="#3A84C2" transform="translate(345,288)"/>
<path d="M0 0 C3.4375 0.8125 3.4375 0.8125 7 2 C7.33 2.99 7.66 3.98 8 5 C8.99 5.66 9.98 6.32 11 7 C11.33 7.99 11.66 8.98 12 10 C14.00016466 11.20882096 14.00016466 11.20882096 16 12 C15.67 12.66 15.34 13.32 15 14 C16.32 14.33 17.64 14.66 19 15 C19.33 16.65 19.66 18.3 20 20 C15.07809171 15.99379558 10.55349248 11.66383798 6.0625 7.1875 C5.47057861 6.60009033 4.87865723 6.01268066 4.26879883 5.4074707 C0 1.12370457 0 1.12370457 0 0 Z " fill="#3E749F" transform="translate(380,171)"/>
<path d="M0 0 C2.475 0.495 2.475 0.495 5 1 C4.67 1.99 4.34 2.98 4 4 C4.99 3.67 5.98 3.34 7 3 C10 3 10 3 13 4 C9.484375 8.6875 9.484375 8.6875 8 10 C6.68 10 5.36 10 4 10 C2.93224776 8.03533587 1.93446535 6.03144641 1 4 C1.33 3.34 1.66 2.68 2 2 C1.34 2 0.68 2 0 2 C0 1.34 0 0.68 0 0 Z " fill="#F8B854" transform="translate(256,304)"/>
<path d="M0 0 C0.66 0.99 1.32 1.98 2 3 C1.34 3 0.68 3 0 3 C0.16113281 3.5671875 0.32226562 4.134375 0.48828125 4.71875 C1.01017085 7.04534179 1.16711134 9.118605 1.1875 11.5 C1.20167969 12.2528125 1.21585937 13.005625 1.23046875 13.78125 C0.9715415 16.27397337 0.13034597 17.78228699 -1 20 C-1.44811137 22.35564596 -1.44811137 22.35564596 -1.625 24.75 C-1.69976562 25.54921875 -1.77453125 26.3484375 -1.8515625 27.171875 C-1.90054688 27.77515625 -1.94953125 28.3784375 -2 29 C-2.33 29 -2.66 29 -3 29 C-3.35396698 18.78739713 -2.84613188 9.89369653 0 0 Z " fill="#4887C0" transform="translate(109,201)"/>
<path d="M0 0 C0.99 0.99 1.98 1.98 3 3 C2 6 2 6 0 7 C-1.71309052 11.09238291 -2.40254805 14.5719715 -2 19 C-1.34 19.66 -0.68 20.32 0 21 C-1.98 21.66 -3.96 22.32 -6 23 C-5.50387003 14.89654389 -2.679915 7.59474067 0 0 Z " fill="#AA8BB1" transform="translate(224,345)"/>
<path d="M0 0 C0 4.31618166 -2.13270348 5.92789659 -5 9 C-5.66 9 -6.32 9 -7 9 C-7.25523437 9.58265625 -7.51046875 10.1653125 -7.7734375 10.765625 C-9.11741087 13.21388223 -10.61810296 14.81743248 -12.625 16.75 C-13.57246094 17.67039062 -13.57246094 17.67039062 -14.5390625 18.609375 C-15.02117187 19.06828125 -15.50328125 19.5271875 -16 20 C-16 17 -16 17 -14.7578125 15.60546875 C-14.21898437 15.13753906 -13.68015625 14.66960937 -13.125 14.1875 C-10.72983904 11.94794114 -10.04020431 11.13401436 -9.0625 7.875 C-7.48993858 3.6198338 -5.00404278 2.965621 -1 1 C-0.67 0.67 -0.34 0.34 0 0 Z " fill="#B6AD91" transform="translate(325,247)"/>
<path d="M0 0 C0.33 0.99 0.66 1.98 1 3 C1.99 3.33 2.98 3.66 4 4 C2 7 2 7 -1.375 7.9375 C-5.12810185 9.03754709 -6.5431493 10.05177916 -9 13 C-9.66 12.67 -10.32 12.34 -11 12 C-7.37 8.04 -3.74 4.08 0 0 Z " fill="#E3B569" transform="translate(264,283)"/>
<path d="M0 0 C0.66 0.33 1.32 0.66 2 1 C2.38112866 3.88445098 2.57513479 6.09645017 0.96875 8.62011719 C-0.46191964 10.27534506 -1.94921709 11.83183764 -3.5 13.375 C-4.02464844 13.92027344 -4.54929687 14.46554688 -5.08984375 15.02734375 C-6.38001995 16.36443545 -7.68828775 17.68402894 -9 19 C-9.33 17.68 -9.66 16.36 -10 15 C-9.34 15 -8.68 15 -8 15 C-8 14.01 -8 13.02 -8 12 C-6.68 12 -5.36 12 -4 12 C-3.67 10.35 -3.34 8.7 -3 7 C-2.01 7 -1.02 7 0 7 C0 4.69 0 2.38 0 0 Z " fill="#DBAC76" transform="translate(403,195)"/>
<path d="M0 0 C3.12461032 1.27298939 5.11986976 3.01066094 7.4375 5.4296875 C13.20621866 11.40145975 13.20621866 11.40145975 20 16 C19.67 16.99 19.34 17.98 19 19 C18.35933594 18.41992188 17.71867187 17.83984375 17.05859375 17.2421875 C16.19363281 16.46101563 15.32867187 15.67984375 14.4375 14.875 C13.52871094 14.05386719 12.61992187 13.23273438 11.68359375 12.38671875 C8.97274539 9.97576046 6.2068633 7.65357086 3.375 5.38671875 C1.75432438 3.75223055 0.92820262 2.09291841 0 0 Z " fill="#4078AA" transform="translate(243,317)"/>
<path d="M0 0 C7.48291572 6.15034169 7.48291572 6.15034169 10 10 C7.36 9.67 4.72 9.34 2 9 C1.67 8.01 1.34 7.02 1 6 C0.34 5.67 -0.32 5.34 -1 5 C-0.67 3.35 -0.34 1.7 0 0 Z " fill="#307AB9" transform="translate(406,175)"/>
<path d="M0 0 C0.66 0.33 1.32 0.66 2 1 C1.34 3.31 0.68 5.62 0 8 C-1.875 8.625 -1.875 8.625 -4 9 C-4.66 8.34 -5.32 7.68 -6 7 C-5.9375 5.0625 -5.9375 5.0625 -5 3 C-2.5625 1.1875 -2.5625 1.1875 0 0 Z " fill="#F6B858" transform="translate(271,279)"/>
<path d="M0 0 C0.66 0.33 1.32 0.66 2 1 C0.71937515 2.7074998 -0.61767557 4.37373596 -2 6 C-2.66 6 -3.32 6 -4 6 C-4.20625 6.53625 -4.4125 7.0725 -4.625 7.625 C-6.57996944 11.0017654 -9.18223695 13.30474839 -12 16 C-12.66 15.67 -13.32 15.34 -14 15 C-13.195625 14.2575 -12.39125 13.515 -11.5625 12.75 C-9.08394308 10.09008525 -8.70972476 9.3120489 -8 6 C-7.01 5.67 -6.02 5.34 -5 5 C-4.34 4.01 -3.68 3.02 -3 2 C-2.01 2 -1.02 2 0 2 C0 1.34 0 0.68 0 0 Z " fill="#A8AAA0" transform="translate(352,218)"/>
<path d="M0 0 C2.5625 2.0625 2.5625 2.0625 5 5 C5 8.54361243 4.65850044 10.86591591 2.875 13.9375 C-0.13077444 15.64077218 -2.63510267 15.36707971 -6 15 C-6.66 14.01 -7.32 13.02 -8 12 C-4.97265625 12.48828125 -4.97265625 12.48828125 -1.9453125 12.9765625 C-0.98238281 12.98816406 -0.98238281 12.98816406 0 13 C2.5654594 10.4345406 2.54046087 8.52313332 3 5 C2.34 5 1.68 5 1 5 C0.67 3.35 0.34 1.7 0 0 Z " fill="#2C7DB7" transform="translate(178,164)"/>
<path d="M0 0 C0.66 0 1.32 0 2 0 C5.18453695 4.01660124 5.24202413 6.82178279 4.6875 11.8125 C4.56761719 12.97394531 4.44773437 14.13539063 4.32421875 15.33203125 C4.16373047 16.65267578 4.16373047 16.65267578 4 18 C3.67 18 3.34 18 3 18 C1.01401507 12.04204521 0.42954941 6.25107435 0 0 Z " fill="#4588BE" transform="translate(107,251)"/>
<path d="M0 0 C1.98 0 3.96 0 6 0 C2.96943208 2.44168979 -0.09018596 4.13027389 -3.625 5.75 C-5.06746094 6.42289062 -5.06746094 6.42289062 -6.5390625 7.109375 C-7.35117187 7.40328125 -8.16328125 7.6971875 -9 8 C-9.66 7.67 -10.32 7.34 -11 7 C-10.34 5.35 -9.68 3.7 -9 2 C-4.545 1.505 -4.545 1.505 0 1 C0 0.67 0 0.34 0 0 Z " fill="#5D99C9" transform="translate(280,352)"/>
<path d="M0 0 C1.32 0.66 2.64 1.32 4 2 C2.61811547 5.21043882 1.07578097 7.04936365 -1.625 9.25 C-2.25664062 9.77078125 -2.88828125 10.2915625 -3.5390625 10.828125 C-4.02117187 11.21484375 -4.50328125 11.6015625 -5 12 C-5.33 10.68 -5.66 9.36 -6 8 C-4.68 8 -3.36 8 -2 8 C-1.855625 6.865625 -1.71125 5.73125 -1.5625 4.5625 C-1 1 -1 1 0 0 Z " fill="#498CC2" transform="translate(317,312)"/>
<path d="M0 0 C0.33 0.66 0.66 1.32 1 2 C2.65 2 4.3 2 6 2 C6 4.31 6 6.62 6 9 C7.32 9.33 8.64 9.66 10 10 C10 11.32 10 12.64 10 14 C9.34 14 8.68 14 8 14 C6.4921875 12.3203125 6.4921875 12.3203125 4.875 10.125 C4.33617187 9.40570313 3.79734375 8.68640625 3.2421875 7.9453125 C2 6 2 6 2 4 C1.34 4 0.68 4 0 4 C-0.33 3.01 -0.66 2.02 -1 1 C-0.67 0.67 -0.34 0.34 0 0 Z " fill="#4A8CC1" transform="translate(128,302)"/>
<path d="M0 0 C0.66 0.33 1.32 0.66 2 1 C0.07794768 4.65189941 -1.22037054 6.36216057 -5 8 C-5.33 8.66 -5.66 9.32 -6 10 C-6.66 10 -7.32 10 -8 10 C-8 10.66 -8 11.32 -8 12 C-8.66 12 -9.32 12 -10 12 C-10 12.66 -10 13.32 -10 14 C-10.66 14 -11.32 14 -12 14 C-12.33 14.66 -12.66 15.32 -13 16 C-12.67 14.35 -12.34 12.7 -12 11 C-11.01 11 -10.02 11 -9 11 C-9 10.34 -9 9.68 -9 9 C-8.34 9 -7.68 9 -7 9 C-7 8.01 -7 7.02 -7 6 C-6.34 6 -5.68 6 -5 6 C-5 5.01 -5 4.02 -5 3 C-3.68 3 -2.36 3 -1 3 C-0.67 2.01 -0.34 1.02 0 0 Z " fill="#C8B880" transform="translate(292,282)"/>
<path d="M0 0 C-2.4516129 4.78064516 -2.4516129 4.78064516 -4.875 5.75 C-5.57625 5.8325 -6.2775 5.915 -7 6 C-7.9075 6.185625 -8.815 6.37125 -9.75 6.5625 C-10.4925 6.706875 -11.235 6.85125 -12 7 C-5.54347826 -1.84782609 -5.54347826 -1.84782609 0 0 Z " fill="#E9A574" transform="translate(321,229)"/>
<path d="M0 0 C0.33 0 0.66 0 1 0 C0.67 4.29 0.34 8.58 0 13 C-0.66 13 -1.32 13 -2 13 C-1.67 14.65 -1.34 16.3 -1 18 C-1.99 18 -2.98 18 -4 18 C-3.48914188 11.56318772 -2.27057103 6.04057576 0 0 Z " fill="#6097C3" transform="translate(201,369)"/>
<path d="M0 0 C0.66 0 1.32 0 2 0 C0.48446596 3.47775179 -1.5773456 5.9557984 -4.125 8.75 C-5.21167969 9.94882812 -5.21167969 9.94882812 -6.3203125 11.171875 C-6.87460937 11.77515625 -7.42890625 12.3784375 -8 13 C-8.66 12.01 -9.32 11.02 -10 10 C-9.525625 9.566875 -9.05125 9.13375 -8.5625 8.6875 C-6.76313043 6.97690387 -6.76313043 6.97690387 -6 4 C-4.68 4 -3.36 4 -2 4 C-1.34 2.68 -0.68 1.36 0 0 Z " fill="#38ADD9" transform="translate(302,309)"/>
<path d="M0 0 C4.88049925 3.9419417 9.0580583 8.11950075 13 13 C11.35 12.67 9.7 12.34 8 12 C8 11.01 8 10.02 8 9 C7.05125 8.814375 6.1025 8.62875 5.125 8.4375 C2 7 2 7 0.625 3.375 C0.41875 2.26125 0.2125 1.1475 0 0 Z " fill="#376FA3" transform="translate(371,205)"/>
<path d="M0 0 C0 0.66 0 1.32 0 2 C-0.66 2 -1.32 2 -2 2 C-2.2475 2.78375 -2.495 3.5675 -2.75 4.375 C-4.15389099 7.32317108 -5.00675737 7.9024777 -8 9 C-7.6875 5.625 -7.6875 5.625 -7 2 C-4 0 -4 0 0 0 Z " fill="#2679BE" transform="translate(190,187)"/>
<path d="M0 0 C3.16426532 0.46306322 4.4106182 0.99255943 6.5625 3.375 C7.3125 7.0625 7.3125 7.0625 7.5625 10.375 C6.5725 10.87 6.5725 10.87 5.5625 11.375 C4.9025 9.065 4.2425 6.755 3.5625 4.375 C0.5925 4.045 -2.3775 3.715 -5.4375 3.375 C-2.4375 0.375 -2.4375 0.375 0 0 Z " fill="#307FB9" transform="translate(287.4375,162.625)"/>
<path d="M0 0 C0.66 0.33 1.32 0.66 2 1 C0.62850499 5.11448502 -1.25190697 5.9177261 -5 8 C-8.875 8.75 -8.875 8.75 -12 9 C-12 8.34 -12 7.68 -12 7 C-9.4453125 5.23828125 -9.4453125 5.23828125 -6.125 3.3125 C-5.03445312 2.66925781 -3.94390625 2.02601562 -2.8203125 1.36328125 C-1.88960937 0.91339844 -0.95890625 0.46351562 0 0 Z " fill="#528EC5" transform="translate(170,123)"/>
<path d="M0 0 C6.18160604 0.53753096 11.326858 2.54582388 17 5 C17 5.33 17 5.66 17 6 C14.03 6 11.06 6 8 6 C8 5.34 8 4.68 8 4 C7.34 4 6.68 4 6 4 C6 3.34 6 2.68 6 2 C4.02 2 2.04 2 0 2 C0 1.34 0 0.68 0 0 Z " fill="#5E95C7" transform="translate(266,113)"/>
<path d="M0 0 C0 3 0 3 -1.9375 5.25 C-4.405976 8.54130133 -4.68249506 10.95181202 -5 15 C-7.46735884 12.53264116 -7.9072384 10.27828479 -9 7 C-8.43410156 6.57847656 -7.86820313 6.15695312 -7.28515625 5.72265625 C-6.55167969 5.17480469 -5.81820312 4.62695312 -5.0625 4.0625 C-4.33160156 3.51722656 -3.60070312 2.97195313 -2.84765625 2.41015625 C-1.0865547 1.13092062 -1.0865547 1.13092062 0 0 Z " fill="#EABA63" transform="translate(259,291)"/>
<path d="M0 0 C0.89332031 0.03480469 1.78664062 0.06960937 2.70703125 0.10546875 C3.60808594 0.13253906 4.50914062 0.15960938 5.4375 0.1875 C6.46810547 0.23970703 6.46810547 0.23970703 7.51953125 0.29296875 C7.84953125 1.28296875 8.17953125 2.27296875 8.51953125 3.29296875 C3.89953125 3.29296875 -0.72046875 3.29296875 -5.48046875 3.29296875 C-2.48046875 0.29296875 -2.48046875 0.29296875 0 0 Z " fill="#2C80BD" transform="translate(144.48046875,224.70703125)"/>
<path d="M0 0 C0.33 0.99 0.66 1.98 1 3 C0.01 3.495 0.01 3.495 -1 4 C-1.33 4.99 -1.66 5.98 -2 7 C-2.99 7 -3.98 7 -5 7 C-5.226875 7.639375 -5.45375 8.27875 -5.6875 8.9375 C-7 11 -7 11 -9.625 11.75 C-10.40875 11.8325 -11.1925 11.915 -12 12 C-8.32167983 7.47384007 -4.58913637 3.60575001 0 0 Z " fill="#669CCB" transform="translate(150,137)"/>
<path d="M0 0 C4.10839064 1.45002023 7.50344613 3.3979134 11 6 C11 6.66 11 7.32 11 8 C11.66 8.33 12.32 8.66 13 9 C11.68 9 10.36 9 9 9 C9 8.34 9 7.68 9 7 C7.35 7 5.7 7 4 7 C4 6.34 4 5.68 4 5 C3.34 5 2.68 5 2 5 C1.34 3.35 0.68 1.7 0 0 Z " fill="#4D8CC2" transform="translate(297,126)"/>
<path d="M0 0 C2 2 2 2 2 5 C1.34 5 0.68 5 0 5 C0 5.66 0 6.32 0 7 C-0.66 7 -1.32 7 -2 7 C-2.66 8.32 -3.32 9.64 -4 11 C-4.33 11 -4.66 11 -5 11 C-5 8.69 -5 6.38 -5 4 C-4.01 3.67 -3.02 3.34 -2 3 C-1.34 3.33 -0.68 3.66 0 4 C0 2.68 0 1.36 0 0 Z " fill="#488CC8" transform="translate(297,335)"/>
<path d="M0 0 C1.32 0.66 2.64 1.32 4 2 C2.32971708 5.94794145 -0.1795565 8.81796118 -3 12 C-3.33 12 -3.66 12 -4 12 C-4 10.02 -4 8.04 -4 6 C-2.68 6 -1.36 6 0 6 C-0.2784375 4.7934375 -0.2784375 4.7934375 -0.5625 3.5625 C-0.706875 2.716875 -0.85125 1.87125 -1 1 C-0.67 0.67 -0.34 0.34 0 0 Z " fill="#5495C5" transform="translate(304,326)"/>
<path d="M0 0 C0.66 0 1.32 0 2 0 C2.74609375 1.734375 2.74609375 1.734375 3 4 C1.34765625 6.140625 1.34765625 6.140625 -0.9375 8.25 C-1.68902344 8.95640625 -2.44054687 9.6628125 -3.21484375 10.390625 C-3.80394531 10.92171875 -4.39304687 11.4528125 -5 12 C-7 8.25 -7 8.25 -7 6 C-6.34 6 -5.68 6 -5 6 C-5 6.66 -5 7.32 -5 8 C-4.34 8 -3.68 8 -3 8 C-1.58622659 5.36095629 -0.62759865 2.92879371 0 0 Z " fill="#4E8FC8" transform="translate(387,238)"/>
<path d="M0 0 C0.99 0 1.98 0 3 0 C3 0.66 3 1.32 3 2 C3.66 2 4.32 2 5 2 C5 4.97 5 7.94 5 11 C3.68 11.33 2.36 11.66 1 12 C1 12.66 1 13.32 1 14 C0.34 13.67 -0.32 13.34 -1 13 C-0.505 12.46375 -0.01 11.9275 0.5 11.375 C2.41127245 8.34881863 2.37478243 6.52295483 2 3 C1.34 2.01 0.68 1.02 0 0 Z " fill="#3E729D" transform="translate(402,193)"/>
<path d="M0 0 C0.66 0.99 1.32 1.98 2 3 C1.01 3.66 0.02 4.32 -1 5 C-2.19232613 7.05003955 -2.19232613 7.05003955 -3 9 C-3.66 9 -4.32 9 -5 9 C-5.66 10.65 -6.32 12.3 -7 14 C-7.66 13.67 -8.32 13.34 -9 13 C-7.50923566 9.7173068 -5.61379679 7.06922559 -3.375 4.25 C-2.74335938 3.45078125 -2.11171875 2.6515625 -1.4609375 1.828125 C-0.97882813 1.22484375 -0.49671875 0.6215625 0 0 Z " fill="#5391C0" transform="translate(137,149)"/>
<path d="M0 0 C0.33 0.66 0.66 1.32 1 2 C-0.92333011 6.06036357 -3.40069448 8.37347975 -7 11 C-7.66 10.67 -8.32 10.34 -9 10 C-7.8758824 8.70756532 -6.75067408 7.41607925 -5.625 6.125 C-4.99851562 5.40570313 -4.37203125 4.68640625 -3.7265625 3.9453125 C-2.52573166 2.5923402 -1.2791655 1.2791655 0 0 Z " fill="#187FBE" transform="translate(304,310)"/>
<path d="M0 0 C0.99 0.33 1.98 0.66 3 1 C2.34 1.66 1.68 2.32 1 3 C1 4.32 1 5.64 1 7 C0.34 7.66 -0.32 8.32 -1 9 C-3.475 8.01 -3.475 8.01 -6 7 C-4.02 4.69 -2.04 2.38 0 0 Z " fill="#3FAECA" transform="translate(268,310)"/>
<path d="M0 0 C0.99 0.66 1.98 1.32 3 2 C3.99 2 4.98 2 6 2 C6.66 2.33 7.32 2.66 8 3 C8.33 2.34 8.66 1.68 9 1 C9 1.99 9 2.98 9 4 C4.71 4.66 0.42 5.32 -4 6 C-4 5.34 -4 4.68 -4 4 C-2.68 3.67 -1.36 3.34 0 3 C0 2.01 0 1.02 0 0 Z " fill="#96DEFB" transform="translate(171,281)"/>
<path d="M0 0 C0.66 1.32 1.32 2.64 2 4 C2.66 4.33 3.32 4.66 4 5 C-0.455 6.485 -0.455 6.485 -5 8 C-5 8.66 -5 9.32 -5 10 C-5.99 9.67 -6.98 9.34 -8 9 C-5.36 6.03 -2.72 3.06 0 0 Z " fill="#257BC4" transform="translate(296,226)"/>
<path d="M0 0 C3 1 3 1 4 3 C4.06996014 4.70702735 4.08440154 6.41668003 4.0625 8.125 C4.05347656 9.03507813 4.04445312 9.94515625 4.03515625 10.8828125 C4.02355469 11.58148438 4.01195312 12.28015625 4 13 C3.01 13.33 2.02 13.66 1 14 C1.01160156 13.24074219 1.02320313 12.48148438 1.03515625 11.69921875 C1.04417969 10.70535156 1.05320313 9.71148437 1.0625 8.6875 C1.07990234 7.20830078 1.07990234 7.20830078 1.09765625 5.69921875 C1.12329862 2.90036151 1.12329862 2.90036151 0 0 Z " fill="#3180C0" transform="translate(234,141)"/>
<path d="M0 0 C0.99 0.66 1.98 1.32 3 2 C2.25 8.625 2.25 8.625 0 12 C-2.42857143 5.71428571 -2.42857143 5.71428571 -1 2 C-0.67 2 -0.34 2 0 2 C0 1.34 0 0.68 0 0 Z " fill="#98DDFA" transform="translate(130,257)"/>
<path d="M0 0 C0 0.66 0 1.32 0 2 C-0.99 2.33 -1.98 2.66 -3 3 C-3.99 4.485 -3.99 4.485 -5 6 C-6.9453125 6.29296875 -6.9453125 6.29296875 -9.125 6.1875 C-10.40375 6.125625 -11.6825 6.06375 -13 6 C-4 0 -4 0 0 0 Z " fill="#3377B5" transform="translate(247,355)"/>
<path d="M0 0 C0.66 0.33 1.32 0.66 2 1 C1.26674793 2.48754006 0.51273922 3.96486192 -0.25 5.4375 C-0.66765625 6.26121094 -1.0853125 7.08492188 -1.515625 7.93359375 C-3 10 -3 10 -5.171875 10.78515625 C-6.07679688 10.89150391 -6.07679688 10.89150391 -7 11 C-6.690625 10.401875 -6.38125 9.80375 -6.0625 9.1875 C-4.89790296 6.91043228 -4.89790296 6.91043228 -4 4 C-3.34 4 -2.68 4 -2 4 C-2 3.34 -2 2.68 -2 2 C-1.34 2 -0.68 2 0 2 C0 1.34 0 0.68 0 0 Z " fill="#47AEC5" transform="translate(284,292)"/>
<path d="M0 0 C2.37948772 0.17625835 3.70225849 0.69719773 5.37890625 2.40234375 C6.62115486 3.90649092 7.81376056 5.45129851 9 7 C8.01 7.495 8.01 7.495 7 8 C7 7.34 7 6.68 7 6 C4.03 5.505 4.03 5.505 1 5 C0.67 3.35 0.34 1.7 0 0 Z " fill="#488CC4" transform="translate(392,162)"/>
<path d="M0 0 C2.31 0.33 4.62 0.66 7 1 C6.34 1.66 5.68 2.32 5 3 C4.01 3 3.02 3 2 3 C2 3.66 2 4.32 2 5 C1.01 5.33 0.02 5.66 -1 6 C-1.99 5.01 -2.98 4.02 -4 3 C-2.68 2.67 -1.36 2.34 0 2 C0 1.34 0 0.68 0 0 Z " fill="#2C79BD" transform="translate(379,153)"/>
<path d="M0 0 C0.99 0.33 1.98 0.66 3 1 C3.79953138 4.28696233 4.09658936 5.71023192 3 9 C1.35 7.68 -0.3 6.36 -2 5 C-1.125 1.125 -1.125 1.125 0 0 Z " fill="#CEB57C" transform="translate(249,299)"/>
<path d="M0 0 C0.66 0 1.32 0 2 0 C0.71480435 2.86697492 -0.57129254 4.97607712 -3 7 C-3.66 7 -4.32 7 -5 7 C-5.33 7.66 -5.66 8.32 -6 9 C-6.33 7.35 -6.66 5.7 -7 4 C-6.030625 3.71125 -5.06125 3.4225 -4.0625 3.125 C-0.89335797 2.35785318 -0.89335797 2.35785318 0 0 Z " fill="#FAB358" transform="translate(286,265)"/>
<path d="M0 0 C0.33 1.32 0.66 2.64 1 4 C0.071875 4.12375 0.071875 4.12375 -0.875 4.25 C-3.18437567 4.81258459 -3.18437567 4.81258459 -4.25 7.0625 C-4.4975 7.701875 -4.745 8.34125 -5 9 C-6.65 9 -8.3 9 -10 9 C-9.67 7.68 -9.34 6.36 -9 5 C-7.515 5.99 -7.515 5.99 -6 7 C-4.02 4.69 -2.04 2.38 0 0 Z " fill="#3C739F" transform="translate(394,213)"/>
<path d="M0 0 C0.33 0.99 0.66 1.98 1 3 C0.071875 3.556875 0.071875 3.556875 -0.875 4.125 C-3.56630293 6.49967906 -4.05573171 8.58610695 -5 12 C-5.33 12.66 -5.66 13.32 -6 14 C-6.66 13.34 -7.32 12.68 -8 12 C-7.73511082 8.15910696 -5.52675278 5.75645758 -3 3 C-2.34 3 -1.68 3 -1 3 C-0.67 2.01 -0.34 1.02 0 0 Z " fill="#C2A683" transform="translate(363,177)"/>
<path d="M0 0 C0.33 0.66 0.66 1.32 1 2 C1.99 2.33 2.98 2.66 4 3 C3.01 3 2.02 3 1 3 C1 5.97 1 8.94 1 12 C0.01 11.34 -0.98 10.68 -2 10 C-2.39507893 5.65413172 -2.45331002 3.67996503 0 0 Z " fill="#2579B9" transform="translate(169,164)"/>
<path d="M0 0 C0.99 0 1.98 0 3 0 C3 0.66 3 1.32 3 2 C6.96 1.34 10.92 0.68 15 0 C13.33697876 3.32604248 10.37023519 3.80042476 7 5 C4.75 4.9375 4.75 4.9375 3 4 C1.25 1.9375 1.25 1.9375 0 0 Z " fill="#DFCBC1" transform="translate(233,353)"/>
<path d="M0 0 C0 3.77910478 -0.99703962 4.46106101 -3.5 7.1875 C-4.1496875 7.90292969 -4.799375 8.61835938 -5.46875 9.35546875 C-5.9740625 9.89816406 -6.479375 10.44085938 -7 11 C-7.66 9.68 -8.32 8.36 -9 7 C-6.62997587 4.38049964 -4.04546021 2.76316117 -1 1 C-0.67 0.67 -0.34 0.34 0 0 Z " fill="#3276AA" transform="translate(287,257)"/>
<path d="M0 0 C1.65 0.33 3.3 0.66 5 1 C4.60196439 3.88575819 4.20990931 4.82189513 1.9375 6.75 C1.298125 7.1625 0.65875 7.575 0 8 C0 6.68 0 5.36 0 4 C-0.66 3.67 -1.32 3.34 -2 3 C-1.34 2.01 -0.68 1.02 0 0 Z " fill="#458DC5" transform="translate(370,254)"/>
<path d="M0 0 C0 3 0 3 -1.49609375 4.68359375 C-2.78763532 5.85039891 -4.07930147 7.01706617 -5.37109375 8.18359375 C-7.1332187 10.14855323 -7.59812994 11.42463556 -8 14 C-8.66 14 -9.32 14 -10 14 C-10.33 13.01 -10.66 12.02 -11 11 C-7.37 7.37 -3.74 3.74 0 0 Z " fill="#2577B8" transform="translate(254,196)"/>
<path d="M0 0 C1.010625 0.144375 2.02125 0.28875 3.0625 0.4375 C3.3925 1.0975 3.7225 1.7575 4.0625 2.4375 C1.7525 2.4375 -0.5575 2.4375 -2.9375 2.4375 C-2.9375 3.4275 -2.9375 4.4175 -2.9375 5.4375 C-4.90216413 6.50525224 -6.90605359 7.50303465 -8.9375 8.4375 C-9.5975 8.1075 -10.2575 7.7775 -10.9375 7.4375 C-5.17820022 0.57535558 -5.17820022 0.57535558 0 0 Z " fill="#C9A982" transform="translate(374.9375,168.5625)"/>
<path d="M0 0 C-0.625 1.875 -0.625 1.875 -2 4 C-5.81058817 5.73961634 -8.03483443 6.19298271 -12 5 C-10.37750059 4.16180842 -8.75191503 3.3295884 -7.125 2.5 C-6.22007812 2.0359375 -5.31515625 1.571875 -4.3828125 1.09375 C-2 0 -2 0 0 0 Z " fill="#3577AD" transform="translate(259,349)"/>
<path d="M0 0 C3.465 1.98 3.465 1.98 7 4 C6.67 4.66 6.34 5.32 6 6 C4.02 6 2.04 6 0 6 C0 4 0 2 0 0 Z " fill="#94D9FA" transform="translate(162,296)"/>
<path d="M0 0 C2.64 0.66 5.28 1.32 8 2 C8 3.98 8 5.96 8 8 C6.66102417 7.04956626 5.32894573 6.08940853 4 5.125 C3.2575 4.59132813 2.515 4.05765625 1.75 3.5078125 C1.1725 3.01023437 0.595 2.51265625 0 2 C0 1.34 0 0.68 0 0 Z " fill="#90DCF9" transform="translate(162,312)"/>
<path d="M0 0 C2.31 1.98 4.62 3.96 7 6 C5.02 6.99 5.02 6.99 3 8 C2.01 7.67 1.02 7.34 0 7 C0 4.69 0 2.38 0 0 Z " fill="#2B78AB" transform="translate(248,304)"/>
<path d="M0 0 C0.66 0.33 1.32 0.66 2 1 C1.34 3.97 0.68 6.94 0 10 C-2.50298434 7.06171403 -3.46930939 4.82097239 -4 1 C-3.34 1 -2.68 1 -2 1 C-1.67 1.99 -1.34 2.98 -1 4 C-0.67 2.68 -0.34 1.36 0 0 Z " fill="#4B8DC6" transform="translate(118,277)"/>
<path d="M0 0 C0.99 0 1.98 0 3 0 C3 0.66 3 1.32 3 2 C2.01 2 1.02 2 0 2 C-0.33 2.99 -0.66 3.98 -1 5 C-2.32 5 -3.64 5 -5 5 C-5 5.99 -5 6.98 -5 8 C-6.32 8.33 -7.64 8.66 -9 9 C-6.91819844 4.94596538 -5.02003345 3.11580708 -1 1 C-0.67 0.67 -0.34 0.34 0 0 Z " fill="#E6A37F" transform="translate(342,202)"/>
<path d="M0 0 C1.32 0.66 2.64 1.32 4 2 C0.8745041 4.64465038 -2.08788267 5.84414715 -6 7 C-6 6.34 -6 5.68 -6 5 C-5.34 5 -4.68 5 -4 5 C-4 4.34 -4 3.68 -4 3 C-2.68 3 -1.36 3 0 3 C0 2.01 0 1.02 0 0 Z " fill="#4585BC" transform="translate(224,377)"/>
<path d="M0 0 C1.125 3.75 1.125 3.75 0 6 C-0.66 6 -1.32 6 -2 6 C-2 5.34 -2 4.68 -2 4 C-4.31 4.33 -6.62 4.66 -9 5 C-6.14693203 2.67527795 -3.45925163 1.2491742 0 0 Z " fill="#367AAF" transform="translate(268,344)"/>
<path d="M0 0 C-1.62249941 0.83819158 -3.24808497 1.6704116 -4.875 2.5 C-6.23238281 3.19609375 -6.23238281 3.19609375 -7.6171875 3.90625 C-10 5 -10 5 -12 5 C-11 2 -11 2 -7.6875 0.25 C-4.06346006 -0.97848812 -3.3741029 -1.10235591 0 0 Z " fill="#6598C8" transform="translate(218,385)"/>
<path d="M0 0 C1.27875 -0.061875 2.5575 -0.12375 3.875 -0.1875 C4.95394531 -0.23970703 4.95394531 -0.23970703 6.0546875 -0.29296875 C6.69664062 -0.19628906 7.33859375 -0.09960938 8 0 C8.66 0.99 9.32 1.98 10 3 C6.65155086 4.05236973 5.40920111 4.20005388 2.1875 2.625 C1.465625 2.08875 0.74375 1.5525 0 1 C0 0.67 0 0.34 0 0 Z " fill="#3E89C4" transform="translate(164,338)"/>
<path d="M0 0 C0.66 0.33 1.32 0.66 2 1 C1.67 3.97 1.34 6.94 1 10 C-1.31 10 -3.62 10 -6 10 C-5.195625 9.278125 -4.39125 8.55625 -3.5625 7.8125 C-0.97707928 4.97484311 -0.31957187 3.72833853 0 0 Z " fill="#90DAFC" transform="translate(180,291)"/>
<path d="M0 0 C2 1 2 1 4 3 C4.36933645 5.75372909 4.18336678 8.20365661 4 11 C2 10 2 10 1.1484375 7.93359375 C0.89320313 7.10988281 0.63796875 6.28617187 0.375 5.4375 C0.11460937 4.61121094 -0.14578125 3.78492188 -0.4140625 2.93359375 C-0.60742188 2.29550781 -0.80078125 1.65742188 -1 1 C-0.67 0.67 -0.34 0.34 0 0 Z " fill="#93DBFA" transform="translate(132,269)"/>
<path d="M0 0 C0.33 0.99 0.66 1.98 1 3 C0.2884375 3.6496875 0.2884375 3.6496875 -0.4375 4.3125 C-2.23686957 6.02309613 -2.23686957 6.02309613 -3 9 C-4.65 9.33 -6.3 9.66 -8 10 C-7.04367001 8.70684939 -6.08486149 7.41553147 -5.125 6.125 C-4.59132813 5.40570313 -4.05765625 4.68640625 -3.5078125 3.9453125 C-2 2 -2 2 0 0 Z " fill="#BFAB89" transform="translate(291,254)"/>
<path d="M0 0 C0.66 0.33 1.32 0.66 2 1 C-5.11389522 9.81548975 -5.11389522 9.81548975 -10 11 C-6.79239749 7.19364503 -3.59253891 3.45436433 0 0 Z " fill="#287AB7" transform="translate(328,193)"/>
<path d="M0 0 C0.99 0.33 1.98 0.66 3 1 C2.34 2.65 1.68 4.3 1 6 C0.34 6 -0.32 6 -1 6 C-1 6.66 -1 7.32 -1 8 C-1.66 8 -2.32 8 -3 8 C-2.37240135 5.07120629 -1.41377341 2.63904371 0 0 Z " fill="#4889C2" transform="translate(120,173)"/>
<path d="M0 0 C0.75 1.75 0.75 1.75 1 4 C-0.9375 6.25 -0.9375 6.25 -3 8 C-3 7.34 -3 6.68 -3 6 C-3.99 6 -4.98 6 -6 6 C-6 5.01 -6 4.02 -6 3 C-3.525 3.495 -3.525 3.495 -1 4 C-0.67 2.68 -0.34 1.36 0 0 Z " fill="#2275B6" transform="translate(278,264)"/>
<path d="M0 0 C1.32 0.66 2.64 1.32 4 2 C2.35 3.98 0.7 5.96 -1 8 C-1.93065133 5.39417629 -2.14917407 4.35801776 -1.0625 1.75 C-0.711875 1.1725 -0.36125 0.595 0 0 Z " fill="#2E77B1" transform="translate(327,210)"/>
<path d="M0 0 C1.14926266 0.95421808 2.29430541 1.91352045 3.4375 2.875 C4.07558594 3.40867188 4.71367187 3.94234375 5.37109375 4.4921875 C7 6 7 6 8 8 C6.88625 7.5359375 6.88625 7.5359375 5.75 7.0625 C3.49307824 6.1905075 1.3549847 5.52332993 -1 5 C-0.67 3.35 -0.34 1.7 0 0 Z " fill="#2378BD" transform="translate(202,197)"/>
<path d="M0 0 C0.66 0.33 1.32 0.66 2 1 C1.67 3.64 1.34 6.28 1 9 C-0.32 9.33 -1.64 9.66 -3 10 C-2.01 6.7 -1.02 3.4 0 0 Z " fill="#98DDFB" transform="translate(132,192)"/>
<path d="M0 0 C0.66 0.33 1.32 0.66 2 1 C0.7260411 3.03833424 -0.61061923 5.03852126 -2 7 C-2.66 7 -3.32 7 -4 7 C-4.33 5.68 -4.66 4.36 -5 3 C-4.34 3 -3.68 3 -3 3 C-3 2.34 -3 1.68 -3 1 C-2.01 0.67 -1.02 0.34 0 0 Z " fill="#146FB8" transform="translate(384,155)"/>
<path d="M0 0 C0.99 0 1.98 0 3 0 C2.65120368 3.25543229 1.97866739 4.01873107 -0.5625 6.25 C-1.366875 6.8275 -2.17125 7.405 -3 8 C-2.25 2.25 -2.25 2.25 0 0 Z " fill="#3178A9" transform="translate(254,289)"/>
<path d="M0 0 C1 2 1 2 0.5 3.9375 C-1.76016493 7.04522678 -4.42708414 7.67669783 -8 9 C-6.90101298 5.70303895 -6.05402613 4.95329411 -3.4375 2.8125 C-2.79683594 2.28269531 -2.15617187 1.75289062 -1.49609375 1.20703125 C-0.75552734 0.60955078 -0.75552734 0.60955078 0 0 Z " fill="#B79F85" transform="translate(300,245)"/>
<path d="M0 0 C0.33 0 0.66 0 1 0 C1.33 2.31 1.66 4.62 2 7 C1.01 7 0.02 7 -1 7 C-1 7.66 -1 8.32 -1 9 C-1.66 9 -2.32 9 -3 9 C-2.44271087 5.65626525 -1.64826111 2.96687001 0 0 Z " fill="#5692C6" transform="translate(116,181)"/>
<path d="M0 0 C-1.49097658 3.7952131 -3.75700849 5.61042731 -7 8 C-7.66 7.67 -8.32 7.34 -9 7 C-7.88121617 5.82737096 -6.75476949 4.66204862 -5.625 3.5 C-4.68527344 2.52546875 -4.68527344 2.52546875 -3.7265625 1.53125 C-2 0 -2 0 0 0 Z " fill="#1F74B8" transform="translate(284,166)"/>
<path d="M0 0 C1.2065625 0.0309375 1.2065625 0.0309375 2.4375 0.0625 C2.1075 1.7125 1.7775 3.3625 1.4375 5.0625 C-0.5 4.75 -0.5 4.75 -2.5625 4.0625 C-2.8925 3.0725 -3.2225 2.0825 -3.5625 1.0625 C-2.5625 0.0625 -2.5625 0.0625 0 0 Z " fill="#BEEDFB" transform="translate(275.5625,136.9375)"/>
<path d="M0 0 C2.475 0.99 2.475 0.99 5 2 C4.67 2.66 4.34 3.32 4 4 C1.4375 4.625 1.4375 4.625 -1 5 C-0.67 3.35 -0.34 1.7 0 0 Z " fill="#4289C4" transform="translate(246,366)"/>
<path d="M0 0 C0.99 0.33 1.98 0.66 3 1 C1.35 2.98 -0.3 4.96 -2 7 C-3.32 6.67 -4.64 6.34 -6 6 C-5.01 6 -4.02 6 -3 6 C-2.87625 5.38125 -2.7525 4.7625 -2.625 4.125 C-2 2 -2 2 0 0 Z " fill="#E8BD68" transform="translate(266,307)"/>
<path d="M0 0 C0.66 0 1.32 0 2 0 C1.65120368 3.25543229 0.97866739 4.01873107 -1.5625 6.25 C-2.366875 6.8275 -3.17125 7.405 -4 8 C-4.33 7.01 -4.66 6.02 -5 5 C-4.34 4.34 -3.68 3.68 -3 3 C-2.01 3 -1.02 3 0 3 C0 2.01 0 1.02 0 0 Z " fill="#2476B6" transform="translate(261,282)"/>
<path d="M0 0 C0.66 0.33 1.32 0.66 2 1 C1.195625 1.763125 0.39125 2.52625 -0.4375 3.3125 C-3.16799024 5.79430898 -3.16799024 5.79430898 -4 9 C-5.32 8.67 -6.64 8.34 -8 8 C-5.36 5.36 -2.72 2.72 0 0 Z " fill="#0C7CC2" transform="translate(375,234)"/>
<path d="M0 0 C1.32 0.66 2.64 1.32 4 2 C1.03 4.475 1.03 4.475 -2 7 C-2.125 4.625 -2.125 4.625 -2 2 C-1.34 1.34 -0.68 0.68 0 0 Z " fill="#F5A177" transform="translate(338,228)"/>
<path d="M0 0 C0.33 0.66 0.66 1.32 1 2 C1.66 2.33 2.32 2.66 3 3 C1.25 4.5625 1.25 4.5625 -1 6 C-3.25 5.6875 -3.25 5.6875 -5 5 C-3.35 3.35 -1.7 1.7 0 0 Z " fill="#4284BF" transform="translate(363,155)"/>
<path d="M0 0 C2.5 2.3125 2.5 2.3125 5 5 C5 5.99 5 6.98 5 8 C3.68 7.67 2.36 7.34 1 7 C0.67 4.69 0.34 2.38 0 0 Z " fill="#5E94C3" transform="translate(325,149)"/>
<path d="M0 0 C1.32 0.99 2.64 1.98 4 3 C3.67 4.32 3.34 5.64 3 7 C1.68 6.67 0.36 6.34 -1 6 C-0.34 6 0.32 6 1 6 C1 5.01 1 4.02 1 3 C0.34 3 -0.32 3 -1 3 C-0.67 2.01 -0.34 1.02 0 0 Z " fill="#1E70B3" transform="translate(203,383)"/>
<path d="M0 0 C0.33 0 0.66 0 1 0 C1.28875 1.11375 1.5775 2.2275 1.875 3.375 C2.69241329 7.00291092 2.69241329 7.00291092 5 9 C2 9 2 9 0.3125 7.8125 C-1.41849029 5.42208484 -1.30392154 3.88725465 -1 1 C-0.67 0.67 -0.34 0.34 0 0 Z " fill="#D4C2BD" transform="translate(226,341)"/>
<path d="M0 0 C1.18414294 3.55242882 0.69535532 4.69830562 -0.4375 8.1875 C-0.72496094 9.08855469 -1.01242188 9.98960937 -1.30859375 10.91796875 C-1.53675781 11.60503906 -1.76492187 12.29210937 -2 13 C-2.33 13 -2.66 13 -3 13 C-3.31563182 7.73946963 -2.66590937 4.55426184 0 0 Z " fill="#3B76A7" transform="translate(230,323)"/>
<path d="M0 0 C0.33 1.32 0.66 2.64 1 4 C-1.97 6.475 -1.97 6.475 -5 9 C-5.66 8.67 -6.32 8.34 -7 8 C-4.69 5.36 -2.38 2.72 0 0 Z " fill="#B8B386" transform="translate(260,287)"/>
<path d="M0 0 C0.33 0.66 0.66 1.32 1 2 C-0.4375 4.625 -0.4375 4.625 -2 7 C-3.32 6.67 -4.64 6.34 -6 6 C-4.02 4.02 -2.04 2.04 0 0 Z " fill="#1481C9" transform="translate(366,243)"/>
<path d="M0 0 C0.99 0 1.98 0 3 0 C1.4169423 4.2742558 -1.50568404 6.26531794 -5 9 C-3.49901406 5.88256767 -1.97568178 2.84498177 0 0 Z " fill="#2275B3" transform="translate(269,198)"/>
<path d="M0 0 C1.98 0 3.96 0 6 0 C6 1.32 6 2.64 6 4 C3.03 3.505 3.03 3.505 0 3 C0 2.01 0 1.02 0 0 Z " fill="#1B72B6" transform="translate(170,163)"/>
<path d="M0 0 C-0.33 0.66 -0.66 1.32 -1 2 C-3.64860427 2.59355614 -6.29197322 2.74209269 -9 3 C-9.33 2.34 -9.66 1.68 -10 1 C-6.59437148 0.22157062 -3.49234244 -0.09978121 0 0 Z " fill="#247AB6" transform="translate(178,298)"/>
<path d="M0 0 C1.32 0.66 2.64 1.32 4 2 C1.03 4.475 1.03 4.475 -2 7 C-2 5.68 -2 4.36 -2 3 C-1.34 3 -0.68 3 0 3 C0 2.01 0 1.02 0 0 Z " fill="#609FC7" transform="translate(333,297)"/>
<path d="M0 0 C2.4375 0.6875 2.4375 0.6875 5 2 C5.8125 4.625 5.8125 4.625 6 7 C5.01 7.495 5.01 7.495 4 8 C2.68 5.36 1.36 2.72 0 0 Z " fill="#91DCFA" transform="translate(137,283)"/>
<path d="M0 0 C0.33 0.99 0.66 1.98 1 3 C0.195625 3.61875 -0.60875 4.2375 -1.4375 4.875 C-4.03874519 6.74164041 -4.03874519 6.74164041 -5 9 C-5.66 8.67 -6.32 8.34 -7 8 C-4.69 5.36 -2.38 2.72 0 0 Z " fill="#46AAC4" transform="translate(298,278)"/>
<path d="M0 0 C0.33 0.99 0.66 1.98 1 3 C0.01 3.33 -0.98 3.66 -2 4 C-2 4.66 -2 5.32 -2 6 C-2.99 6 -3.98 6 -5 6 C-5 6.66 -5 7.32 -5 8 C-5.66 7.67 -6.32 7.34 -7 7 C-4.66666667 4.66666667 -2.33333333 2.33333333 0 0 Z " fill="#52ABC1" transform="translate(312,263)"/>
<path d="M0 0 C3.45925163 1.2491742 6.14693203 2.67527795 9 5 C8.67 5.66 8.34 6.32 8 7 C7.01 6.67 6.02 6.34 5 6 C5 5.34 5 4.68 5 4 C4.360625 3.71125 3.72125 3.4225 3.0625 3.125 C1 2 1 2 0 0 Z " fill="#9BE2FD" transform="translate(216,245)"/>
<path d="M0 0 C0.33 1.32 0.66 2.64 1 4 C0.01 4.33 -0.98 4.66 -2 5 C-2.33 5.99 -2.66 6.98 -3 8 C-3.99 8 -4.98 8 -6 8 C-6 6 -6 6 -3.5625 3.4375 C-2.716875 2.633125 -1.87125 1.82875 -1 1 C-0.67 0.67 -0.34 0.34 0 0 Z " fill="#3BB0DE" transform="translate(354,218)"/>
<path d="M0 0 C1.65 0 3.3 0 5 0 C5.66 1.32 6.32 2.64 7 4 C6.236875 3.79375 5.47375 3.5875 4.6875 3.375 C1.78114056 2.66608797 1.78114056 2.66608797 -1 5 C-0.67 3.35 -0.34 1.7 0 0 Z " fill="#3673AC" transform="translate(340,198)"/>
<path d="M0 0 C0.99 0 1.98 0 3 0 C3.33 0.99 3.66 1.98 4 3 C2.02 3.99 0.04 4.98 -2 6 C-1.34 4.02 -0.68 2.04 0 0 Z " fill="#B5EBFE" transform="translate(283,160)"/>
<path d="M0 0 C2.97 0.495 2.97 0.495 6 1 C6 1.66 6 2.32 6 3 C3.69 3.33 1.38 3.66 -1 4 C-0.67 2.68 -0.34 1.36 0 0 Z " fill="#1378C9" transform="translate(218,377)"/>
<path d="M0 0 C1.98 0.495 1.98 0.495 4 1 C3.67 2.98 3.34 4.96 3 7 C1.68 5.68 0.36 4.36 -1 3 C-0.34 3 0.32 3 1 3 C0.67 2.01 0.34 1.02 0 0 Z " fill="#4F94C7" transform="translate(139,314)"/>
<path d="M0 0 C0.99 0.66 1.98 1.32 3 2 C2.34 2 1.68 2 1 2 C0.67 4.31 0.34 6.62 0 9 C-3 5.25 -3 5.25 -3 3 C-1.5 1.375 -1.5 1.375 0 0 Z " fill="#8BD4F7" transform="translate(164,286)"/>
<path d="M0 0 C0.66 0.33 1.32 0.66 2 1 C1.67 2.32 1.34 3.64 1 5 C0.34 5 -0.32 5 -1 5 C-1 5.66 -1 6.32 -1 7 C-1.66 7 -2.32 7 -3 7 C-3.33 5.68 -3.66 4.36 -4 3 C-2.68 3 -1.36 3 0 3 C0 2.01 0 1.02 0 0 Z " fill="#4D8DC0" transform="translate(352,277)"/>
<path d="M0 0 C0.66 0 1.32 0 2 0 C1.42655063 2.86724686 1.1385485 3.8614515 -1 6 C-1.99 5.67 -2.98 5.34 -4 5 C-3.67 4.34 -3.34 3.68 -3 3 C-2.34 3 -1.68 3 -1 3 C-0.67 2.01 -0.34 1.02 0 0 Z " fill="#1482C6" transform="translate(334,277)"/>
<path d="M0 0 C0.99 1.32 1.98 2.64 3 4 C2.34 5.32 1.68 6.64 1 8 C0.01 7.34 -0.98 6.68 -2 6 C-1.34 4.02 -0.68 2.04 0 0 Z " fill="#99DDFC" transform="translate(157,231)"/>
<path d="M0 0 C1.32 0 2.64 0 4 0 C3.6875 1.875 3.6875 1.875 3 4 C2.01 4.66 1.02 5.32 0 6 C0 4.02 0 2.04 0 0 Z " fill="#327CBA" transform="translate(390,234)"/>
<path d="M0 0 C2.97 0.495 2.97 0.495 6 1 C6 1.99 6 2.98 6 4 C4.68 4 3.36 4 2 4 C2 3.34 2 2.68 2 2 C1.34 2 0.68 2 0 2 C0 1.34 0 0.68 0 0 Z " fill="#1072C7" transform="translate(374,158)"/>
<path d="M0 0 C0.33 0.99 0.66 1.98 1 3 C0.01 3.495 0.01 3.495 -1 4 C-1.33 4.99 -1.66 5.98 -2 7 C-2.99 6.67 -3.98 6.34 -5 6 C-3.63016497 2.83884224 -3.0109362 2.0072908 0 0 Z " fill="#518CC0" transform="translate(150,137)"/>
<path d="M0 0 C0.99 0.33 1.98 0.66 3 1 C2.67 1.99 2.34 2.98 2 4 C-1.5625 5.1875 -1.5625 5.1875 -5 6 C-5 5.34 -5 4.68 -5 4 C-3.35 3.34 -1.7 2.68 0 2 C0 1.34 0 0.68 0 0 Z " fill="#CCCAC8" transform="translate(266,341)"/>
<path d="M0 0 C4.67692308 1.47692308 4.67692308 1.47692308 6.3125 4.125 C6.539375 4.74375 6.76625 5.3625 7 6 C2.32307692 4.52307692 2.32307692 4.52307692 0.6875 1.875 C0.460625 1.25625 0.23375 0.6375 0 0 Z " fill="#538DBE" transform="translate(157,332)"/>
<path d="M0 0 C0.99 0 1.98 0 3 0 C3.33 1.32 3.66 2.64 4 4 C3.34 4 2.68 4 2 4 C1.67 4.66 1.34 5.32 1 6 C0.34 4.35 -0.32 2.7 -1 1 C-0.67 0.67 -0.34 0.34 0 0 Z " fill="#3E8BC8" transform="translate(323,306)"/>
<path d="M0 0 C1.32 0.33 2.64 0.66 4 1 C4 2.65 4 4.3 4 6 C3.01 6.495 3.01 6.495 2 7 C2 5.68 2 4.36 2 3 C1.34 3 0.68 3 0 3 C0 2.01 0 1.02 0 0 Z " fill="#196EB4" transform="translate(114,275)"/>
<path d="M0 0 C0.66 0.99 1.32 1.98 2 3 C0.02 4.32 -1.96 5.64 -4 7 C-4.66 6.67 -5.32 6.34 -6 6 C-5.38125 5.7525 -4.7625 5.505 -4.125 5.25 C-1.64931313 3.79371361 -1.04874998 2.62187494 0 0 Z " fill="#BFA983" transform="translate(282,264)"/>
<path d="M0 0 C0.66 0 1.32 0 2 0 C2 2.31 2 4.62 2 7 C1.01 6.67 0.02 6.34 -1 6 C-0.67 4.02 -0.34 2.04 0 0 Z " fill="#639BC9" transform="translate(420,196)"/>
<path d="M0 0 C0.66 0 1.32 0 2 0 C2 0.66 2 1.32 2 2 C2.639375 2.28875 3.27875 2.5775 3.9375 2.875 C6 4 6 4 7 6 C4.625 5.8125 4.625 5.8125 2 5 C0.6875 2.4375 0.6875 2.4375 0 0 Z " fill="#3282C4" transform="translate(194,190)"/>
<path d="M0 0 C0.28875 0.61875 0.5775 1.2375 0.875 1.875 C1.93720042 4.13325765 1.93720042 4.13325765 4 6 C3.625 8.125 3.625 8.125 3 10 C-0.22265625 4.82421875 -0.22265625 4.82421875 -1 3 C-0.67 2.01 -0.34 1.02 0 0 Z " fill="#2376B7" transform="translate(322,172)"/>
</svg>
