<?xml version="1.0" encoding="UTF-8"?>
<svg version="1.1" xmlns="http://www.w3.org/2000/svg" width="1024" height="1024">
<path d="M0 0 C337.92 0 675.84 0 1024 0 C1024 337.92 1024 675.84 1024 1024 C686.08 1024 348.16 1024 0 1024 C0 686.08 0 348.16 0 0 Z " fill="#FDF9F1" transform="translate(0,0)"/>
<path d="M0 0 C0.78336731 0.00310181 1.56673462 0.00620361 2.37384033 0.00939941 C60.58329119 0.27859316 123.12365025 17.77497145 167.25 57.25 C168.60347749 58.41746612 169.95755048 59.58424261 171.3125 60.75 C172.62805159 61.91322456 173.94021514 63.08028594 175.25 64.25 C176.17425781 65.06984375 177.09851563 65.8896875 178.05078125 66.734375 C198.72866167 85.24666659 214.92165593 107.89052152 229.06201172 131.64672852 C229.58037598 132.50709717 230.09874023 133.36746582 230.6328125 134.25390625 C231.31947998 135.41128296 231.31947998 135.41128296 232.02001953 136.59204102 C232.42591309 137.13916748 232.83180664 137.68629395 233.25 138.25 C233.91 138.25 234.57 138.25 235.25 138.25 C236.75049936 136.76638306 236.75049936 136.76638306 238.3125 134.8125 C241.63352343 130.89769691 245.16042168 127.29212822 248.84375 123.71875 C250.81562176 121.69566079 252.66867221 119.64226762 254.515625 117.5078125 C278.1086853 90.35807305 278.1086853 90.35807305 293.24609375 88.9765625 C307.77012806 88.54793039 318.83274427 93.7974826 329.59671021 103.32774353 C331.93865859 105.5789424 334.23282492 107.86860387 336.51171875 110.18359375 C337.76406059 111.43874535 337.76406059 111.43874535 339.04170227 112.71925354 C340.79216394 114.47639093 342.53904813 116.23709893 344.2824707 118.0012207 C346.93381395 120.68377057 349.59572183 123.3554589 352.25976562 126.02539062 C353.96937486 127.74417037 355.6783799 129.46355133 357.38671875 131.18359375 C358.1722966 131.97342148 358.95787445 132.76324921 359.76725769 133.57701111 C363.92693346 137.79011478 367.93505918 142.07844454 371.7774353 146.58375549 C373.75552115 148.82201008 375.96001478 150.76342416 378.1875 152.75 C386.86084589 161.26420193 392.3223661 173.11691877 392.5625 185.25 C392.60087979 202.75331758 383.22999625 212.43730077 371.94580078 224.4453125 C369.61452898 226.92627437 367.29187117 229.41523312 364.96899414 231.90405273 C363.78260864 233.17498263 362.59559798 234.44532926 361.40795898 235.71508789 C357.68172999 239.70189957 353.98752387 243.71599944 350.3125 247.75 C346.9128404 251.47319968 343.44971937 255.08724213 339.8515625 258.6171875 C338.11140423 260.39130008 336.49399786 262.23986551 334.875 264.125 C332.28365795 267.1346753 329.57745217 269.96088616 326.75 272.75 C323.3211721 276.13241399 320.12951482 279.63070442 316.99609375 283.28515625 C315.15384325 285.35820324 313.22598338 287.30435802 311.25 289.25 C308.6707494 291.78972186 306.22782611 294.37451314 303.875 297.125 C301.13378551 300.31682509 298.24314112 303.29302977 295.25 306.25 C291.67336902 309.78886866 288.2770056 313.39925621 285 317.21484375 C279.21448729 323.94308509 273.17036892 330.4434357 267.125 336.9375 C266.55128662 337.5550415 265.97757324 338.17258301 265.38647461 338.80883789 C262.5628868 341.83275463 259.70591708 344.804143 256.7578125 347.70703125 C253.68478975 350.75567851 250.84147749 353.95695919 248.01367188 357.23242188 C245.09621163 360.56989301 242.04502049 363.77926685 239 367 C234.57262037 371.70133903 230.16343776 376.41529141 225.8125 381.1875 C218.02532437 389.71192303 210.07239533 398.08145205 202.14746094 406.47753906 C194.76230766 414.30380276 187.40434738 422.14771542 180.15234375 430.09765625 C176.57769922 433.9971531 172.94262681 437.83973561 169.3125 441.6875 C162.57495063 448.82974497 155.89376096 456.02056314 149.25 463.25 C145.25954839 467.59222696 141.2603522 471.92614238 137.25 476.25 C136.5988623 476.95302246 135.94772461 477.65604492 135.27685547 478.38037109 C133.16805173 480.65347165 131.05344361 482.92104585 128.9375 485.1875 C128.27975586 485.89745117 127.62201172 486.60740234 126.94433594 487.33886719 C125.07278337 489.33714439 123.1719431 491.30023998 121.25 493.25 C120.76354004 493.76320801 120.27708008 494.27641602 119.77587891 494.80517578 C113.75909663 500.59181857 105.70931756 503.72349599 98.25 507.25 C96.90672159 507.89204004 95.56361875 508.53444757 94.22070312 509.17724609 C90.15577194 511.11585815 86.07858564 513.02782662 82 514.9375 C80.5084839 515.63789089 79.01703002 516.33841431 77.52563477 517.0390625 C69.54774219 520.78402743 61.55708752 524.50016749 53.55566406 528.19458008 C41.51713926 533.75397711 29.5646882 539.46515622 17.64602661 545.27572632 C6.88093158 550.5217381 -3.92894505 555.65012105 -14.81591797 560.6394043 C-20.33983783 563.1757675 -25.82224093 565.76309361 -31.25 568.5 C-32.28431152 569.0158667 -33.31862305 569.5317334 -34.38427734 570.06323242 C-36.30452341 571.02586353 -38.21714373 572.00394752 -40.11962891 573.0012207 C-46.01374547 575.93944719 -51.14334596 577.29825171 -57.75 576.25 C-61.24996383 574.20835443 -63.55555258 572.15910064 -64.75 568.25 C-65.11264286 561.9976104 -64.10904222 557.14660547 -62.1171875 551.24609375 C-61.84286896 550.40514664 -61.56855042 549.56419952 -61.28591919 548.69776917 C-60.70462646 546.92355649 -60.11767835 545.15118777 -59.52539062 543.38061523 C-58.63695666 540.72326299 -57.76617548 538.06065717 -56.8984375 535.39648438 C-53.54648304 525.18540489 -49.89393803 515.16767384 -45.75 505.25 C-46.99910156 505.14945313 -48.24820313 505.04890625 -49.53515625 504.9453125 C-55.27880425 504.30152145 -60.66159261 502.77595451 -66.1875 501.125 C-67.2401001 500.81296631 -68.2927002 500.50093262 -69.37719727 500.17944336 C-78.71378788 497.35685206 -87.79136375 494.1043456 -96.75 490.25 C-97.43545898 489.95544922 -98.12091797 489.66089844 -98.82714844 489.35742188 C-115.87518278 481.91447996 -132.32658941 472.72023616 -147.15136719 461.46337891 C-148.78124553 460.22628432 -150.42473452 459.00907691 -152.0703125 457.79296875 C-158.69323619 452.85038655 -164.87543856 447.56932885 -170.8984375 441.9140625 C-173.57764019 439.41102656 -176.30906463 436.98319394 -179.0625 434.5625 C-183.33395935 430.71886568 -187.08196745 426.6642062 -190.75 422.25 C-191.48605469 421.40179687 -192.22210938 420.55359375 -192.98046875 419.6796875 C-232.12834967 373.99678672 -252.9538386 315.09022795 -253 255.125 C-253.00067474 254.33276031 -253.00134949 253.54052063 -253.00204468 252.72427368 C-252.97244459 230.71370318 -250.12884434 209.59886165 -244.75 188.25 C-244.54036621 187.41194824 -244.33073242 186.57389648 -244.11474609 185.71044922 C-235.73162889 153.13955426 -218.68151862 123.33489602 -197.75 97.25 C-196.96753906 96.26128906 -196.18507813 95.27257812 -195.37890625 94.25390625 C-183.75683634 80.02095012 -170.51012473 66.23928994 -155.75 55.25 C-154.61817598 54.37801107 -153.48668904 53.50558451 -152.35546875 52.6328125 C-143.25786871 45.70096182 -133.75016286 39.7836547 -123.75 34.25 C-122.91001465 33.77949219 -122.0700293 33.30898437 -121.20458984 32.82421875 C-83.63226078 11.92542922 -43.1007585 -0.30657009 0 0 Z " fill="#1674C2" transform="translate(469.75,221.75)"/>
<path d="M0 0 C18.07977 16.50531122 31.71154978 36.3145975 43.7902832 57.45776367 C44.36302979 58.45404785 44.93577637 59.45033203 45.52587891 60.47680664 C46.05785889 61.42185059 46.58983887 62.36689453 47.13793945 63.34057617 C47.61368408 64.18249512 48.08942871 65.02441406 48.57958984 65.8918457 C49.78940447 68.4637629 50.52807751 70.49253709 50.7277832 73.33276367 C49.66723633 75.05859375 49.66723633 75.05859375 48.0090332 76.60229492 C47.40969971 77.17713623 46.81036621 77.75197754 46.19287109 78.34423828 C45.54439209 78.93857666 44.89591309 79.53291504 44.2277832 80.14526367 C42.92262741 81.39080704 41.61922242 82.63818773 40.31762695 83.88745117 C39.69098145 84.48267578 39.06433594 85.07790039 38.41870117 85.69116211 C35.84728261 88.18758405 33.54561467 90.87863179 31.23168945 93.61010742 C29.10060834 96.05116396 26.78456231 98.28590491 24.47387695 100.55541992 C22.66300678 102.39869941 20.97456967 104.31099166 19.2902832 106.27026367 C16.87160541 109.07852714 14.36878638 111.7324696 11.7277832 114.33276367 C9.25118699 116.77176449 6.90747463 119.24018789 4.6652832 121.89526367 C0.49084432 126.76383558 -4.10272181 131.21522966 -8.67871094 135.70214844 C-12.46573912 139.43788727 -16.03408595 143.28691929 -19.50805664 147.31469727 C-22.52261945 150.76313017 -25.68343822 154.07216817 -28.8347168 157.39526367 C-30.25034158 158.89371582 -31.66570125 160.39241846 -33.08081055 161.89135742 C-33.78447754 162.63627441 -34.48814453 163.38119141 -35.21313477 164.14868164 C-38.28578664 167.40786396 -41.34289812 170.68140735 -44.3972168 173.95776367 C-44.96786865 174.56966553 -45.53852051 175.18156738 -46.12646484 175.81201172 C-47.84202767 177.65197168 -49.55719457 179.49229982 -51.2722168 181.33276367 C-59.26170555 189.90662646 -67.27015198 198.46187298 -75.30639648 206.99194336 C-79.68091284 211.63709195 -84.0446823 216.29201341 -88.3972168 220.95776367 C-88.96480713 221.56587891 -89.53239746 222.17399414 -90.1171875 222.80053711 C-93.04020641 225.93386012 -95.95808131 229.07181615 -98.86987305 232.21557617 C-104.22905688 237.9929811 -109.60238164 243.73210676 -115.2097168 249.27026367 C-118.78395058 252.8028761 -122.13915842 256.41706057 -125.3972168 260.23901367 C-128.57983963 263.7929425 -132.01653395 267.0948616 -135.4284668 270.42651367 C-137.59893188 272.590064 -139.61057568 274.85271872 -141.6081543 277.17651367 C-145.94692339 282.1898868 -150.70008232 286.75158078 -155.48706055 291.33276367 C-156.16124023 291.99276367 -156.83541992 292.65276367 -157.5300293 293.33276367 C-158.42939209 294.19901367 -158.42939209 294.19901367 -159.34692383 295.08276367 C-164.19894829 300.75309811 -167.04636322 306.66956609 -169.09643555 313.79370117 C-169.60404117 315.47457532 -170.11237936 317.15522837 -170.62133789 318.83569336 C-170.88670349 319.72446167 -171.15206909 320.61322998 -171.42547607 321.52893066 C-172.9310564 326.51439516 -174.52250662 331.47260996 -176.10424805 336.43432617 C-176.76387252 338.5098091 -177.42337715 340.58533013 -178.08276367 342.66088867 C-178.41139404 343.69407227 -178.74002441 344.72725586 -179.07861328 345.79174805 C-179.75947184 347.9342799 -180.43912522 350.07719506 -181.11767578 352.22045898 C-182.11030477 355.35517615 -183.10684296 358.48862592 -184.10424805 361.62182617 C-184.40837112 362.58512848 -184.7124942 363.54843079 -185.02583313 364.54092407 C-185.30670273 365.42049774 -185.58757233 366.30007141 -185.87695312 367.20629883 C-186.12310867 367.98172028 -186.36926422 368.75714172 -186.62287903 369.55606079 C-187.2722168 371.33276367 -187.2722168 371.33276367 -188.2722168 372.33276367 C-216.72904256 373.78078799 -252.72987157 354.25498299 -275.2722168 338.33276367 C-275.9111084 337.88175293 -276.55 337.43074219 -277.20825195 336.96606445 C-286.88004152 330.06565503 -295.76240045 322.61226077 -304.2722168 314.33276367 C-304.91723145 313.71353027 -305.56224609 313.09429688 -306.22680664 312.45629883 C-315.07939619 303.93991017 -323.1894185 295.38694138 -330.2722168 285.33276367 C-330.66538086 284.7892627 -331.05854492 284.24576172 -331.46362305 283.68579102 C-350.60496029 257.1356484 -363.21290986 225.62587154 -368.2722168 193.33276367 C-368.4784668 192.10299805 -368.6847168 190.87323242 -368.8972168 189.60620117 C-376.62719682 136.03314517 -363.72359615 78.45389083 -332.1472168 34.39526367 C-330.86805772 32.69826306 -329.5767201 31.01036021 -328.2722168 29.33276367 C-327.62639648 28.49487305 -326.98057617 27.65698242 -326.31518555 26.79370117 C-313.49694416 10.46118848 -298.97965715 -4.33918493 -282.2722168 -16.66723633 C-281.16535778 -17.50435932 -280.05858643 -18.34159825 -278.9519043 -19.17895508 C-250.9047971 -40.10064739 -217.66623177 -52.07458968 -183.2722168 -57.66723633 C-182.00120117 -57.8915332 -180.73018555 -58.11583008 -179.4206543 -58.34692383 C-113.65042519 -68.12538966 -48.66372943 -43.68573289 0 0 Z " fill="#ACE6FE" transform="translate(625.272216796875,318.667236328125)"/>
<path d="M0 0 C3.43930583 1.48126357 5.66954338 3.42427446 8.30078125 6.0703125 C9.11353516 6.885 9.92628906 7.6996875 10.76367188 8.5390625 C11.60478516 9.39242188 12.44589844 10.24578125 13.3125 11.125 C14.14201172 11.95515625 14.97152344 12.7853125 15.82617188 13.640625 C20.21405937 18.05968139 24.44015173 22.560132 28.5012207 27.28076172 C30.39075816 29.4482357 32.38676742 31.48524519 34.4375 33.5 C35.11683594 34.1703125 35.79617188 34.840625 36.49609375 35.53125 C36.99238281 36.0159375 37.48867188 36.500625 38 37 C36.68151159 39.89215541 35.23598182 42.04619975 33.05859375 44.35546875 C32.18956421 45.2825061 32.18956421 45.2825061 31.30297852 46.22827148 C30.37956665 47.1980896 30.37956665 47.1980896 29.4375 48.1875 C28.49185181 49.19115601 28.49185181 49.19115601 27.52709961 50.21508789 C23.41179806 54.56606055 19.21148641 58.82023295 14.9453125 63.0234375 C12.4189758 65.59035792 10.08950754 68.30207551 7.74609375 71.03515625 C5.90384325 73.10820324 3.97598338 75.05435802 2 77 C-0.5792506 79.53972186 -3.02217389 82.12451314 -5.375 84.875 C-8.11621449 88.06682509 -11.00685888 91.04302977 -14 94 C-17.46587236 97.42955334 -20.73967694 100.92486414 -23.91015625 104.625 C-27.35904513 108.54448493 -30.94878076 112.332418 -34.51879883 116.14135742 C-38.51541391 120.40621593 -42.48489017 124.694366 -46.4375 129 C-50.01466612 132.8931743 -53.65480818 136.69650271 -57.4296875 140.3984375 C-59.17913223 142.18269706 -60.80715582 144.04396124 -62.4375 145.9375 C-64.85617779 148.74576347 -67.35899683 151.39970593 -70 154 C-72.62040609 156.58009215 -75.10323412 159.21103607 -77.5 162 C-79.89676588 164.78896393 -82.37959391 167.41990785 -85 170 C-88.14969387 173.10761781 -91.07951907 176.32771578 -93.96484375 179.6796875 C-96.53047436 182.60480186 -99.16797229 185.45878886 -101.8125 188.3125 C-111.8769279 199.16698079 -111.8769279 199.16698079 -121.6875 210.25 C-123.87269387 212.76783462 -126.12431461 215.16118778 -128.5 217.5 C-131.46455536 220.41874546 -134.19612234 223.47401279 -136.91015625 226.625 C-140.08577471 230.23392715 -143.36748129 233.74389476 -146.64916992 237.25634766 C-149.89218312 240.74324057 -152.9807837 244.31721968 -156 248 C-159.54815458 247.41605265 -161.23629132 246.14990481 -163.7746582 243.64526367 C-164.49833084 242.9375029 -165.22200348 242.22974213 -165.96760559 241.50053406 C-166.73755356 240.73078751 -167.50750153 239.96104095 -168.30078125 239.16796875 C-169.09655075 238.37981277 -169.89232025 237.5916568 -170.71220398 236.77961731 C-172.3911871 235.11143834 -174.06620937 233.43926479 -175.73754883 231.76342773 C-178.30611108 229.19389135 -180.89525083 226.64641578 -183.48632812 224.09960938 C-185.11327814 222.4778646 -186.73897313 220.85485959 -188.36328125 219.23046875 C-189.14335037 218.46679489 -189.92341949 217.70312103 -190.72712708 216.91630554 C-191.43503891 216.19908829 -192.14295074 215.48187103 -192.87231445 214.74291992 C-193.50200638 214.11528244 -194.1316983 213.48764496 -194.7804718 212.84098816 C-196 211 -196 211 -195.79890442 208.88978577 C-194.71990154 206.33743502 -193.19923677 204.87910513 -191.2109375 202.953125 C-190.43363281 202.19 -189.65632812 201.426875 -188.85546875 200.640625 C-187.62763672 199.45726562 -187.62763672 199.45726562 -186.375 198.25 C-181.28666869 193.30186582 -176.34900446 188.34583221 -171.72900391 182.95605469 C-168.02335042 178.7637791 -163.95343823 174.91601604 -159.9609375 171 C-155.96887563 167.05417823 -152.19045183 163.00286017 -148.52734375 158.75 C-146.77088996 156.73749029 -144.92133395 154.85508105 -143 153 C-140.52036671 150.55336563 -138.14559624 148.07892226 -135.875 145.4375 C-130.12863868 138.76808063 -124.0235868 132.41776835 -118 126 C-116.74991355 124.66674772 -115.4999132 123.33341471 -114.25 122 C-111.75 119.33333333 -109.25 116.66666667 -106.75 114 C-106.13253906 113.34128906 -105.51507812 112.68257812 -104.87890625 112.00390625 C-103.61623116 110.65722783 -102.35320477 109.3108787 -101.08984375 107.96484375 C-92.38977039 98.71060591 -92.38977039 98.71060591 -83.9609375 89.2109375 C-80.47041156 85.27540426 -76.84715449 81.4619349 -73.24951172 77.62451172 C-70.0026961 74.1575147 -66.78392495 70.67271571 -63.625 67.125 C-58.80730815 61.7277362 -53.82789534 56.48424599 -48.84619141 51.23876953 C-45.74124878 47.95915952 -42.68968192 44.66215299 -39.7578125 41.2265625 C-34.32319293 34.96176059 -28.29591253 29.24093741 -22.39746094 23.41796875 C-16.88549422 17.97021256 -11.40795975 12.54251556 -6.39624023 6.62109375 C-4.38342302 4.28412814 -2.21336154 2.14628998 0 0 Z " fill="#2CB3E2" transform="translate(733,438)"/>
<path d="M0 0 C4.98204139 4.13403434 9.56659962 8.50475038 14.08203125 13.14453125 C15.87004138 15.06021793 15.87004138 15.06021793 18 16 C18 16.66 18 17.32 18 18 C18.57105469 18.25007813 19.14210938 18.50015625 19.73046875 18.7578125 C22.32526745 20.17802934 24.1895481 21.81802649 26.3125 23.875 C27.03050781 24.55304688 27.74851562 25.23109375 28.48828125 25.9296875 C30 28 30 28 29.98828125 29.9921875 C28.68953035 32.63075653 27.01466485 34.23363787 24.875 36.25 C22.07307328 38.90649799 19.44802898 41.61160898 16.9453125 44.546875 C11.45130228 50.89399239 5.36756175 56.68833026 -0.60253906 62.58203125 C-6.63054523 68.5398154 -12.49513074 74.54852624 -18 81 C-19.8133146 83.01869001 -21.65444222 85.01079364 -23.5 87 C-23.99991455 87.54052002 -24.4998291 88.08104004 -25.01489258 88.63793945 C-29.21770589 93.17456412 -33.45243047 97.68101282 -37.6875 102.1875 C-42.43650687 107.24116688 -47.13715592 112.32860767 -51.75390625 117.50390625 C-55.02817548 121.14261588 -58.3628808 124.72471307 -61.69116211 128.31396484 C-64.42786556 131.27268199 -67.1207872 134.25709061 -69.75 137.3125 C-72.68620623 140.71194265 -75.83170694 143.84968068 -79.03125 147 C-80.93986455 148.93891002 -82.72710552 150.93699551 -84.5 153 C-86.89676588 155.78896393 -89.37959391 158.41990785 -92 161 C-94.47963329 163.44663437 -96.85440376 165.92107774 -99.125 168.5625 C-104.26318281 174.52604702 -109.69944634 180.21743801 -115.08544922 185.95605469 C-116.99027158 187.98961408 -118.88851031 190.02912754 -120.78515625 192.0703125 C-127.28491725 199.0535268 -133.86311488 205.92320876 -140.64868164 212.62939453 C-143.94914367 215.9047092 -147.03876447 219.27611201 -150.04296875 222.8203125 C-154.78667381 228.10372053 -159.94912082 233.01269832 -165 238 C-165.99 238.99 -165.99 238.99 -167 240 C-171.00269774 236.33626946 -175.0023748 232.66926458 -179 229 C-179.58201172 228.46600586 -180.16402344 227.93201172 -180.76367188 227.38183594 C-182.48943885 225.79747796 -184.21367351 224.21146881 -185.9375 222.625 C-186.73353638 221.89458496 -186.73353638 221.89458496 -187.5456543 221.14941406 C-190.77717954 218.17181262 -193.91372419 215.12606206 -197 212 C-195.63154975 208.96127857 -194.05830686 206.76966554 -191.76953125 204.35546875 C-190.81143555 203.33936523 -190.81143555 203.33936523 -189.83398438 202.30273438 C-188.83334961 201.25569336 -188.83334961 201.25569336 -187.8125 200.1875 C-186.84086914 199.15786133 -186.84086914 199.15786133 -185.84960938 198.10742188 C-182.15509716 194.20622366 -178.40302561 190.3727466 -174.57397461 186.60351562 C-172.27030026 184.25660495 -170.14342676 181.76712648 -167.9921875 179.28125 C-161.13311662 171.42694138 -153.98367819 163.91787915 -146.56933594 156.58862305 C-143.06086738 153.10599859 -139.74064626 149.52716481 -136.5390625 145.7578125 C-134.39344937 143.30723913 -132.06874586 141.05861231 -129.74609375 138.77734375 C-127.93522357 136.93406426 -126.24678646 135.02177201 -124.5625 133.0625 C-122.14382221 130.25423653 -119.64100317 127.60029407 -117 125 C-114.37959391 122.41990785 -111.89676588 119.78896393 -109.5 117 C-106.55421205 113.57217403 -103.43824653 110.38865183 -100.1875 107.25 C-98.29344277 105.30182685 -96.51049805 103.31285673 -94.73046875 101.26171875 C-91.03322394 97.005508 -87.19279915 92.90152986 -83.3125 88.8125 C-78.35874569 83.57470673 -73.4321983 78.3160209 -68.5625 73 C-64.48534488 68.55305955 -60.28465066 64.25852957 -55.9921875 60.01953125 C-53.57923602 57.57346083 -51.35225013 55.00284728 -49.11328125 52.3984375 C-43.88828333 46.4684029 -38.4091809 40.76153467 -33 35 C-30.45812078 32.29186604 -27.91647687 29.58351155 -25.375 26.875 C-24.75181885 26.21129395 -24.1286377 25.54758789 -23.48657227 24.86376953 C-18.97047728 20.0492021 -14.48356254 15.20864637 -10.03076172 10.33544922 C-6.77859394 6.79095175 -3.41810988 3.38297513 0 0 Z " fill="#FCAB5F" transform="translate(703,408)"/>
<path d="M0 0 C4.45060226 2.02300103 7.06720891 4.61587718 9.3046875 9.015625 C11.12377525 14.20717879 10.66271829 19.14474954 8.4375 24.125 C6.41503292 27.72840966 3.85026974 30.40897563 0.8515625 33.22265625 C-1.04123379 35.03958096 -2.73435294 36.94271817 -4.4375 38.9375 C-6.85617779 41.74576347 -9.35899683 44.39970593 -12 47 C-14.62040609 49.58009215 -17.10323412 52.21103607 -19.5 55 C-21.89676588 57.78896393 -24.37959391 60.41990785 -27 63 C-29.47963329 65.44663437 -31.85440376 67.92107774 -34.125 70.5625 C-38.13256686 75.21821549 -42.33904386 79.68072446 -46.53808594 84.1628418 C-50.33574598 88.21670905 -54.11510157 92.28611045 -57.875 96.375 C-62.61946258 101.52477248 -67.39574977 106.64420976 -72.1875 111.75 C-73.20904175 112.84272217 -73.20904175 112.84272217 -74.2512207 113.95751953 C-78.56663795 118.55174035 -82.97635747 122.95331562 -87.69140625 127.140625 C-89.25271171 128.9163778 -89.25271171 128.9163778 -88.734375 131.12890625 C-88.37085938 132.55009766 -88.37085938 132.55009766 -88 134 C-87.06049979 146.36937106 -86.96414701 157.53999258 -94.625 167.8125 C-100.65978863 174.29034906 -109.89161789 177.35067809 -118.47265625 178.44140625 C-129.76617302 178.82236275 -137.5873552 176.20900958 -146.4765625 168.98828125 C-152.10123863 163.28987342 -154.57492944 156.51459632 -157 149 C-157.33 148.01 -157.66 147.02 -158 146 C-157.9071875 145.07832031 -157.814375 144.15664063 -157.71875 143.20703125 C-157.39454842 138.17611751 -157.42678489 134.14130588 -160.45361328 130.02148438 C-164.50861459 125.64973676 -169.06815825 121.83506204 -173.63378906 118.01123047 C-177.35790717 114.84580693 -180.89087125 111.48629018 -184.4375 108.125 C-185.10209229 107.50310791 -185.76668457 106.88121582 -186.45141602 106.24047852 C-191.01628334 101.96694924 -195.44380127 97.58370641 -199.8359375 93.1328125 C-201.87115888 91.12698059 -203.96008313 89.23900178 -206.125 87.375 C-220.77960884 74.67829436 -220.77960884 74.67829436 -222.375 64.640625 C-222.66201729 59.29492806 -221.56362789 56.15756587 -218 52 C-214.87515871 49.15923519 -212.82735944 48.58968606 -208.625 48.625 C-207.25214844 48.61339844 -207.25214844 48.61339844 -205.8515625 48.6015625 C-199.52536018 49.48549762 -195.39405719 53.14069836 -190.9375 57.4375 C-189.79581762 58.51588412 -188.65388316 59.59400143 -187.51171875 60.671875 C-186.93212402 61.22294922 -186.3525293 61.77402344 -185.75537109 62.34179688 C-183.49463492 64.47739077 -181.20065967 66.57514025 -178.90527344 68.67333984 C-173.82016438 73.3249396 -168.88182006 78.07891844 -164.04296875 82.98828125 C-161.4757546 85.51622635 -158.76562963 87.84374603 -156.03125 90.1875 C-153.76361428 92.2109288 -151.6342305 94.33653347 -149.5 96.5 C-148.7471875 97.24894531 -147.994375 97.99789062 -147.21875 98.76953125 C-145.7756415 100.2202618 -144.35713117 101.69602914 -142.96875 103.19921875 C-141.05501061 105.13194365 -139.37728978 106.67617589 -137 108 C-133.34909018 107.59630297 -133.34909018 107.59630297 -130.8828125 106.65234375 C-127.5547413 105.89924363 -124.78151044 106.11909704 -121.40161133 106.35424805 C-113.90450055 106.89612664 -113.90450055 106.89612664 -107.15234375 104.1328125 C-104.86317792 101.54084696 -102.93987268 98.86082233 -101 96 C-99.52603273 94.3102668 -98.02575555 92.64312136 -96.5 91 C-94.25290013 88.50754953 -92.01052728 86.01188265 -89.78515625 83.5 C-85.13226096 78.26651496 -80.30594633 73.27984721 -75.328125 68.35546875 C-72.74719756 65.7442284 -70.34565738 63.02798566 -67.95703125 60.2421875 C-65.46163705 57.38319295 -62.89045561 54.59677409 -60.3125 51.8125 C-59.79905029 51.25788086 -59.28560059 50.70326172 -58.7565918 50.13183594 C-57.69965728 48.99095539 -56.642444 47.85033305 -55.58496094 46.70996094 C-53.03216533 43.95583579 -50.48482326 41.19668559 -47.9375 38.4375 C-47.195 37.63421265 -47.195 37.63421265 -46.4375 36.81469727 C-43.98770965 34.16249459 -41.5452132 31.5041836 -39.1171875 28.83203125 C-34.22546454 23.45341829 -29.25054731 18.20223796 -24.06640625 13.1015625 C-21.43572597 10.42612585 -19.00672613 7.60807136 -16.60546875 4.7265625 C-11.5767202 -0.68148338 -7.15550242 -0.91391032 0 0 Z " fill="#1575C3" transform="translate(594,335)"/>
<path d="M0 0 C4.93909234 1.61534245 7.96969041 5.27090211 11.3359375 9.06640625 C13.50429871 11.50209967 15.64991038 13.56341172 18.15234375 15.63671875 C20.73916545 17.83507996 22.99197947 20.11298396 25.18603516 22.70166016 C28.662941 26.72355651 32.33007233 30.49033394 36.11328125 34.22265625 C36.76688629 34.87247467 37.42049133 35.52229309 38.09390259 36.19180298 C40.15260292 38.2384243 42.21455214 40.28172164 44.27734375 42.32421875 C47.01717772 45.03750762 49.75370837 47.75406632 52.48828125 50.47265625 C53.11737396 51.09345062 53.74646667 51.714245 54.3946228 52.35385132 C58.24939623 56.18659325 60.0671694 58.16115293 60.40234375 63.57421875 C60.31943164 68.84290627 58.81391772 71.15565056 55.1640625 74.8203125 C54.41769531 75.52285156 53.67132812 76.22539062 52.90234375 76.94921875 C51.54382939 78.30375503 50.18546726 79.65845295 48.83129883 81.01733398 C47.87410861 81.97648667 46.9142787 82.9330119 45.9519043 83.88696289 C42.05918316 87.75033017 38.43409033 91.75753595 34.90234375 95.94921875 C33.94557576 97.0770463 32.98851919 98.20462907 32.03125 99.33203125 C29.31598396 102.53303206 26.60776505 105.73989439 23.90234375 108.94921875 C18.53067014 104.46373048 13.52998119 99.72337917 8.58984375 94.76953125 C7.81729248 93.99793671 7.04474121 93.22634216 6.2487793 92.43136597 C4.62393391 90.80719767 3.00033699 89.18177952 1.37792969 87.55517578 C-1.08677879 85.08511981 -3.5567678 82.62043568 -6.02734375 80.15625 C-7.61360189 78.56933086 -9.19954968 76.98210143 -10.78515625 75.39453125 C-11.51452393 74.66718781 -12.2438916 73.93984436 -12.99536133 73.19046021 C-17.00609682 69.16160253 -20.83029874 65.03268779 -24.54324341 60.72824097 C-26.51534253 58.47117769 -28.59197119 56.34172363 -30.71875 54.23046875 C-31.50830078 53.44414062 -32.29785156 52.6578125 -33.11132812 51.84765625 C-33.91119141 51.05617188 -34.71105469 50.2646875 -35.53515625 49.44921875 C-36.36208984 48.62679687 -37.18902344 47.804375 -38.04101562 46.95703125 C-40.05760584 44.95209762 -42.07650861 42.94955622 -44.09765625 40.94921875 C-42.72587979 36.7879952 -40.9018846 34.40741864 -37.7734375 31.3671875 C-36.90912109 30.51705078 -36.04480469 29.66691406 -35.15429688 28.79101562 C-33.79594727 27.47713867 -33.79594727 27.47713867 -32.41015625 26.13671875 C-25.73115864 19.62287453 -19.24472532 13.10235692 -13.39086914 5.82836914 C-9.56279383 1.16697131 -6.06302436 -0.37426076 0 0 Z " fill="#FDAA4F" transform="translate(770.09765625,344.05078125)"/>
<path d="M0 0 C1.10908853 0.94749009 2.21772398 1.89551054 3.32617188 2.84375 C3.94359253 3.37162109 4.56101318 3.89949219 5.19714355 4.44335938 C7.67483049 6.582669 10.09047345 8.7843434 12.5 11 C12.99556396 11.4549585 13.49112793 11.90991699 14.00170898 12.37866211 C17.01806542 15.15389551 20.01560649 17.94849072 23.00390625 20.75390625 C23.67808594 21.38619141 24.35226562 22.01847656 25.046875 22.66992188 C26.37041587 23.91266519 27.69209351 25.15739647 29.01171875 26.40429688 C29.61757813 26.97341797 30.2234375 27.54253906 30.84765625 28.12890625 C31.38398682 28.63494385 31.92031738 29.14098145 32.47290039 29.66235352 C34.17050676 31.20826904 34.17050676 31.20826904 37 33 C37 33.66 37 34.32 37 35 C37.66 35 38.32 35 39 35 C40.71381963 36.61814024 42.3706254 38.29685762 44 40 C44.98212958 40.98742709 45.9670061 41.97212817 46.9543457 42.9543457 C54.63623047 50.63623047 62.31811523 58.31811523 70 66 C66.50868116 68.87836883 62.63760481 70.78075345 58.5859375 72.73046875 C57.86263748 73.08231735 57.13933746 73.43416595 56.39411926 73.79667664 C54.05665962 74.93165753 51.71602671 76.05989725 49.375 77.1875 C47.77513131 77.96171995 46.17527781 78.73597127 44.57543945 79.51025391 C35.22057021 84.02663282 25.83602722 88.44743735 16.29296875 92.5546875 C12.96820396 93.95588848 12.96820396 93.95588848 9.80078125 95.7578125 C6.68390076 97.14019464 6.07191928 97.16646773 3 96 C1.29589844 94.62060547 1.29589844 94.62060547 -0.390625 92.8671875 C-1.01428955 92.22869873 -1.6379541 91.59020996 -2.28051758 90.93237305 C-2.93044678 90.25343994 -3.58037598 89.57450684 -4.25 88.875 C-5.59056536 87.50206556 -6.93299445 86.13094825 -8.27734375 84.76171875 C-9.24003174 83.78017822 -9.24003174 83.78017822 -10.22216797 82.77880859 C-12.89050144 80.10900941 -15.69479389 77.62755746 -18.58203125 75.19921875 C-20 74 -20 74 -22 72 C-21.64119743 65.96073414 -19.69251772 60.39075822 -17.83203125 54.66796875 C-17.51473557 53.6773494 -17.19743988 52.68673004 -16.87052917 51.66609192 C-15.8564321 48.5048474 -14.83448297 45.34620275 -13.8125 42.1875 C-13.14468933 40.10758009 -12.47736725 38.02750324 -11.81054688 35.94726562 C-7.95393729 23.93781965 -4.0193485 11.95593079 0 0 Z " fill="#FCC9A9" transform="translate(482,637)"/>
<path d="M0 0 C0.79921875 -0.020625 1.5984375 -0.04125 2.421875 -0.0625 C8.193265 -0.10046967 12.42648871 0.73499588 16.89453125 4.71484375 C20.9375 9.8125 20.9375 9.8125 21.25 13.25 C21.4046875 14.920625 21.4046875 14.920625 21.5625 16.625 C21.12413928 21.70998434 19.32770481 24.17229519 15.765625 27.734375 C11.24417425 31.29551763 6.74287764 31.71029316 1.125 31.75 C0.44405273 31.75628418 -0.23689453 31.76256836 -0.93847656 31.76904297 C-6.45739149 31.6307344 -10.53639002 30.29190439 -14.61328125 26.53125 C-15.09152344 25.9434375 -15.56976563 25.355625 -16.0625 24.75 C-16.55363281 24.1621875 -17.04476563 23.574375 -17.55078125 22.96875 C-20.15716851 19.23321125 -20.12373251 15.66004361 -19.75 11.25 C-15.0223061 2.31991153 -9.57794781 0.06061992 0 0 Z " fill="#1575C3" transform="translate(300.75,460.75)"/>
<path d="M0 0 C4.50911167 2.17403598 6.85819183 4.49093016 9 9 C10.29062016 12.85380983 10.22029393 16.7910406 10.25 20.8125 C10.270625 21.49892578 10.29125 22.18535156 10.3125 22.89257812 C10.35106517 27.98800131 9.37263494 31.4745229 7 36 C2.20320692 40.44580822 -0.97990851 41.40719327 -7.38671875 41.3515625 C-11.44273772 40.80590972 -14.2413735 38.97806269 -17 36 C-19.91800115 31.15807145 -19.36816393 26.12120112 -19.375 20.625 C-19.41173828 19.08199219 -19.41173828 19.08199219 -19.44921875 17.5078125 C-19.47243231 11.50323717 -19.20688597 7.64971607 -15 3 C-10.63725527 -1.2113842 -5.73737944 -0.74835384 0 0 Z " fill="#1373C2" transform="translate(477,283)"/>
<path d="M0 0 C5.41549494 2.66073797 10.61549911 7.3809678 13 13 C13.97782575 18.91396534 13.46344676 23.98397365 10 29 C5.34562913 33.20028591 2.46266895 34.3719027 -3.69140625 34.2734375 C-9.64846316 33.56786392 -13.18796214 28.9289064 -16.80078125 24.5859375 C-20.06886179 20.26398083 -19.52924158 15.19685826 -19 10 C-17.3125 6.5625 -17.3125 6.5625 -15 4 C-13.948125 2.824375 -13.948125 2.824375 -12.875 1.625 C-8.56939307 -0.80860392 -4.82355144 -0.96323969 0 0 Z " fill="#1373C2" transform="translate(361,333)"/>
<path d="M0 0 C3.46236126 2.39067801 5.74528805 5.0530761 7.625 8.8125 C8.44987067 15.33033057 7.35031575 20.39037948 3.625 25.8125 C-0.92465721 30.21998042 -6.47696725 30.2169602 -12.546875 30.16015625 C-18.0869052 29.47913044 -21.74585538 26.6452877 -25.375 22.5625 C-27.19006071 17.57108305 -27.46375606 13.26027071 -25.2734375 8.3359375 C-19.53738653 -1.08100179 -10.28532025 -3.61890898 0 0 Z " fill="#1575C3" transform="translate(361.375,586.1875)"/>
<path d="M0 0 C4.34886927 1.65721474 7.09203591 4.91119826 10.25 8.1875 C14.50251443 12.53681186 18.77166377 16.70860223 23.51171875 20.53515625 C25.20875562 22.20546813 25.98435375 23.86290531 27 26 C23.39620948 27.76685249 19.78888169 29.52626322 16.1784668 31.27954102 C14.36391854 32.1624803 12.55203458 33.05088846 10.74023438 33.93945312 C2.94734487 37.71847077 -4.86593541 41.03128278 -13 44 C-10.94828347 35.37304947 -8.55021816 26.87185666 -5.98339844 18.38720703 C-5.36557528 16.34382883 -4.75283315 14.29897299 -4.140625 12.25390625 C-1.13988642 2.27977284 -1.13988642 2.27977284 0 0 Z " fill="#DC859C" transform="translate(458,710)"/>
<path d="M0 0 C0.66 0.33 1.32 0.66 2 1 C1.195625 1.763125 0.39125 2.52625 -0.4375 3.3125 C-3.16799024 5.79430898 -3.16799024 5.79430898 -4 9 C-4.99 9 -5.98 9 -7 9 C-7 9.66 -7 10.32 -7 11 C-7.66 11 -8.32 11 -9 11 C-9.12375 11.78375 -9.2475 12.5675 -9.375 13.375 C-10 16 -10 16 -12 18 C-12.99 18 -13.98 18 -15 18 C-15 18.721875 -15 19.44375 -15 20.1875 C-16.36767687 24.03409121 -18.5758579 24.84831748 -22.08984375 26.69140625 C-24.34456051 28.23604861 -24.89104544 29.54309205 -26 32 C-27.66666667 33.66666667 -29.33333333 35.33333333 -31 37 C-31.33 37.99 -31.66 38.98 -32 40 C-32.99 40.495 -32.99 40.495 -34 41 C-34.33 41.99 -34.66 42.98 -35 44 C-37.475 44.495 -37.475 44.495 -40 45 C-39.48202024 40.76651157 -37.0981653 38.59587837 -34.25 35.5625 C-33.7662793 35.04461914 -33.28255859 34.52673828 -32.78417969 33.99316406 C-28.48180951 29.42240924 -24.03159782 25.00049821 -19.56860352 20.58740234 C-16.09155459 17.13695949 -12.80359163 13.59188939 -9.6328125 9.85546875 C-6.59514691 6.40357604 -3.28818715 3.21132043 0 0 Z " fill="#F4B854" transform="translate(576,544)"/>
<path d="M0 0 C3.43930583 1.48126357 5.66954338 3.42427446 8.30078125 6.0703125 C9.11353516 6.885 9.92628906 7.6996875 10.76367188 8.5390625 C12.0253418 9.81910156 12.0253418 9.81910156 13.3125 11.125 C14.14201172 11.95515625 14.97152344 12.7853125 15.82617188 13.640625 C20.21405937 18.05968139 24.44015173 22.560132 28.5012207 27.28076172 C30.39075816 29.4482357 32.38676742 31.48524519 34.4375 33.5 C35.45650391 34.50546875 35.45650391 34.50546875 36.49609375 35.53125 C36.99238281 36.0159375 37.48867188 36.500625 38 37 C36.1144852 41.28359673 33.64034299 43.15103592 30 46 C31.29299694 43.11562221 32.65941363 41.12780579 35 39 C33.40170377 34.93686138 30.47546962 32.31808538 27.375 29.375 C25.52792799 27.62028159 23.75602961 25.84999775 22 24 C22 23.34 22 22.68 22 22 C21.34 22 20.68 22 20 22 C18.51953125 20.49609375 18.51953125 20.49609375 16.8125 18.4375 C10.83814397 10.80646624 10.83814397 10.80646624 2.8125 5.9375 C-0.13809903 6.00306887 -1.63480604 6.24800447 -4 8 C-4.33 8.99 -4.66 9.98 -5 11 C-6.32 11 -7.64 11 -9 11 C-7.59155282 7.78475695 -5.89655214 5.67816132 -3.375 3.25 C-2.74335937 2.63640625 -2.11171875 2.0228125 -1.4609375 1.390625 C-0.73777344 0.70226562 -0.73777344 0.70226562 0 0 Z " fill="#26BAEE" transform="translate(733,438)"/>
<path d="M0 0 C14.65782163 11.15269037 24.56374376 29.58634812 33.6875 45.25 C34.22938965 46.1678125 34.7712793 47.085625 35.32958984 48.03125 C35.82281738 48.89234375 36.31604492 49.7534375 36.82421875 50.640625 C37.26854248 51.40922852 37.71286621 52.17783203 38.1706543 52.96972656 C39 55 39 55 38 58 C37.43152344 56.97261719 36.86304688 55.94523437 36.27734375 54.88671875 C29.36147338 41.08067652 29.36147338 41.08067652 19.98828125 29.140625 C17.43340182 26.3899886 16.47411725 23.44084151 15 20 C12.72645644 16.86387379 12.72645644 16.86387379 10.125 13.9375 C9.28195312 12.95652344 8.43890625 11.97554688 7.5703125 10.96484375 C6.23840766 9.42849759 4.90588801 7.89265851 3.56542969 6.36376953 C0 2.22169001 0 2.22169001 0 0 Z " fill="#CEF1FB" transform="translate(635,330)"/>
<path d="M0 0 C1.65 1.32 3.3 2.64 5 4 C4.45354896 7.91329453 2.70064387 9.58718985 -0.125 12.25 C-3.86056011 15.83685151 -7.24117193 19.53797391 -10.4921875 23.56640625 C-12 25 -12 25 -15 25 C-15 23.02 -15 21.04 -15 19 C-14.34 18.67 -13.68 18.34 -13 18 C-12.67 18.66 -12.34 19.32 -12 20 C-10.68 17.69 -9.36 15.38 -8 13 C-7.01 13 -6.02 13 -5 13 C-5 11.35 -5 9.7 -5 8 C-3.02 8 -1.04 8 1 8 C0.67 5.36 0.34 2.72 0 0 Z " fill="#F79F6F" transform="translate(728,432)"/>
<path d="M0 0 C1.65 0 3.3 0 5 0 C5 0.66 5 1.32 5 2 C5.495 2.495 5.99 2.99 6.5 3.5 C6.995 3.995 7.49 4.49 8 5 C8 5.66 8 6.32 8 7 C8.99 7 9.98 7 11 7 C12.37482707 8.63260714 13.70647667 10.30225062 15 12 C15.99 12.66 16.98 13.32 18 14 C18.6875 16.125 18.6875 16.125 19 18 C19.66 18 20.32 18 21 18 C22.35432675 19.31200404 23.68733482 20.64631404 25 22 C25.66 22.33 26.32 22.66 27 23 C27.268125 23.5775 27.53625 24.155 27.8125 24.75 C28.9204429 27.24063827 28.9204429 27.24063827 31.6875 29 C34.93845189 33.21745111 34.11061151 36.23769451 33.4921875 41.35546875 C33 44 33 44 32 46 C31.34 45.67 30.68 45.34 30 45 C30.33 44.34 30.66 43.68 31 43 C31.38983626 40.83682203 31.38983626 40.83682203 31.5 38.375 C31.5721875 37.55773437 31.644375 36.74046875 31.71875 35.8984375 C29.50276807 26.96224951 18.01543899 18.93550286 11.5625 12.5625 C9.37346289 10.39997754 7.18772216 8.23419963 5.00390625 6.06640625 C4.24938927 5.32433678 4.24938927 5.32433678 3.47962952 4.567276 C2.30081025 3.39696048 1.14748742 2.20105201 0 1 C0 0.67 0 0.34 0 0 Z " fill="#1A6FCE" transform="translate(798,370)"/>
<path d="M0 0 C3.93214301 1.58939426 6.33020346 4.16342502 9.25 7.1875 C12.40157059 10.41430702 15.55922707 13.57818663 19 16.5 C22.35595788 19.35979983 25.46622399 22.42748782 28.5625 25.5625 C35.42182643 33.42010394 35.42182643 33.42010394 44.4375 37.375 C45.283125 37.25125 46.12875 37.1275 47 37 C45.68 37.99 44.36 38.98 43 40 C40.23664637 38.72896928 38.12860895 37.39696503 35.92578125 35.3046875 C35.34892578 34.76142822 34.77207031 34.21816895 34.17773438 33.65844727 C33.56220703 33.06990967 32.94667969 32.48137207 32.3125 31.875 C31.34086914 30.95642212 31.34086914 30.95642212 30.34960938 30.01928711 C28.95879973 28.70421626 27.56969558 27.3873398 26.18212891 26.06884766 C23.95589388 23.95818357 21.71977232 21.85850806 19.48046875 19.76171875 C17.98692615 18.36203573 16.49343539 16.9622974 15 15.5625 C13.96033081 14.58869385 13.96033081 14.58869385 12.8996582 13.59521484 C3.10103499 4.38146062 3.10103499 4.38146062 0 1 C0 0.67 0 0.34 0 0 Z " fill="#BFEFFC" transform="translate(416,404)"/>
<path d="M0 0 C2.98591095 1.35074972 5.16272242 2.87613896 7.5390625 5.125 C8.19712891 5.74439453 8.85519531 6.36378906 9.53320312 7.00195312 C10.22349609 7.66130859 10.91378906 8.32066406 11.625 9 C12.33849609 9.67482422 13.05199219 10.34964844 13.78710938 11.04492188 C18.55206606 15.5683966 23.21354702 20.17896202 27.82421875 24.859375 C29.91846105 26.91977855 32.07839191 28.84334004 34.3125 30.75 C37.62633337 33.57986582 40.32050502 36.56689706 43 40 C40.01408905 38.64925028 37.83727758 37.12386104 35.4609375 34.875 C34.80287109 34.25560547 34.14480469 33.63621094 33.46679688 32.99804688 C32.77650391 32.33869141 32.08621094 31.67933594 31.375 31 C30.66150391 30.32517578 29.94800781 29.65035156 29.21289062 28.95507812 C24.44928729 24.43288818 19.79282256 19.81979694 15.17578125 15.1484375 C11.01726535 11.04218302 6.62703262 7.25417098 2 3.6875 C1.34 3.130625 0.68 2.57375 0 2 C0 1.34 0 0.68 0 0 Z " fill="#B9EEFC" transform="translate(381,417)"/>
<path d="M0 0 C2.9375 0.8125 2.9375 0.8125 6 2 C6.33 2.99 6.66 3.98 7 5 C7.66 5 8.32 5 9 5 C9.33 5.66 9.66 6.32 10 7 C12.52733235 7.65555119 12.52733235 7.65555119 15 8 C15 8.66 15 9.32 15 10 C17.97 8.68 20.94 7.36 24 6 C21.98127747 10.03744506 19.91899872 12.62010675 17 16 C10.70703278 11.62750234 5.15976209 6.67334952 0 1 C0 0.67 0 0.34 0 0 Z " fill="#F7BC52" transform="translate(520,632)"/>
<path d="M0 0 C-0.44472656 0.84304688 -0.44472656 0.84304688 -0.8984375 1.703125 C-2.00943503 4.01967305 -2.83464706 6.30709092 -3.625 8.75 C-3.88539063 9.54921875 -4.14578125 10.3484375 -4.4140625 11.171875 C-4.60742188 11.77515625 -4.80078125 12.3784375 -5 13 C-2.03 13.495 -2.03 13.495 1 14 C0.67 14.66 0.34 15.32 0 16 C1.32 17.32 2.64 18.64 4 20 C3.34 20.66 2.68 21.32 2 22 C-1.96 18.04 -5.92 14.08 -10 10 C-8.38207319 6.76414639 -7.44195891 5.16753932 -5 2.75 C-4.484375 2.22921875 -3.96875 1.7084375 -3.4375 1.171875 C-2 0 -2 0 0 0 Z " fill="#F4BC53" transform="translate(516,610)"/>
<path d="M0 0 C0.99 0 1.98 0 3 0 C1.34136495 4.32504836 -1.871041 7.09418825 -5.125 10.25 C-5.68832031 10.80429687 -6.25164063 11.35859375 -6.83203125 11.9296875 C-8.21686028 13.29104485 -9.60783204 14.64614859 -11 16 C-11.66 15.67 -12.32 15.34 -13 15 C-12.75 12.625 -12.75 12.625 -12 10 C-10.125 8.9375 -10.125 8.9375 -8 8 C-5.94058215 5.63548321 -5.0012505 4.0037515 -4 1 C-2.68 1.33 -1.36 1.66 0 2 C0 1.34 0 0.68 0 0 Z " fill="#F89F6D" transform="translate(710,458)"/>
<path d="M0 0 C0 0.99 0 1.98 0 3 C-0.598125 3.556875 -1.19625 4.11375 -1.8125 4.6875 C-4.03909022 7.04132394 -4.43574155 8.07056178 -5.3125 11.0625 C-6.12658968 13.49572361 -6.53779107 14.68250134 -8.671875 16.1484375 C-10.5625 16.9375 -10.5625 16.9375 -14 18 C-14.66 18.33 -15.32 18.66 -16 19 C-15.42118732 15.45177554 -14.17307641 13.81577197 -11.62109375 11.328125 C-10.94755859 10.66425781 -10.27402344 10.00039063 -9.58007812 9.31640625 C-8.87302734 8.63449219 -8.16597656 7.95257813 -7.4375 7.25 C-6.72658203 6.55261719 -6.01566406 5.85523438 -5.28320312 5.13671875 C-3.52869286 3.4175342 -1.76756648 1.70574128 0 0 Z " fill="#1FB8F5" transform="translate(710,462)"/>
<path d="M0 0 C0.4626052 3.9784047 0.36873404 5.52281478 -2.125 8.75 C-5.06762022 11.05292017 -7.40406836 12.08011051 -11 13 C-10.42473475 9.14129768 -8.64227602 7.10501432 -6.0625 4.25 C-5.35222656 3.45078125 -4.64195312 2.6515625 -3.91015625 1.828125 C-2 0 -2 0 0 0 Z " fill="#23B2EE" transform="translate(640,539)"/>
<path d="M0 0 C7.15801225 5.82628904 13.52591766 12.4382985 20 19 C16.47601214 19 15.98495633 18.44884893 13.4375 16.1875 C12.83808594 15.66542969 12.23867188 15.14335937 11.62109375 14.60546875 C10 13 10 13 8 10 C7.01 10.33 6.02 10.66 5 11 C4.34 10.01 3.68 9.02 3 8 C2.01 8.495 2.01 8.495 1 9 C0.67 6.03 0.34 3.06 0 0 Z " fill="#086CD2" transform="translate(751,411)"/>
<path d="M0 0 C4.00517396 1.60373148 6.6771098 4.42113986 9.640625 7.4453125 C10.16767029 7.97518768 10.69471558 8.50506287 11.23773193 9.05099487 C12.91325675 10.73767825 14.58167722 12.43119564 16.25 14.125 C17.38755851 15.27259388 18.52557436 16.41973461 19.6640625 17.56640625 C22.44803465 20.37238137 25.2256576 23.18450464 28 26 C27.67 26.66 27.34 27.32 27 28 C26.47567383 27.47043701 25.95134766 26.94087402 25.41113281 26.39526367 C23.02673373 23.99003669 20.63841633 21.58873758 18.25 19.1875 C17.425 18.35412109 16.6 17.52074219 15.75 16.66210938 C14.95078125 15.85966797 14.1515625 15.05722656 13.328125 14.23046875 C12.5949707 13.49207764 11.86181641 12.75368652 11.10644531 11.99291992 C9.15817991 10.14965491 7.15873326 8.58467874 5 7 C2.25 4.4375 2.25 4.4375 0 2 C0 1.34 0 0.68 0 0 Z " fill="#0E62BB" transform="translate(797,325)"/>
<path d="M0 0 C0.99 0.33 1.98 0.66 3 1 C2.06409496 2.1055189 1.12620142 3.20935453 0.1875 4.3125 C-0.33457031 4.92738281 -0.85664062 5.54226563 -1.39453125 6.17578125 C-1.92433594 6.77777344 -2.45414063 7.37976563 -3 8 C-3.49886719 8.57105469 -3.99773438 9.14210938 -4.51171875 9.73046875 C-6 11 -6 11 -9 11 C-9.2475 11.5775 -9.495 12.155 -9.75 12.75 C-11.16683317 15.3002997 -12.87627537 17.01785701 -15 19 C-15.66 18.34 -16.32 17.68 -17 17 C-11.39 11.39 -5.78 5.78 0 0 Z " fill="#FAA462" transform="translate(649,466)"/>
<path d="M0 0 C0.66 0.99 1.32 1.98 2 3 C1.236875 3.721875 0.47375 4.44375 -0.3125 5.1875 C-3.03795952 7.82671962 -3.03795952 7.82671962 -4.625 10.75 C-6 13 -6 13 -9 14 C-10.37195574 15.29355827 -11.71182656 16.62298702 -13 18 C-13.66 17.34 -14.32 16.68 -15 16 C-14.08476563 15.09636719 -13.16953125 14.19273437 -12.2265625 13.26171875 C-11.02590942 12.07044577 -9.82539585 10.87903217 -8.625 9.6875 C-8.02171875 9.09259766 -7.4184375 8.49769531 -6.796875 7.88476562 C-6.21679688 7.30791016 -5.63671875 6.73105469 -5.0390625 6.13671875 C-4.50490723 5.60780029 -3.97075195 5.07888184 -3.42041016 4.53393555 C-1.78498535 2.8489902 -1.78498535 2.8489902 0 0 Z " fill="#F3A16E" transform="translate(677,435)"/>
<path d="M0 0 C0.99 0.33 1.98 0.66 3 1 C-1.98404168 7.03331362 -7.41915303 12.5184171 -13 18 C-13 15 -13 15 -12 13 C-11.938125 12.34 -11.87625 11.68 -11.8125 11 C-11.544375 10.34 -11.27625 9.68 -11 9 C-9.01751285 8.28293018 -7.01584651 7.61709587 -5 7 C-2.89767656 4.1315587 -2.89767656 4.1315587 -2 1 C-1.67 1.33 -1.34 1.66 -1 2 C-0.67 1.34 -0.34 0.68 0 0 Z " fill="#1477D6" transform="translate(556,561)"/>
<path d="M0 0 C0.99 0.99 1.98 1.98 3 3 C0.04399553 5.49618156 -2.77886965 7.85257977 -6 10 C-6.99 11.485 -6.99 11.485 -8 13 C-9.32 12.67 -10.64 12.34 -12 12 C-8.04 8.04 -4.08 4.08 0 0 Z " fill="#F5A26E" transform="translate(703,408)"/>
<path d="M0 0 C0.66 0.66 1.32 1.32 2 2 C1.75 4.0625 1.75 4.0625 1 6 C0.01 6.495 0.01 6.495 -1 7 C0.66751148 10.94139078 3.22710649 13.7892812 6 17 C2.89557969 15.6095501 0.6343557 13.98428402 -1.8125 11.625 C-2.43769531 11.03976562 -3.06289063 10.45453125 -3.70703125 9.8515625 C-5 8 -5 8 -4.828125 5.9140625 C-3.72171449 3.35679292 -2.04920692 1.85089658 0 0 Z " fill="#3FB5D5" transform="translate(542,641)"/>
<path d="M0 0 C0 3.59132819 -0.51723089 3.90111896 -2.95703125 6.35546875 C-3.57513672 6.97744141 -4.19324219 7.59941406 -4.83007812 8.24023438 C-5.48427734 8.88283203 -6.13847656 9.52542969 -6.8125 10.1875 C-7.77639648 11.16879883 -7.77639648 11.16879883 -8.75976562 12.16992188 C-9.38173828 12.78802734 -10.00371094 13.40613281 -10.64453125 14.04296875 C-11.21534424 14.61039795 -11.78615723 15.17782715 -12.37426758 15.76245117 C-14 17 -14 17 -17 17 C-16.505 15.515 -16.505 15.515 -16 14 C-15.360625 13.690625 -14.72125 13.38125 -14.0625 13.0625 C-11.84162796 12.17518809 -11.84162796 12.17518809 -11 10 C-10 8 -10 8 -8 7.0625 C-5.73235376 6.13654034 -5.73235376 6.13654034 -5 3.4375 C-4.67 2.633125 -4.34 1.82875 -4 1 C-1.875 0.1875 -1.875 0.1875 0 0 Z " fill="#FCB549" transform="translate(572,608)"/>
<path d="M0 0 C4.56030824 3.80475422 8.85089392 7.74969621 13 12 C12.67 12.66 12.34 13.32 12 14 C11.195625 13.835 10.39125 13.67 9.5625 13.5 C7.2715557 12.96808161 7.2715557 12.96808161 6 13 C5.34 10.69 4.68 8.38 4 6 C2.68 5.67 1.36 5.34 0 5 C0 3.35 0 1.7 0 0 Z " fill="#FCA36C" transform="translate(706,411)"/>
<path d="M0 0 C-1.47721422 3.45201639 -3.43794001 5.64961936 -6.125 8.25 C-6.84945312 8.95640625 -7.57390625 9.6628125 -8.3203125 10.390625 C-8.87460937 10.92171875 -9.42890625 11.4528125 -10 12 C-10.99 11.67 -11.98 11.34 -13 11 C-13 10.34 -13 9.68 -13 9 C-12.01 9 -11.02 9 -10 9 C-10 8.01 -10 7.02 -10 6 C-8.3203125 4.39453125 -8.3203125 4.39453125 -6.125 2.8125 C-5.40570312 2.28269531 -4.68640625 1.75289062 -3.9453125 1.20703125 C-2 0 -2 0 0 0 Z " fill="#EDB457" transform="translate(557,625)"/>
<path d="M0 0 C0 1.98 0 3.96 0 6 C-0.969375 6.268125 -1.93875 6.53625 -2.9375 6.8125 C-3.948125 7.204375 -4.95875 7.59625 -6 8 C-6.33 8.99 -6.66 9.98 -7 11 C-8.32 11 -9.64 11 -11 11 C-9.60249952 7.84164893 -7.94801766 5.67727175 -5.5 3.25 C-4.8915625 2.63640625 -4.283125 2.0228125 -3.65625 1.390625 C-2 0 -2 0 0 0 Z " fill="#1EBCF6" transform="translate(735,438)"/>
<path d="M0 0 C0.66 0.33 1.32 0.66 2 1 C-0.50396297 4.21938097 -3.12007374 7.12007374 -6 10 C-6.88124447 11.07825985 -7.75600445 12.16184429 -8.625 13.25 C-9.40875 14.1575 -10.1925 15.065 -11 16 C-11.66 16 -12.32 16 -13 16 C-12.42308522 12.83145253 -11.58353113 11.21773541 -9.27734375 8.984375 C-8.73916016 8.45585938 -8.20097656 7.92734375 -7.64648438 7.3828125 C-7.08251953 6.84398437 -6.51855469 6.30515625 -5.9375 5.75 C-5.36966797 5.19570313 -4.80183594 4.64140625 -4.21679688 4.0703125 C-2.81787531 2.70665786 -1.40980886 1.35239583 0 0 Z " fill="#F9BD4C" transform="translate(531,592)"/>
<path d="M0 0 C0.66 0.99 1.32 1.98 2 3 C-0.68988892 6.58651856 -3.4814365 9.24220698 -7 12 C-7.33 12.66 -7.66 13.32 -8 14 C-9.32 13.67 -10.64 13.34 -12 13 C-11.30132813 12.31292969 -10.60265625 11.62585938 -9.8828125 10.91796875 C-8.97273437 10.01691406 -8.06265625 9.11585938 -7.125 8.1875 C-6.22007812 7.29417969 -5.31515625 6.40085937 -4.3828125 5.48046875 C-1.90168486 3.04361667 -1.90168486 3.04361667 0 0 Z " fill="#F1A06E" transform="translate(690,421)"/>
<path d="M0 0 C0.66 0.33 1.32 0.66 2 1 C1.360625 1.556875 0.72125 2.11375 0.0625 2.6875 C-2.18154975 4.81070369 -2.18154975 4.81070369 -2.5 7.5 C-3.14063508 10.7031754 -4.58171622 11.89375284 -7 14 C-7.66 12.35 -8.32 10.7 -9 9 C-6.03 6.03 -3.06 3.06 0 0 Z " fill="#20B1EE" transform="translate(621,558)"/>
<path d="M0 0 C5.00157758 2.03811358 8.31006722 6.1154172 12.05078125 9.8828125 C15.63748759 12.45764009 17.68037316 12.41854769 22 12 C19.77162931 13.40304821 18.40323624 14.01817009 15.74609375 13.8984375 C11.96669843 12.66193548 9.553381 10.26625104 6.75 7.5625 C6.20859375 7.05912109 5.6671875 6.55574219 5.109375 6.03710938 C1.15977347 2.31954693 1.15977347 2.31954693 0 0 Z " fill="#0D6BC1" transform="translate(442,431)"/>
<path d="M0 0 C0.99 0 1.98 0 3 0 C1.53424802 3.37198902 -0.35181521 5.64987004 -2.9375 8.25 C-3.62714844 8.95640625 -4.31679688 9.6628125 -5.02734375 10.390625 C-7 12 -7 12 -10 12 C-10.33 12.66 -10.66 13.32 -11 14 C-11 12.68 -11 11.36 -11 10 C-10.443125 9.938125 -9.88625 9.87625 -9.3125 9.8125 C-5.27863135 8.3951948 -2.76246643 5.34339324 -0.6875 1.6875 C-0.460625 1.130625 -0.23375 0.57375 0 0 Z " fill="#FAB150" transform="translate(614,561)"/>
<path d="M0 0 C0.33 0.66 0.66 1.32 1 2 C-4.0940919 9.68490153 -4.0940919 9.68490153 -7.875 11 C-8.57625 11 -9.2775 11 -10 11 C-6.79239749 7.19364503 -3.59253891 3.45436433 0 0 Z " fill="#EAF1F0" transform="translate(693,605)"/>
<path d="M0 0 C0.66 0.33 1.32 0.66 2 1 C-0.97 4.3 -3.94 7.6 -7 11 C-7.66 10.34 -8.32 9.68 -9 9 C-9 8.01 -9 7.02 -9 6 C-8.195625 5.731875 -7.39125 5.46375 -6.5625 5.1875 C-5.716875 4.795625 -4.87125 4.40375 -4 4 C-3.67 3.01 -3.34 2.02 -3 1 C-2.01 0.67 -1.02 0.34 0 0 Z " fill="#F5B553" transform="translate(583,596)"/>
<path d="M0 0 C1.32 0 2.64 0 4 0 C3.67 1.65 3.34 3.3 3 5 C2.34 4.67 1.68 4.34 1 4 C-1.11683841 4.89163577 -1.11683841 4.89163577 -3 6 C-3 6.99 -3 7.98 -3 9 C-4.32 8.67 -5.64 8.34 -7 8 C-6.02133662 6.85373678 -5.04205413 5.70800212 -4.0625 4.5625 C-3.51722656 3.92441406 -2.97195313 3.28632813 -2.41015625 2.62890625 C-1.63204305 1.73008851 -0.84063472 0.84063472 0 0 Z " fill="#2073C9" transform="translate(818,425)"/>
<path d="M0 0 C0.33 0.99 0.66 1.98 1 3 C-2.63 6.63 -6.26 10.26 -10 14 C-10.66 13.67 -11.32 13.34 -12 13 C-10.18777319 11.02058257 -8.37523172 9.04145495 -6.5625 7.0625 C-6.04623047 6.49853516 -5.52996094 5.93457031 -4.99804688 5.35351562 C-1.11328125 1.11328125 -1.11328125 1.11328125 0 0 Z " fill="#BEF0FE" transform="translate(316,326)"/>
<path d="M0 0 C-1.16975393 2.53446685 -2.47225558 4.68691721 -4.0625 7 C-5.6901836 9.52028428 -6.55341928 11.09722532 -7 14 C-7.33 13.34 -7.66 12.68 -8 12 C-8.66 12 -9.32 12 -10 12 C-9.40716913 8.39428893 -7.97258223 6.45570562 -5.5625 3.75 C-4.94503906 3.04359375 -4.32757812 2.3371875 -3.69140625 1.609375 C-2 0 -2 0 0 0 Z " fill="#1FB9F4" transform="translate(693,481)"/>
<path d="M0 0 C1.65 1.32 3.3 2.64 5 4 C4.60196439 6.88575819 4.20990931 7.82189513 1.9375 9.75 C1.298125 10.1625 0.65875 10.575 0 11 C-0.33 10.01 -0.66 9.02 -1 8 C-0.34 8 0.32 8 1 8 C0.67 5.36 0.34 2.72 0 0 Z " fill="#EA9F74" transform="translate(728,432)"/>
<path d="M0 0 C0.66 0.33 1.32 0.66 2 1 C1.67 2.65 1.34 4.3 1 6 C-0.0828125 6.0928125 -0.0828125 6.0928125 -1.1875 6.1875 C-4.84657625 7.24456647 -6.49211602 9.20550071 -9 12 C-9.66 11.67 -10.32 11.34 -11 11 C-7.37 7.37 -3.74 3.74 0 0 Z " fill="#14BBF8" transform="translate(722,450)"/>
<path d="M0 0 C5.09210286 3.56320845 9.22660027 7.04741286 13 12 C10 12 10 12 7.51953125 9.8828125 C6.62621094 8.97273437 5.73289062 8.06265625 4.8125 7.125 C3.91144531 6.22007812 3.01039063 5.31515625 2.08203125 4.3828125 C0 2 0 2 0 0 Z " fill="#2E70C4" transform="translate(464,713)"/>
<path d="M0 0 C1.32 0 2.64 0 4 0 C2.50902342 3.7952131 0.24299151 5.61042731 -3 8 C-3.33 6.68 -3.66 5.36 -4 4 C-2.68 3.34 -1.36 2.68 0 2 C0 1.34 0 0.68 0 0 Z " fill="#1E7BCE" transform="translate(509,610)"/>
<path d="M0 0 C3.7952131 1.49097658 5.61042731 3.75700849 8 7 C6.73581754 7.69965443 5.46334598 8.38434763 4.1875 9.0625 C3.47980469 9.44535156 2.77210938 9.82820312 2.04296875 10.22265625 C0 11 0 11 -3 10 C-0.69 8.68 1.62 7.36 4 6 C2.68 4.02 1.36 2.04 0 0 Z " fill="#F7D4A5" transform="translate(544,697)"/>
<path d="M0 0 C1.32 0.66 2.64 1.32 4 2 C2.38405168 4.04119788 0.7143618 6.04072937 -1 8 C-1.66 8 -2.32 8 -3 8 C-3.1875 5.125 -3.1875 5.125 -3 2 C-2.01 1.34 -1.02 0.68 0 0 Z " fill="#EDB35D" transform="translate(591,584)"/>
<path d="M0 0 C4.62 0 9.24 0 14 0 C14 0.33 14 0.66 14 1 C13.34773437 1.01417969 12.69546875 1.02835937 12.0234375 1.04296875 C5.60918559 1.39300905 2.49880814 2.38280217 -2 7 C-1.34 4.69 -0.68 2.38 0 0 Z " fill="#1970CF" transform="translate(758,344)"/>
<path d="M0 0 C0.66 0.99 1.32 1.98 2 3 C-0.52788007 5.79872437 -2.20411134 7.45773019 -6 8 C-6 6.35 -6 4.7 -6 3 C-4.35 3 -2.7 3 -1 3 C-0.67 2.01 -0.34 1.02 0 0 Z " fill="#FAA369" transform="translate(662,509)"/>
<path d="M0 0 C1.67299959 0.65061095 3.33859237 1.32033324 5 2 C5.7425 2.2475 6.485 2.495 7.25 2.75 C9 4 9 4 9.75 7.125 C9.87375 8.548125 9.87375 8.548125 10 10 C2.51708428 3.84965831 2.51708428 3.84965831 0 0 Z " fill="#2673C8" transform="translate(773,345)"/>
<path d="M0 0 C0.33 0.66 0.66 1.32 1 2 C1.66 2 2.32 2 3 2 C1.6056126 4.78877479 -0.56195086 6.09713238 -3 8 C-3.66 8.66 -4.32 9.32 -5 10 C-5.66 9.34 -6.32 8.68 -7 8 C-4.69 5.36 -2.38 2.72 0 0 Z " fill="#F8A466" transform="translate(661,452)"/>
<path d="M0 0 C0.66 0.66 1.32 1.32 2 2 C-0.97 5.3 -3.94 8.6 -7 12 C-7.33 11.01 -7.66 10.02 -8 9 C-5.36 6.03 -2.72 3.06 0 0 Z " fill="#C6F1FC" transform="translate(602,359)"/>
<path d="M0 0 C0.33 0.66 0.66 1.32 1 2 C-2.15221101 6.41309542 -5.55463907 9.00793014 -10 12 C-8.52278578 8.54798361 -6.56205999 6.35038064 -3.875 3.75 C-3.15054688 3.04359375 -2.42609375 2.3371875 -1.6796875 1.609375 C-1.12539063 1.07828125 -0.57109375 0.5471875 0 0 Z " fill="#0A61BB" transform="translate(721,343)"/>
<path d="M0 0 C0.66 0.33 1.32 0.66 2 1 C-0.55738409 5.47542216 -4.4792579 6.98123631 -9 9 C-7.63783758 5.78034336 -6.27468847 4.18312565 -3.375 2.25 C-2.74335938 1.82203125 -2.11171875 1.3940625 -1.4609375 0.953125 C-0.97882813 0.63859375 -0.49671875 0.3240625 0 0 Z " fill="#BFF0FD" transform="translate(347,299)"/>
<path d="M0 0 C0.66 0.99 1.32 1.98 2 3 C0.63875 3.86625 0.63875 3.86625 -0.75 4.75 C-3.52022946 6.66785116 -5.71945499 8.54402845 -8 11 C-8.66 10.67 -9.32 10.34 -10 10 C-6.7 6.7 -3.4 3.4 0 0 Z " fill="#17B9FA" transform="translate(681,493)"/>
<path d="M0 0 C1.14926266 0.95421808 2.29430541 1.91352045 3.4375 2.875 C4.07558594 3.40867187 4.71367188 3.94234375 5.37109375 4.4921875 C7 6 7 6 8 8 C7.01 8.33 6.02 8.66 5 9 C4.34 7.68 3.68 6.36 3 5 C1.35 5.33 -0.3 5.66 -2 6 C-1.34 4.02 -0.68 2.04 0 0 Z " fill="#076DD1" transform="translate(771,431)"/>
<path d="M0 0 C0.66 1.32 1.32 2.64 2 4 C0.68 4.99 -0.64 5.98 -2 7 C-2 6.34 -2 5.68 -2 5 C-2.66 4.67 -3.32 4.34 -4 4 C-2.68 2.68 -1.36 1.36 0 0 Z M-4 7 C-3.34 7 -2.68 7 -2 7 C-2.33 7.99 -2.66 8.98 -3 10 C-3.99 9.67 -4.98 9.34 -6 9 C-5.34 8.34 -4.68 7.68 -4 7 Z " fill="#3EB2D7" transform="translate(561,621)"/>
<path d="M0 0 C0.66 0.33 1.32 0.66 2 1 C1.01 2.98 0.02 4.96 -1 7 C-2.32 6.67 -3.64 6.34 -5 6 C-3.63016497 2.83884224 -3.0109362 2.0072908 0 0 Z " fill="#0C6FCA" transform="translate(805,441)"/>
<path d="M0 0 C0.66 0.33 1.32 0.66 2 1 C-0.97 3.97 -3.94 6.94 -7 10 C-7.33 9.01 -7.66 8.02 -8 7 C-7.34 7 -6.68 7 -6 7 C-6 6.01 -6 5.02 -6 4 C-3.5625 2.375 -3.5625 2.375 -1 1 C-0.67 0.67 -0.34 0.34 0 0 Z " fill="#0D74D5" transform="translate(696,413)"/>
<path d="M0 0 C3.80635497 3.20760251 7.54563567 6.40746109 11 10 C6.73327616 9.52591957 4.7544952 7.11692878 2 4 C1.30218703 2.6827 0.62834841 1.35181378 0 0 Z " fill="#BBEEFC" transform="translate(343,357)"/>
<path d="M0 0 C0.66 0.33 1.32 0.66 2 1 C-0.64 3.64 -3.28 6.28 -6 9 C-6.66 8.34 -7.32 7.68 -8 7 C-7.67 6.01 -7.34 5.02 -7 4 C-6.01 4 -5.02 4 -4 4 C-1.81222534 2.0624994 -1.81222534 2.0624994 0 0 Z " fill="#0F74D8" transform="translate(570,548)"/>
<path d="M0 0 C0.66 0.33 1.32 0.66 2 1 C1.67 2.32 1.34 3.64 1 5 C-0.98 5.33 -2.96 5.66 -5 6 C-3.35 4.02 -1.7 2.04 0 0 Z " fill="#EAAF61" transform="translate(581,538)"/>
<path d="M0 0 C0 0.99 0 1.98 0 3 C-0.53625 3.061875 -1.0725 3.12375 -1.625 3.1875 C-5.11156962 4.38027382 -7.24940393 6.56197166 -10 9 C-8.13405729 4.41995879 -5.20913241 0 0 0 Z " fill="#17B6F6" transform="translate(670,508)"/>
<path d="M0 0 C3.36591866 1.44253657 5.51047079 3.33264727 8 6 C7.34 6.66 6.68 7.32 6 8 C4.99403703 7.0479279 3.99538437 6.08812654 3 5.125 C2.443125 4.59132813 1.88625 4.05765625 1.3125 3.5078125 C0 2 0 2 0 0 Z " fill="#F0AB54" transform="translate(760,418)"/>
<path d="M0 0 C0 1.98 0 3.96 0 6 C-1.65 6.33 -3.3 6.66 -5 7 C-4.53479806 4.30182875 -3.4249099 0 0 0 Z " fill="#F8BB4E" transform="translate(541,582)"/>
<path d="M0 0 C0.99 0.33 1.98 0.66 3 1 C1.35 2.98 -0.3 4.96 -2 7 C-2.99 6.34 -3.98 5.68 -5 5 C-3.35 3.35 -1.7 1.7 0 0 Z " fill="#E9A36B" transform="translate(637,478)"/>
<path d="M0 0 C4.41889613 1.35021826 6.34345343 3.26115668 9 7 C6 7 6 7 4.39453125 5.46875 C3.87246094 4.8190625 3.35039063 4.169375 2.8125 3.5 C2.28269531 2.8503125 1.75289062 2.200625 1.20703125 1.53125 C0.80871094 1.0259375 0.41039062 0.520625 0 0 Z " fill="#EDAB59" transform="translate(775,434)"/>
<path d="M0 0 C0.33 0.66 0.66 1.32 1 2 C1.66 2.33 2.32 2.66 3 3 C2.67 3.99 2.34 4.98 2 6 C0.35 5.67 -1.3 5.34 -3 5 C-1.125 1.125 -1.125 1.125 0 0 Z " fill="#F3AA57" transform="translate(731,377)"/>
<path d="M0 0 C0 3.16880694 -0.2058242 4.43689172 -2 7 C-4.625 7.75 -4.625 7.75 -7 8 C-6.02133662 6.85373678 -5.04205413 5.70800212 -4.0625 4.5625 C-3.51722656 3.92441406 -2.97195313 3.28632813 -2.41015625 2.62890625 C-1.63204305 1.73008851 -0.84063472 0.84063472 0 0 Z " fill="#E7A95D" transform="translate(756,351)"/>
<path d="M0 0 C0.99 0 1.98 0 3 0 C1.50902342 3.7952131 -0.75700849 5.61042731 -4 8 C-4.33 7.01 -4.66 6.02 -5 5 C-4.175 4.54625 -3.35 4.0925 -2.5 3.625 C-1.2625 2.820625 -1.2625 2.820625 0 2 C0 1.34 0 0.68 0 0 Z " fill="#0962BC" transform="translate(828,456)"/>
<path d="M0 0 C1.8125 0.1875 1.8125 0.1875 4 1 C5.75 3.5625 5.75 3.5625 7 6 C4 6 4 6 1.8125 4.125 C0 2 0 2 0 0 Z " fill="#2B76C3" transform="translate(714,417)"/>
<path d="M0 0 C2 0 2 0 4.625 2.3125 C7 5 7 5 7 8 C1.125 3.375 1.125 3.375 0 0 Z " fill="#2B74C3" transform="translate(285,649)"/>
<path d="M0 0 C0.99 0.66 1.98 1.32 3 2 C1.35 3.32 -0.3 4.64 -2 6 C-2.66 5.34 -3.32 4.68 -4 4 C-2.68 2.68 -1.36 1.36 0 0 Z " fill="#EFAD61" transform="translate(597,521)"/>
<path d="M0 0 C1.9375 0.3125 1.9375 0.3125 4 1 C4.33 1.99 4.66 2.98 5 4 C3.02 4 1.04 4 -1 4 C-0.67 2.68 -0.34 1.36 0 0 Z " fill="#24B4ED" transform="translate(659,516)"/>
<path d="M0 0 C0.66 0.66 1.32 1.32 2 2 C1.34 3.32 0.68 4.64 0 6 C-1.32 6 -2.64 6 -4 6 C-2.84826645 3.53199953 -1.95216435 1.95216435 0 0 Z " fill="#27B8F1" transform="translate(728,443)"/>
<path d="M0 0 C3.91402949 1.26941497 5.79072873 2.51167694 8 6 C5 6 5 6 3.61328125 4.6875 C2.40885417 3.125 1.20442708 1.5625 0 0 Z " fill="#F0AB57" transform="translate(783,442)"/>
<path d="M0 0 C0.99 0 1.98 0 3 0 C3.33 0.99 3.66 1.98 4 3 C2.35 3.66 0.7 4.32 -1 5 C-1.33 4.01 -1.66 3.02 -2 2 C-1.34 1.34 -0.68 0.68 0 0 Z " fill="#35B0DC" transform="translate(564,618)"/>
<path d="M0 0 C0.66 0.33 1.32 0.66 2 1 C1.67 2.65 1.34 4.3 1 6 C0.01 6.33 -0.98 6.66 -2 7 C-1.42415568 4.61435923 -0.77772405 2.33317216 0 0 Z " fill="#1D7ACB" transform="translate(525,592)"/>
</svg>
